<svg width="16" height="18" viewBox="0 0 16 18" fill="none" xmlns="http://www.w3.org/2000/svg">
<path d="M13.3858 7.93686V16.6894C13.3858 17.4131 12.7991 17.9998 12.0754 17.9998H1.31038C0.586652 17.9998 0 17.4131 0 16.6894V2.97835C0 2.25445 0.586828 1.66797 1.31038 1.66797H7.11675L13.3858 7.93686Z" fill="#BED8FB"/>
<path d="M2.97835 16.3318C2.25462 16.3318 1.66797 15.7451 1.66797 15.0215V1.31038C1.66793 0.586477 2.25476 0 2.97835 0H8.78468C9.78295 0 15.0537 5.27077 15.0537 6.26892V15.0215C15.0537 15.7452 14.4671 16.3318 13.7434 16.3318H2.97835Z" fill="#DDEAFB"/>
<path d="M15.0538 6.26903V6.82334C15.0538 5.65632 14.1075 4.70999 12.9405 4.70999H11.6542C10.9306 4.70999 10.3438 4.12316 10.3438 3.39961V2.11335C10.3438 0.946336 9.39748 0 8.23047 0H8.78478C9.78286 0 10.7404 0.396562 11.4461 1.10232L13.9515 3.6077C14.6572 4.31343 15.0538 5.27094 15.0538 6.26903Z" fill="#BED8FB"/>
<path d="M7.05746 10.0039V13.8351C7.05746 14.0003 7.19144 14.1343 7.35671 14.1343H9.36743C9.5327 14.1343 9.66668 14.0003 9.66668 13.8351V10.0039H10.5215C10.7881 10.0039 10.9216 9.6816 10.7331 9.49309L8.82304 7.58301C8.56848 7.32845 8.15571 7.32845 7.90114 7.58301L5.99107 9.49309C5.80256 9.6816 5.93609 10.0039 6.20268 10.0039H7.05746Z" fill="#80B4FB"/>
<path d="M6.02894 6.53191H10.6926C11.0147 6.53191 11.2757 6.27084 11.2757 5.94878V5.93275C11.2757 5.61068 11.0147 5.34961 10.6926 5.34961H6.02894C5.70687 5.34961 5.4458 5.61068 5.4458 5.93275V5.94878C5.4458 6.27081 5.70687 6.53191 6.02894 6.53191Z" fill="#80B4FB"/>
</svg>
