<svg width="744" height="240" viewBox="0 0 744 240" fill="none" xmlns="http://www.w3.org/2000/svg">
<path opacity="0.1" d="M496.052 237.569H249.253C230.53 237.569 215.212 222.251 215.212 203.528V55.4486C215.212 36.7259 230.53 21.4073 249.253 21.4073H496.052C514.775 21.4073 530.093 36.7259 530.093 55.4486V203.528C530.093 222.251 514.775 237.569 496.052 237.569Z" fill="black"/>
<path d="M485.838 222.247H247.55C228.827 222.247 213.508 206.929 213.508 188.206V52.0412C213.508 33.3186 228.827 18 247.55 18H485.838C504.561 18 519.879 33.3186 519.879 52.0412V188.206C519.879 206.929 504.561 222.247 485.838 222.247Z" fill="#ECF9FF" stroke="#333333" stroke-width="3"/>
<path d="M409.245 43.5311H324.142V52.0414H409.245V43.5311Z" fill="#757575"/>
<path d="M460.307 60.5513H273.08V69.0616H460.307V60.5513Z" fill="#757575"/>
<path d="M358.183 94.593H247.549V103.103H358.183V94.593Z" fill="#757575"/>
<path d="M366.694 128.634H247.549V137.144H366.694V128.634Z" fill="#757575"/>
<path d="M400.735 111.613H247.549V120.123H400.735V111.613Z" fill="#757575"/>
<path d="M358.183 179.696H247.549V188.206H358.183V179.696Z" fill="#757575"/>
<path d="M383.714 145.655H247.549V154.165H383.714V145.655Z" fill="#757575"/>
<path d="M349.673 162.675H247.549V171.185H349.673V162.675Z" fill="#757575"/>
<path d="M485.837 94.593H434.775V162.675H485.837V94.593Z" fill="#01579B"/>
<path d="M467.115 135.439V126.929C467.115 125.227 468.817 125.227 468.817 123.525C468.817 120.121 470.519 116.717 470.519 111.61C470.519 111.61 470.519 101.398 460.306 99.6959C450.094 99.6959 450.094 111.61 450.094 111.61C450.094 111.61 450.094 116.716 451.796 121.823C451.796 123.525 453.498 125.227 453.498 126.929V133.737L434.775 142.247V162.672H485.837V142.247L467.115 135.439Z" fill="#F2C8BF"/>
<rect x="264" y="54" width="204" height="24" rx="3" stroke="#F27272" stroke-dasharray="4 4"/>
<rect x="240" y="90" width="168" height="108" rx="3" stroke="#F27272" stroke-dasharray="4 4"/>
<rect x="432" y="90" width="60" height="78" rx="3" stroke="#F27272" stroke-dasharray="4 4"/>
<rect x="468.5" y="36.5" width="116" height="17" fill="#F27272" stroke="#F27272"/>
<rect x="492" y="168" width="121" height="18" fill="#F27272"/>
<rect x="118" y="90" width="122" height="30" fill="#F27272"/>
<path d="M477.89 49H476.459L472.948 43.3115H472.909L472.934 43.6289C472.979 44.2344 473.002 44.7878 473.002 45.2891V49H471.942V41.8613H473.358L476.859 47.5205H476.889C476.882 47.4456 476.869 47.1738 476.85 46.7051C476.83 46.2331 476.82 45.8652 476.82 45.6016V41.8613H477.89V49ZM479.774 49V41.8613H480.941V49H479.774ZM488.28 49H486.928L484.687 45.7676L483.998 46.3291V49H482.831V41.8613H483.998V45.2695C484.317 44.8789 484.634 44.5029 484.95 44.1416L486.879 41.8613H488.207C486.96 43.3262 486.067 44.3695 485.526 44.9912L488.28 49ZM492.812 46.1484L493.461 45.3379L495.092 43.5996H496.415L494.242 45.9189L496.552 49H495.204L493.471 46.6318L492.841 47.1494V49H491.703V41.4023H492.841V45.1084L492.782 46.1484H492.812ZM500.805 49L500.575 48.248H500.536C500.276 48.5768 500.014 48.8014 499.75 48.9219C499.486 49.0391 499.148 49.0977 498.734 49.0977C498.204 49.0977 497.789 48.9544 497.489 48.668C497.193 48.3815 497.045 47.9762 497.045 47.4521C497.045 46.8955 497.252 46.4756 497.665 46.1924C498.078 45.9092 498.708 45.7546 499.555 45.7285L500.487 45.6992V45.4111C500.487 45.0661 500.406 44.8089 500.243 44.6396C500.084 44.4671 499.835 44.3809 499.496 44.3809C499.219 44.3809 498.954 44.4215 498.7 44.5029C498.446 44.5843 498.202 44.6803 497.968 44.791L497.597 43.9707C497.89 43.8177 498.21 43.7021 498.559 43.624C498.907 43.5426 499.236 43.502 499.545 43.502C500.232 43.502 500.749 43.6517 501.098 43.9512C501.449 44.2507 501.625 44.721 501.625 45.3623V49H500.805ZM499.096 48.2188C499.512 48.2188 499.846 48.1032 500.097 47.8721C500.351 47.6377 500.478 47.3105 500.478 46.8906V46.4219L499.784 46.4512C499.244 46.4707 498.85 46.5618 498.603 46.7246C498.358 46.8841 498.236 47.1299 498.236 47.4619C498.236 47.7028 498.308 47.89 498.451 48.0234C498.594 48.1536 498.809 48.2188 499.096 48.2188ZM507.777 49H506.625V45.6699C506.625 45.2565 506.547 44.9489 506.391 44.7471C506.234 44.542 505.99 44.4395 505.658 44.4395C505.215 44.4395 504.89 44.5843 504.682 44.874C504.477 45.1605 504.374 45.639 504.374 46.3096V49H503.227V43.5996H504.125L504.286 44.3076H504.345C504.494 44.0505 504.711 43.8519 504.994 43.7119C505.281 43.5719 505.595 43.502 505.937 43.502C506.767 43.502 507.317 43.7852 507.587 44.3516H507.665C507.825 44.0846 508.049 43.8763 508.339 43.7266C508.629 43.5768 508.961 43.502 509.335 43.502C509.979 43.502 510.448 43.6647 510.741 43.9902C511.037 44.3158 511.186 44.8122 511.186 45.4795V49H510.038V45.6699C510.038 45.2565 509.958 44.9489 509.799 44.7471C509.643 44.542 509.398 44.4395 509.066 44.4395C508.62 44.4395 508.293 44.5794 508.085 44.8594C507.88 45.1361 507.777 45.5625 507.777 46.1387V49ZM516.596 49L516.435 48.292H516.376C516.216 48.5426 515.989 48.7396 515.692 48.8828C515.399 49.026 515.064 49.0977 514.687 49.0977C514.032 49.0977 513.544 48.9349 513.222 48.6094C512.899 48.2839 512.738 47.7907 512.738 47.1299V43.5996H513.896V46.9297C513.896 47.3431 513.98 47.654 514.149 47.8623C514.319 48.0674 514.584 48.1699 514.945 48.1699C515.427 48.1699 515.78 48.0267 516.005 47.7402C516.233 47.4505 516.347 46.9671 516.347 46.29V43.5996H517.499V49H516.596ZM523.744 48.1699C524.024 48.1699 524.304 48.126 524.584 48.0381V48.9023C524.457 48.9577 524.293 49.0033 524.091 49.0391C523.892 49.0781 523.686 49.0977 523.471 49.0977C522.383 49.0977 521.84 48.5247 521.84 47.3789V44.4688H521.103V43.9609L521.894 43.541L522.284 42.3984H522.992V43.5996H524.53V44.4688H522.992V47.3594C522.992 47.6361 523.061 47.8411 523.197 47.9746C523.337 48.1048 523.52 48.1699 523.744 48.1699ZM528.026 49.0977C527.187 49.0977 526.529 48.8535 526.054 48.3652C525.582 47.8737 525.346 47.1982 525.346 46.3389C525.346 45.4567 525.565 44.7633 526.005 44.2588C526.444 43.7542 527.048 43.502 527.816 43.502C528.529 43.502 529.092 43.7184 529.506 44.1514C529.919 44.5843 530.126 45.18 530.126 45.9385V46.5586H526.527C526.544 47.0827 526.685 47.4863 526.952 47.7695C527.219 48.0495 527.595 48.1895 528.08 48.1895C528.399 48.1895 528.695 48.1602 528.969 48.1016C529.245 48.0397 529.542 47.9388 529.857 47.7988V48.7314C529.577 48.8649 529.294 48.9593 529.008 49.0146C528.721 49.07 528.394 49.0977 528.026 49.0977ZM527.816 44.3711C527.452 44.3711 527.159 44.4867 526.938 44.7178C526.719 44.9489 526.589 45.2858 526.547 45.7285H528.998C528.992 45.2826 528.884 44.9456 528.676 44.7178C528.467 44.4867 528.181 44.3711 527.816 44.3711ZM534.169 43.502C534.4 43.502 534.59 43.5182 534.74 43.5508L534.628 44.6201C534.465 44.5811 534.296 44.5615 534.12 44.5615C533.661 44.5615 533.288 44.7113 533.002 45.0107C532.719 45.3102 532.577 45.6992 532.577 46.1777V49H531.43V43.5996H532.328L532.479 44.5518H532.538C532.717 44.2295 532.95 43.974 533.236 43.7852C533.526 43.5964 533.837 43.502 534.169 43.502ZM536.894 49H535.746V41.4023H536.894V49ZM539.687 49H538.539V43.5996H539.687V49ZM538.471 42.1689C538.471 41.9639 538.526 41.806 538.637 41.6953C538.751 41.5846 538.912 41.5293 539.12 41.5293C539.322 41.5293 539.478 41.5846 539.589 41.6953C539.703 41.806 539.76 41.9639 539.76 42.1689C539.76 42.3643 539.703 42.5189 539.589 42.6328C539.478 42.7435 539.322 42.7988 539.12 42.7988C538.912 42.7988 538.751 42.7435 538.637 42.6328C538.526 42.5189 538.471 42.3643 538.471 42.1689ZM546.083 49H544.931V45.6797C544.931 45.263 544.846 44.9521 544.677 44.7471C544.511 44.542 544.245 44.4395 543.881 44.4395C543.399 44.4395 543.044 44.5843 542.816 44.874C542.592 45.1605 542.479 45.6423 542.479 46.3193V49H541.332V41.4023H542.479V43.3311C542.479 43.6403 542.46 43.9707 542.421 44.3223H542.494C542.65 44.0618 542.867 43.86 543.144 43.7168C543.424 43.5736 543.749 43.502 544.12 43.502C545.429 43.502 546.083 44.1611 546.083 45.4795V49ZM551.059 49L550.829 48.248H550.79C550.53 48.5768 550.268 48.8014 550.004 48.9219C549.74 49.0391 549.402 49.0977 548.988 49.0977C548.458 49.0977 548.043 48.9544 547.743 48.668C547.447 48.3815 547.299 47.9762 547.299 47.4521C547.299 46.8955 547.506 46.4756 547.919 46.1924C548.332 45.9092 548.962 45.7546 549.809 45.7285L550.741 45.6992V45.4111C550.741 45.0661 550.66 44.8089 550.497 44.6396C550.338 44.4671 550.089 44.3809 549.75 44.3809C549.473 44.3809 549.208 44.4215 548.954 44.5029C548.7 44.5843 548.456 44.6803 548.222 44.791L547.851 43.9707C548.144 43.8177 548.464 43.7021 548.812 43.624C549.161 43.5426 549.49 43.502 549.799 43.502C550.486 43.502 551.003 43.6517 551.352 43.9512C551.703 44.2507 551.879 44.721 551.879 45.3623V49H551.059ZM549.35 48.2188C549.766 48.2188 550.1 48.1032 550.351 47.8721C550.604 47.6377 550.731 47.3105 550.731 46.8906V46.4219L550.038 46.4512C549.498 46.4707 549.104 46.5618 548.856 46.7246C548.612 46.8841 548.49 47.1299 548.49 47.4619C548.49 47.7028 548.562 47.89 548.705 48.0234C548.848 48.1536 549.063 48.2188 549.35 48.2188ZM555.492 48.1699C555.772 48.1699 556.052 48.126 556.332 48.0381V48.9023C556.205 48.9577 556.041 49.0033 555.839 49.0391C555.64 49.0781 555.434 49.0977 555.219 49.0977C554.132 49.0977 553.588 48.5247 553.588 47.3789V44.4688H552.851V43.9609L553.642 43.541L554.032 42.3984H554.74V43.5996H556.278V44.4688H554.74V47.3594C554.74 47.6361 554.809 47.8411 554.945 47.9746C555.085 48.1048 555.268 48.1699 555.492 48.1699ZM559.462 51.4023C559.117 51.4023 558.83 51.3617 558.603 51.2803V50.3721C558.824 50.4307 559.05 50.46 559.281 50.46C559.77 50.46 560.014 50.1833 560.014 49.6299V43.5996H561.161V49.708C561.161 50.2646 561.015 50.6862 560.722 50.9727C560.432 51.2591 560.012 51.4023 559.462 51.4023ZM559.945 42.1689C559.945 41.9639 560.001 41.806 560.111 41.6953C560.225 41.5846 560.386 41.5293 560.595 41.5293C560.797 41.5293 560.953 41.5846 561.063 41.6953C561.177 41.806 561.234 41.9639 561.234 42.1689C561.234 42.3643 561.177 42.5189 561.063 42.6328C560.953 42.7435 560.797 42.7988 560.595 42.7988C560.386 42.7988 560.225 42.7435 560.111 42.6328C560.001 42.5189 559.945 42.3643 559.945 42.1689ZM565.165 49.0977C564.325 49.0977 563.668 48.8535 563.192 48.3652C562.72 47.8737 562.484 47.1982 562.484 46.3389C562.484 45.4567 562.704 44.7633 563.144 44.2588C563.583 43.7542 564.187 43.502 564.955 43.502C565.668 43.502 566.231 43.7184 566.645 44.1514C567.058 44.5843 567.265 45.18 567.265 45.9385V46.5586H563.666C563.682 47.0827 563.824 47.4863 564.091 47.7695C564.358 48.0495 564.734 48.1895 565.219 48.1895C565.538 48.1895 565.834 48.1602 566.107 48.1016C566.384 48.0397 566.68 47.9388 566.996 47.7988V48.7314C566.716 48.8649 566.433 48.9593 566.146 49.0146C565.86 49.07 565.533 49.0977 565.165 49.0977ZM564.955 44.3711C564.59 44.3711 564.298 44.4867 564.076 44.7178C563.858 44.9489 563.728 45.2858 563.686 45.7285H566.137C566.13 45.2826 566.023 44.9456 565.814 44.7178C565.606 44.4867 565.32 44.3711 564.955 44.3711ZM569.716 49H568.568V41.4023H569.716V49ZM574.74 49L574.511 48.248H574.472C574.211 48.5768 573.949 48.8014 573.686 48.9219C573.422 49.0391 573.083 49.0977 572.67 49.0977C572.139 49.0977 571.724 48.9544 571.425 48.668C571.129 48.3815 570.98 47.9762 570.98 47.4521C570.98 46.8955 571.187 46.4756 571.601 46.1924C572.014 45.9092 572.644 45.7546 573.49 45.7285L574.423 45.6992V45.4111C574.423 45.0661 574.341 44.8089 574.179 44.6396C574.019 44.4671 573.77 44.3809 573.432 44.3809C573.155 44.3809 572.89 44.4215 572.636 44.5029C572.382 44.5843 572.138 44.6803 571.903 44.791L571.532 43.9707C571.825 43.8177 572.146 43.7021 572.494 43.624C572.842 43.5426 573.171 43.502 573.48 43.502C574.167 43.502 574.685 43.6517 575.033 43.9512C575.385 44.2507 575.561 44.721 575.561 45.3623V49H574.74ZM573.031 48.2188C573.448 48.2188 573.782 48.1032 574.032 47.8721C574.286 47.6377 574.413 47.3105 574.413 46.8906V46.4219L573.72 46.4512C573.179 46.4707 572.785 46.5618 572.538 46.7246C572.294 46.8841 572.172 47.1299 572.172 47.4619C572.172 47.7028 572.243 47.89 572.387 48.0234C572.53 48.1536 572.745 48.2188 573.031 48.2188ZM580.79 47.4619C580.79 47.9893 580.598 48.3945 580.214 48.6777C579.83 48.9577 579.28 49.0977 578.563 49.0977C577.844 49.0977 577.266 48.9886 576.83 48.7705V47.7793C577.465 48.0723 578.056 48.2188 578.603 48.2188C579.309 48.2188 579.662 48.0055 579.662 47.5791C579.662 47.4424 579.623 47.3285 579.545 47.2373C579.467 47.1462 579.338 47.0518 579.159 46.9541C578.98 46.8564 578.731 46.7458 578.412 46.6221C577.79 46.3812 577.369 46.1403 577.147 45.8994C576.929 45.6585 576.82 45.346 576.82 44.9619C576.82 44.4997 577.006 44.1416 577.377 43.8877C577.751 43.6305 578.259 43.502 578.9 43.502C579.535 43.502 580.136 43.6305 580.702 43.8877L580.331 44.752C579.748 44.5111 579.258 44.3906 578.861 44.3906C578.256 44.3906 577.953 44.5632 577.953 44.9082C577.953 45.0775 578.031 45.2207 578.188 45.3379C578.347 45.4551 578.692 45.6162 579.223 45.8213C579.669 45.9938 579.993 46.1517 580.194 46.2949C580.396 46.4382 580.546 46.6042 580.644 46.793C580.741 46.9785 580.79 47.2015 580.79 47.4619Z" fill="white"/>
<path d="M497.1 181H495.942V173.861H499.971V174.848H497.1V177.079H499.79V178.07H497.1V181ZM505.933 178.29C505.933 179.172 505.706 179.861 505.254 180.355C504.801 180.85 504.172 181.098 503.364 181.098C502.86 181.098 502.414 180.984 502.026 180.756C501.639 180.528 501.341 180.201 501.133 179.774C500.924 179.348 500.82 178.853 500.82 178.29C500.82 177.414 501.045 176.731 501.494 176.239C501.943 175.748 502.576 175.502 503.394 175.502C504.175 175.502 504.793 175.754 505.249 176.259C505.705 176.76 505.933 177.437 505.933 178.29ZM502.002 178.29C502.002 179.537 502.463 180.16 503.384 180.16C504.295 180.16 504.751 179.537 504.751 178.29C504.751 177.056 504.292 176.439 503.374 176.439C502.892 176.439 502.542 176.599 502.324 176.918C502.109 177.237 502.002 177.694 502.002 178.29ZM509.268 180.17C509.548 180.17 509.827 180.126 510.107 180.038V180.902C509.98 180.958 509.816 181.003 509.614 181.039C509.416 181.078 509.209 181.098 508.994 181.098C507.907 181.098 507.363 180.525 507.363 179.379V176.469H506.626V175.961L507.417 175.541L507.808 174.398H508.516V175.6H510.054V176.469H508.516V179.359C508.516 179.636 508.584 179.841 508.721 179.975C508.861 180.105 509.043 180.17 509.268 180.17ZM515.981 178.29C515.981 179.172 515.755 179.861 515.303 180.355C514.85 180.85 514.22 181.098 513.413 181.098C512.909 181.098 512.463 180.984 512.075 180.756C511.688 180.528 511.39 180.201 511.182 179.774C510.973 179.348 510.869 178.853 510.869 178.29C510.869 177.414 511.094 176.731 511.543 176.239C511.992 175.748 512.625 175.502 513.442 175.502C514.224 175.502 514.842 175.754 515.298 176.259C515.754 176.76 515.981 177.437 515.981 178.29ZM512.051 178.29C512.051 179.537 512.511 180.16 513.433 180.16C514.344 180.16 514.8 179.537 514.8 178.29C514.8 177.056 514.341 176.439 513.423 176.439C512.941 176.439 512.591 176.599 512.373 176.918C512.158 177.237 512.051 177.694 512.051 178.29ZM521.011 178.148L521.66 177.338L523.291 175.6H524.614L522.441 177.919L524.751 181H523.403L521.67 178.632L521.04 179.149V181H519.902V173.402H521.04V177.108L520.981 178.148H521.011ZM529.004 181L528.774 180.248H528.735C528.475 180.577 528.213 180.801 527.949 180.922C527.686 181.039 527.347 181.098 526.934 181.098C526.403 181.098 525.988 180.954 525.688 180.668C525.392 180.382 525.244 179.976 525.244 179.452C525.244 178.896 525.451 178.476 525.864 178.192C526.278 177.909 526.908 177.755 527.754 177.729L528.687 177.699V177.411C528.687 177.066 528.605 176.809 528.442 176.64C528.283 176.467 528.034 176.381 527.695 176.381C527.419 176.381 527.153 176.422 526.899 176.503C526.646 176.584 526.401 176.68 526.167 176.791L525.796 175.971C526.089 175.818 526.41 175.702 526.758 175.624C527.106 175.543 527.435 175.502 527.744 175.502C528.431 175.502 528.949 175.652 529.297 175.951C529.648 176.251 529.824 176.721 529.824 177.362V181H529.004ZM527.295 180.219C527.712 180.219 528.045 180.103 528.296 179.872C528.55 179.638 528.677 179.311 528.677 178.891V178.422L527.983 178.451C527.443 178.471 527.049 178.562 526.802 178.725C526.558 178.884 526.436 179.13 526.436 179.462C526.436 179.703 526.507 179.89 526.65 180.023C526.794 180.154 527.008 180.219 527.295 180.219ZM535.977 181H534.824V177.67C534.824 177.257 534.746 176.949 534.59 176.747C534.434 176.542 534.189 176.439 533.857 176.439C533.415 176.439 533.089 176.584 532.881 176.874C532.676 177.16 532.573 177.639 532.573 178.31V181H531.426V175.6H532.324L532.485 176.308H532.544C532.694 176.05 532.91 175.852 533.193 175.712C533.48 175.572 533.794 175.502 534.136 175.502C534.966 175.502 535.516 175.785 535.786 176.352H535.864C536.024 176.085 536.248 175.876 536.538 175.727C536.828 175.577 537.16 175.502 537.534 175.502C538.179 175.502 538.647 175.665 538.94 175.99C539.237 176.316 539.385 176.812 539.385 177.479V181H538.237V177.67C538.237 177.257 538.158 176.949 537.998 176.747C537.842 176.542 537.598 176.439 537.266 176.439C536.82 176.439 536.493 176.579 536.284 176.859C536.079 177.136 535.977 177.562 535.977 178.139V181ZM544.795 181L544.634 180.292H544.575C544.416 180.543 544.188 180.74 543.892 180.883C543.599 181.026 543.263 181.098 542.886 181.098C542.231 181.098 541.743 180.935 541.421 180.609C541.099 180.284 540.938 179.791 540.938 179.13V175.6H542.095V178.93C542.095 179.343 542.179 179.654 542.349 179.862C542.518 180.067 542.783 180.17 543.145 180.17C543.626 180.17 543.979 180.027 544.204 179.74C544.432 179.451 544.546 178.967 544.546 178.29V175.6H545.698V181H544.795ZM551.943 180.17C552.223 180.17 552.503 180.126 552.783 180.038V180.902C552.656 180.958 552.492 181.003 552.29 181.039C552.091 181.078 551.885 181.098 551.67 181.098C550.583 181.098 550.039 180.525 550.039 179.379V176.469H549.302V175.961L550.093 175.541L550.483 174.398H551.191V175.6H552.729V176.469H551.191V179.359C551.191 179.636 551.26 179.841 551.396 179.975C551.536 180.105 551.719 180.17 551.943 180.17ZM556.226 181.098C555.386 181.098 554.728 180.854 554.253 180.365C553.781 179.874 553.545 179.198 553.545 178.339C553.545 177.457 553.765 176.763 554.204 176.259C554.644 175.754 555.247 175.502 556.016 175.502C556.729 175.502 557.292 175.718 557.705 176.151C558.118 176.584 558.325 177.18 558.325 177.938V178.559H554.727C554.743 179.083 554.884 179.486 555.151 179.77C555.418 180.049 555.794 180.189 556.279 180.189C556.598 180.189 556.895 180.16 557.168 180.102C557.445 180.04 557.741 179.939 558.057 179.799V180.731C557.777 180.865 557.493 180.959 557.207 181.015C556.921 181.07 556.593 181.098 556.226 181.098ZM556.016 176.371C555.651 176.371 555.358 176.487 555.137 176.718C554.919 176.949 554.788 177.286 554.746 177.729H557.197C557.191 177.283 557.083 176.946 556.875 176.718C556.667 176.487 556.38 176.371 556.016 176.371ZM562.368 175.502C562.599 175.502 562.79 175.518 562.939 175.551L562.827 176.62C562.664 176.581 562.495 176.562 562.319 176.562C561.86 176.562 561.488 176.711 561.201 177.011C560.918 177.31 560.776 177.699 560.776 178.178V181H559.629V175.6H560.527L560.679 176.552H560.737C560.916 176.229 561.149 175.974 561.436 175.785C561.725 175.596 562.036 175.502 562.368 175.502ZM565.093 181H563.945V173.402H565.093V181ZM567.886 181H566.738V175.6H567.886V181ZM566.67 174.169C566.67 173.964 566.725 173.806 566.836 173.695C566.95 173.585 567.111 173.529 567.319 173.529C567.521 173.529 567.677 173.585 567.788 173.695C567.902 173.806 567.959 173.964 567.959 174.169C567.959 174.364 567.902 174.519 567.788 174.633C567.677 174.743 567.521 174.799 567.319 174.799C567.111 174.799 566.95 174.743 566.836 174.633C566.725 174.519 566.67 174.364 566.67 174.169ZM574.282 181H573.13V177.68C573.13 177.263 573.045 176.952 572.876 176.747C572.71 176.542 572.445 176.439 572.08 176.439C571.598 176.439 571.243 176.584 571.016 176.874C570.791 177.16 570.679 177.642 570.679 178.319V181H569.531V173.402H570.679V175.331C570.679 175.64 570.659 175.971 570.62 176.322H570.693C570.85 176.062 571.066 175.86 571.343 175.717C571.623 175.574 571.948 175.502 572.319 175.502C573.628 175.502 574.282 176.161 574.282 177.479V181ZM579.258 181L579.028 180.248H578.989C578.729 180.577 578.467 180.801 578.203 180.922C577.939 181.039 577.601 181.098 577.188 181.098C576.657 181.098 576.242 180.954 575.942 180.668C575.646 180.382 575.498 179.976 575.498 179.452C575.498 178.896 575.705 178.476 576.118 178.192C576.532 177.909 577.161 177.755 578.008 177.729L578.94 177.699V177.411C578.94 177.066 578.859 176.809 578.696 176.64C578.537 176.467 578.288 176.381 577.949 176.381C577.673 176.381 577.407 176.422 577.153 176.503C576.899 176.584 576.655 176.68 576.421 176.791L576.05 175.971C576.343 175.818 576.663 175.702 577.012 175.624C577.36 175.543 577.689 175.502 577.998 175.502C578.685 175.502 579.202 175.652 579.551 175.951C579.902 176.251 580.078 176.721 580.078 177.362V181H579.258ZM577.549 180.219C577.965 180.219 578.299 180.103 578.55 179.872C578.804 179.638 578.931 179.311 578.931 178.891V178.422L578.237 178.451C577.697 178.471 577.303 178.562 577.056 178.725C576.812 178.884 576.689 179.13 576.689 179.462C576.689 179.703 576.761 179.89 576.904 180.023C577.048 180.154 577.262 180.219 577.549 180.219ZM583.691 180.17C583.971 180.17 584.251 180.126 584.531 180.038V180.902C584.404 180.958 584.24 181.003 584.038 181.039C583.84 181.078 583.633 181.098 583.418 181.098C582.331 181.098 581.787 180.525 581.787 179.379V176.469H581.05V175.961L581.841 175.541L582.231 174.398H582.939V175.6H584.478V176.469H582.939V179.359C582.939 179.636 583.008 179.841 583.145 179.975C583.285 180.105 583.467 180.17 583.691 180.17ZM587.661 183.402C587.316 183.402 587.03 183.362 586.802 183.28V182.372C587.023 182.431 587.249 182.46 587.48 182.46C587.969 182.46 588.213 182.183 588.213 181.63V175.6H589.36V181.708C589.36 182.265 589.214 182.686 588.921 182.973C588.631 183.259 588.211 183.402 587.661 183.402ZM588.145 174.169C588.145 173.964 588.2 173.806 588.311 173.695C588.424 173.585 588.586 173.529 588.794 173.529C588.996 173.529 589.152 173.585 589.263 173.695C589.377 173.806 589.434 173.964 589.434 174.169C589.434 174.364 589.377 174.519 589.263 174.633C589.152 174.743 588.996 174.799 588.794 174.799C588.586 174.799 588.424 174.743 588.311 174.633C588.2 174.519 588.145 174.364 588.145 174.169ZM593.364 181.098C592.524 181.098 591.867 180.854 591.392 180.365C590.92 179.874 590.684 179.198 590.684 178.339C590.684 177.457 590.903 176.763 591.343 176.259C591.782 175.754 592.386 175.502 593.154 175.502C593.867 175.502 594.43 175.718 594.844 176.151C595.257 176.584 595.464 177.18 595.464 177.938V178.559H591.865C591.882 179.083 592.023 179.486 592.29 179.77C592.557 180.049 592.933 180.189 593.418 180.189C593.737 180.189 594.033 180.16 594.307 180.102C594.583 180.04 594.88 179.939 595.195 179.799V180.731C594.915 180.865 594.632 180.959 594.346 181.015C594.059 181.07 593.732 181.098 593.364 181.098ZM593.154 176.371C592.79 176.371 592.497 176.487 592.275 176.718C592.057 176.949 591.927 177.286 591.885 177.729H594.336C594.329 177.283 594.222 176.946 594.014 176.718C593.805 176.487 593.519 176.371 593.154 176.371ZM597.915 181H596.768V173.402H597.915V181ZM602.939 181L602.71 180.248H602.671C602.41 180.577 602.148 180.801 601.885 180.922C601.621 181.039 601.283 181.098 600.869 181.098C600.339 181.098 599.924 180.954 599.624 180.668C599.328 180.382 599.18 179.976 599.18 179.452C599.18 178.896 599.386 178.476 599.8 178.192C600.213 177.909 600.843 177.755 601.689 177.729L602.622 177.699V177.411C602.622 177.066 602.541 176.809 602.378 176.64C602.218 176.467 601.969 176.381 601.631 176.381C601.354 176.381 601.089 176.422 600.835 176.503C600.581 176.584 600.337 176.68 600.103 176.791L599.731 175.971C600.024 175.818 600.345 175.702 600.693 175.624C601.042 175.543 601.37 175.502 601.68 175.502C602.367 175.502 602.884 175.652 603.232 175.951C603.584 176.251 603.76 176.721 603.76 177.362V181H602.939ZM601.23 180.219C601.647 180.219 601.981 180.103 602.231 179.872C602.485 179.638 602.612 179.311 602.612 178.891V178.422L601.919 178.451C601.379 178.471 600.985 178.562 600.737 178.725C600.493 178.884 600.371 179.13 600.371 179.462C600.371 179.703 600.443 179.89 600.586 180.023C600.729 180.154 600.944 180.219 601.23 180.219ZM608.989 179.462C608.989 179.989 608.797 180.395 608.413 180.678C608.029 180.958 607.479 181.098 606.763 181.098C606.043 181.098 605.465 180.989 605.029 180.771V179.779C605.664 180.072 606.255 180.219 606.802 180.219C607.508 180.219 607.861 180.006 607.861 179.579C607.861 179.442 607.822 179.328 607.744 179.237C607.666 179.146 607.537 179.052 607.358 178.954C607.179 178.856 606.93 178.746 606.611 178.622C605.99 178.381 605.568 178.14 605.347 177.899C605.129 177.659 605.02 177.346 605.02 176.962C605.02 176.5 605.205 176.142 605.576 175.888C605.951 175.631 606.458 175.502 607.1 175.502C607.734 175.502 608.335 175.631 608.901 175.888L608.53 176.752C607.948 176.511 607.458 176.391 607.061 176.391C606.455 176.391 606.152 176.563 606.152 176.908C606.152 177.077 606.23 177.221 606.387 177.338C606.546 177.455 606.891 177.616 607.422 177.821C607.868 177.994 608.192 178.152 608.394 178.295C608.595 178.438 608.745 178.604 608.843 178.793C608.94 178.979 608.989 179.201 608.989 179.462Z" fill="white"/>
<path d="M127.748 99.3623C127.748 100.541 127.421 101.442 126.767 102.067C126.112 102.689 125.17 103 123.939 103H121.942V95.8613H124.149C125.285 95.8613 126.169 96.1673 126.801 96.7793C127.432 97.3913 127.748 98.2523 127.748 99.3623ZM126.518 99.4014C126.518 97.6924 125.718 96.8379 124.12 96.8379H123.109V102.019H123.939C125.658 102.019 126.518 101.146 126.518 99.4014ZM132.543 103L132.313 102.248H132.274C132.014 102.577 131.752 102.801 131.488 102.922C131.225 103.039 130.886 103.098 130.473 103.098C129.942 103.098 129.527 102.954 129.228 102.668C128.931 102.382 128.783 101.976 128.783 101.452C128.783 100.896 128.99 100.476 129.403 100.192C129.817 99.9092 130.447 99.7546 131.293 99.7285L132.226 99.6992V99.4111C132.226 99.0661 132.144 98.8089 131.981 98.6396C131.822 98.4671 131.573 98.3809 131.234 98.3809C130.958 98.3809 130.692 98.4215 130.438 98.5029C130.185 98.5843 129.94 98.6803 129.706 98.791L129.335 97.9707C129.628 97.8177 129.949 97.7021 130.297 97.624C130.645 97.5426 130.974 97.502 131.283 97.502C131.97 97.502 132.488 97.6517 132.836 97.9512C133.188 98.2507 133.363 98.721 133.363 99.3623V103H132.543ZM130.834 102.219C131.251 102.219 131.584 102.103 131.835 101.872C132.089 101.638 132.216 101.311 132.216 100.891V100.422L131.522 100.451C130.982 100.471 130.588 100.562 130.341 100.725C130.097 100.884 129.975 101.13 129.975 101.462C129.975 101.703 130.046 101.89 130.189 102.023C130.333 102.154 130.548 102.219 130.834 102.219ZM136.977 102.17C137.257 102.17 137.536 102.126 137.816 102.038V102.902C137.689 102.958 137.525 103.003 137.323 103.039C137.125 103.078 136.918 103.098 136.703 103.098C135.616 103.098 135.072 102.525 135.072 101.379V98.4688H134.335V97.9609L135.126 97.541L135.517 96.3984H136.225V97.5996H137.763V98.4688H136.225V101.359C136.225 101.636 136.293 101.841 136.43 101.975C136.57 102.105 136.752 102.17 136.977 102.17ZM142.279 103L142.05 102.248H142.011C141.75 102.577 141.488 102.801 141.225 102.922C140.961 103.039 140.622 103.098 140.209 103.098C139.678 103.098 139.263 102.954 138.964 102.668C138.668 102.382 138.52 101.976 138.52 101.452C138.52 100.896 138.726 100.476 139.14 100.192C139.553 99.9092 140.183 99.7546 141.029 99.7285L141.962 99.6992V99.4111C141.962 99.0661 141.881 98.8089 141.718 98.6396C141.558 98.4671 141.309 98.3809 140.971 98.3809C140.694 98.3809 140.429 98.4215 140.175 98.5029C139.921 98.5843 139.677 98.6803 139.442 98.791L139.071 97.9707C139.364 97.8177 139.685 97.7021 140.033 97.624C140.382 97.5426 140.71 97.502 141.02 97.502C141.706 97.502 142.224 97.6517 142.572 97.9512C142.924 98.2507 143.1 98.721 143.1 99.3623V103H142.279ZM140.57 102.219C140.987 102.219 141.321 102.103 141.571 101.872C141.825 101.638 141.952 101.311 141.952 100.891V100.422L141.259 100.451C140.718 100.471 140.325 100.562 140.077 100.725C139.833 100.884 139.711 101.13 139.711 101.462C139.711 101.703 139.783 101.89 139.926 102.023C140.069 102.154 140.284 102.219 140.57 102.219ZM148.407 100.148L149.057 99.3379L150.688 97.5996H152.011L149.838 99.9189L152.147 103H150.8L149.066 100.632L148.437 101.149V103H147.299V95.4023H148.437V99.1084L148.378 100.148H148.407ZM156.4 103L156.171 102.248H156.132C155.871 102.577 155.609 102.801 155.346 102.922C155.082 103.039 154.743 103.098 154.33 103.098C153.799 103.098 153.384 102.954 153.085 102.668C152.789 102.382 152.641 101.976 152.641 101.452C152.641 100.896 152.847 100.476 153.261 100.192C153.674 99.9092 154.304 99.7546 155.15 99.7285L156.083 99.6992V99.4111C156.083 99.0661 156.002 98.8089 155.839 98.6396C155.679 98.4671 155.43 98.3809 155.092 98.3809C154.815 98.3809 154.55 98.4215 154.296 98.5029C154.042 98.5843 153.798 98.6803 153.563 98.791L153.192 97.9707C153.485 97.8177 153.806 97.7021 154.154 97.624C154.503 97.5426 154.831 97.502 155.141 97.502C155.827 97.502 156.345 97.6517 156.693 97.9512C157.045 98.2507 157.221 98.721 157.221 99.3623V103H156.4ZM154.691 102.219C155.108 102.219 155.442 102.103 155.692 101.872C155.946 101.638 156.073 101.311 156.073 100.891V100.422L155.38 100.451C154.84 100.471 154.446 100.562 154.198 100.725C153.954 100.884 153.832 101.13 153.832 101.462C153.832 101.703 153.904 101.89 154.047 102.023C154.19 102.154 154.405 102.219 154.691 102.219ZM163.373 103H162.221V99.6699C162.221 99.2565 162.143 98.9489 161.986 98.7471C161.83 98.542 161.586 98.4395 161.254 98.4395C160.811 98.4395 160.486 98.5843 160.277 98.874C160.072 99.1605 159.97 99.639 159.97 100.31V103H158.822V97.5996H159.721L159.882 98.3076H159.94C160.09 98.0505 160.307 97.8519 160.59 97.7119C160.876 97.5719 161.19 97.502 161.532 97.502C162.362 97.502 162.912 97.7852 163.183 98.3516H163.261C163.42 98.0846 163.645 97.8763 163.935 97.7266C164.224 97.5768 164.556 97.502 164.931 97.502C165.575 97.502 166.044 97.6647 166.337 97.9902C166.633 98.3158 166.781 98.8122 166.781 99.4795V103H165.634V99.6699C165.634 99.2565 165.554 98.9489 165.395 98.7471C165.238 98.542 164.994 98.4395 164.662 98.4395C164.216 98.4395 163.889 98.5794 163.681 98.8594C163.476 99.1361 163.373 99.5625 163.373 100.139V103ZM172.191 103L172.03 102.292H171.972C171.812 102.543 171.584 102.74 171.288 102.883C170.995 103.026 170.66 103.098 170.282 103.098C169.628 103.098 169.14 102.935 168.817 102.609C168.495 102.284 168.334 101.791 168.334 101.13V97.5996H169.491V100.93C169.491 101.343 169.576 101.654 169.745 101.862C169.914 102.067 170.18 102.17 170.541 102.17C171.023 102.17 171.376 102.027 171.601 101.74C171.828 101.451 171.942 100.967 171.942 100.29V97.5996H173.095V103H172.191ZM179.34 102.17C179.62 102.17 179.9 102.126 180.18 102.038V102.902C180.053 102.958 179.888 103.003 179.687 103.039C179.488 103.078 179.281 103.098 179.066 103.098C177.979 103.098 177.436 102.525 177.436 101.379V98.4688H176.698V97.9609L177.489 97.541L177.88 96.3984H178.588V97.5996H180.126V98.4688H178.588V101.359C178.588 101.636 178.656 101.841 178.793 101.975C178.933 102.105 179.115 102.17 179.34 102.17ZM183.622 103.098C182.782 103.098 182.125 102.854 181.649 102.365C181.177 101.874 180.941 101.198 180.941 100.339C180.941 99.4567 181.161 98.7633 181.601 98.2588C182.04 97.7542 182.644 97.502 183.412 97.502C184.125 97.502 184.688 97.7184 185.102 98.1514C185.515 98.5843 185.722 99.18 185.722 99.9385V100.559H182.123C182.139 101.083 182.281 101.486 182.548 101.77C182.815 102.049 183.191 102.189 183.676 102.189C183.995 102.189 184.291 102.16 184.564 102.102C184.841 102.04 185.137 101.939 185.453 101.799V102.731C185.173 102.865 184.89 102.959 184.604 103.015C184.317 103.07 183.99 103.098 183.622 103.098ZM183.412 98.3711C183.048 98.3711 182.755 98.4867 182.533 98.7178C182.315 98.9489 182.185 99.2858 182.143 99.7285H184.594C184.587 99.2826 184.48 98.9456 184.271 98.7178C184.063 98.4867 183.777 98.3711 183.412 98.3711ZM189.765 97.502C189.996 97.502 190.186 97.5182 190.336 97.5508L190.224 98.6201C190.061 98.5811 189.892 98.5615 189.716 98.5615C189.257 98.5615 188.884 98.7113 188.598 99.0107C188.314 99.3102 188.173 99.6992 188.173 100.178V103H187.025V97.5996H187.924L188.075 98.5518H188.134C188.313 98.2295 188.546 97.974 188.832 97.7852C189.122 97.5964 189.433 97.502 189.765 97.502ZM192.489 103H191.342V95.4023H192.489V103ZM195.282 103H194.135V97.5996H195.282V103ZM194.066 96.1689C194.066 95.9639 194.122 95.806 194.232 95.6953C194.346 95.5846 194.507 95.5293 194.716 95.5293C194.918 95.5293 195.074 95.5846 195.185 95.6953C195.299 95.806 195.355 95.9639 195.355 96.1689C195.355 96.3643 195.299 96.5189 195.185 96.6328C195.074 96.7435 194.918 96.7988 194.716 96.7988C194.507 96.7988 194.346 96.7435 194.232 96.6328C194.122 96.5189 194.066 96.3643 194.066 96.1689ZM201.679 103H200.526V99.6797C200.526 99.263 200.442 98.9521 200.272 98.7471C200.106 98.542 199.841 98.4395 199.477 98.4395C198.995 98.4395 198.64 98.5843 198.412 98.874C198.188 99.1605 198.075 99.6423 198.075 100.319V103H196.928V95.4023H198.075V97.3311C198.075 97.6403 198.056 97.9707 198.017 98.3223H198.09C198.246 98.0618 198.463 97.86 198.739 97.7168C199.019 97.5736 199.345 97.502 199.716 97.502C201.024 97.502 201.679 98.1611 201.679 99.4795V103ZM206.654 103L206.425 102.248H206.386C206.125 102.577 205.863 102.801 205.6 102.922C205.336 103.039 204.997 103.098 204.584 103.098C204.053 103.098 203.638 102.954 203.339 102.668C203.043 102.382 202.895 101.976 202.895 101.452C202.895 100.896 203.101 100.476 203.515 100.192C203.928 99.9092 204.558 99.7546 205.404 99.7285L206.337 99.6992V99.4111C206.337 99.0661 206.256 98.8089 206.093 98.6396C205.933 98.4671 205.684 98.3809 205.346 98.3809C205.069 98.3809 204.804 98.4215 204.55 98.5029C204.296 98.5843 204.052 98.6803 203.817 98.791L203.446 97.9707C203.739 97.8177 204.06 97.7021 204.408 97.624C204.757 97.5426 205.085 97.502 205.395 97.502C206.081 97.502 206.599 97.6517 206.947 97.9512C207.299 98.2507 207.475 98.721 207.475 99.3623V103H206.654ZM204.945 102.219C205.362 102.219 205.696 102.103 205.946 101.872C206.2 101.638 206.327 101.311 206.327 100.891V100.422L205.634 100.451C205.093 100.471 204.7 100.562 204.452 100.725C204.208 100.884 204.086 101.13 204.086 101.462C204.086 101.703 204.158 101.89 204.301 102.023C204.444 102.154 204.659 102.219 204.945 102.219ZM211.088 102.17C211.368 102.17 211.648 102.126 211.928 102.038V102.902C211.801 102.958 211.636 103.003 211.435 103.039C211.236 103.078 211.029 103.098 210.814 103.098C209.727 103.098 209.184 102.525 209.184 101.379V98.4688H208.446V97.9609L209.237 97.541L209.628 96.3984H210.336V97.5996H211.874V98.4688H210.336V101.359C210.336 101.636 210.404 101.841 210.541 101.975C210.681 102.105 210.863 102.17 211.088 102.17ZM215.058 105.402C214.713 105.402 214.426 105.362 214.198 105.28V104.372C214.42 104.431 214.646 104.46 214.877 104.46C215.365 104.46 215.609 104.183 215.609 103.63V97.5996H216.757V103.708C216.757 104.265 216.61 104.686 216.317 104.973C216.028 105.259 215.608 105.402 215.058 105.402ZM215.541 96.1689C215.541 95.9639 215.596 95.806 215.707 95.6953C215.821 95.5846 215.982 95.5293 216.19 95.5293C216.392 95.5293 216.549 95.5846 216.659 95.6953C216.773 95.806 216.83 95.9639 216.83 96.1689C216.83 96.3643 216.773 96.5189 216.659 96.6328C216.549 96.7435 216.392 96.7988 216.19 96.7988C215.982 96.7988 215.821 96.7435 215.707 96.6328C215.596 96.5189 215.541 96.3643 215.541 96.1689ZM220.761 103.098C219.921 103.098 219.263 102.854 218.788 102.365C218.316 101.874 218.08 101.198 218.08 100.339C218.08 99.4567 218.3 98.7633 218.739 98.2588C219.179 97.7542 219.783 97.502 220.551 97.502C221.264 97.502 221.827 97.7184 222.24 98.1514C222.654 98.5843 222.86 99.18 222.86 99.9385V100.559H219.262C219.278 101.083 219.42 101.486 219.687 101.77C219.953 102.049 220.329 102.189 220.814 102.189C221.133 102.189 221.43 102.16 221.703 102.102C221.98 102.04 222.276 101.939 222.592 101.799V102.731C222.312 102.865 222.029 102.959 221.742 103.015C221.456 103.07 221.129 103.098 220.761 103.098ZM220.551 98.3711C220.186 98.3711 219.893 98.4867 219.672 98.7178C219.454 98.9489 219.324 99.2858 219.281 99.7285H221.732C221.726 99.2826 221.618 98.9456 221.41 98.7178C221.202 98.4867 220.915 98.3711 220.551 98.3711ZM225.312 103H224.164V95.4023H225.312V103ZM230.336 103L230.106 102.248H230.067C229.807 102.577 229.545 102.801 229.281 102.922C229.018 103.039 228.679 103.098 228.266 103.098C227.735 103.098 227.32 102.954 227.021 102.668C226.724 102.382 226.576 101.976 226.576 101.452C226.576 100.896 226.783 100.476 227.196 100.192C227.61 99.9092 228.24 99.7546 229.086 99.7285L230.019 99.6992V99.4111C230.019 99.0661 229.937 98.8089 229.774 98.6396C229.615 98.4671 229.366 98.3809 229.027 98.3809C228.751 98.3809 228.485 98.4215 228.231 98.5029C227.978 98.5843 227.733 98.6803 227.499 98.791L227.128 97.9707C227.421 97.8177 227.742 97.7021 228.09 97.624C228.438 97.5426 228.767 97.502 229.076 97.502C229.763 97.502 230.281 97.6517 230.629 97.9512C230.98 98.2507 231.156 98.721 231.156 99.3623V103H230.336ZM228.627 102.219C229.044 102.219 229.377 102.103 229.628 101.872C229.882 101.638 230.009 101.311 230.009 100.891V100.422L229.315 100.451C228.775 100.471 228.381 100.562 228.134 100.725C227.89 100.884 227.768 101.13 227.768 101.462C227.768 101.703 227.839 101.89 227.982 102.023C228.126 102.154 228.34 102.219 228.627 102.219ZM236.386 101.462C236.386 101.989 236.194 102.395 235.81 102.678C235.425 102.958 234.875 103.098 234.159 103.098C233.44 103.098 232.862 102.989 232.426 102.771V101.779C233.061 102.072 233.651 102.219 234.198 102.219C234.905 102.219 235.258 102.006 235.258 101.579C235.258 101.442 235.219 101.328 235.141 101.237C235.062 101.146 234.934 101.052 234.755 100.954C234.576 100.856 234.327 100.746 234.008 100.622C233.386 100.381 232.965 100.14 232.743 99.8994C232.525 99.6585 232.416 99.346 232.416 98.9619C232.416 98.4997 232.602 98.1416 232.973 97.8877C233.347 97.6305 233.855 97.502 234.496 97.502C235.131 97.502 235.731 97.6305 236.298 97.8877L235.927 98.752C235.344 98.5111 234.854 98.3906 234.457 98.3906C233.852 98.3906 233.549 98.5632 233.549 98.9082C233.549 99.0775 233.627 99.2207 233.783 99.3379C233.943 99.4551 234.288 99.6162 234.818 99.8213C235.264 99.9938 235.588 100.152 235.79 100.295C235.992 100.438 236.142 100.604 236.239 100.793C236.337 100.979 236.386 101.201 236.386 101.462ZM123.202 109.399C123.202 109.604 123.256 109.798 123.363 109.98C123.474 110.163 123.627 110.356 123.822 110.562C124.19 110.353 124.447 110.16 124.594 109.98C124.743 109.798 124.818 109.595 124.818 109.37C124.818 109.159 124.747 108.989 124.604 108.862C124.464 108.735 124.276 108.672 124.042 108.672C123.785 108.672 123.58 108.739 123.427 108.872C123.277 109.002 123.202 109.178 123.202 109.399ZM123.93 114.111C124.525 114.111 125.035 113.937 125.458 113.589L123.588 111.748C123.243 111.969 123.005 112.178 122.875 112.373C122.745 112.565 122.68 112.785 122.68 113.032C122.68 113.351 122.792 113.612 123.017 113.813C123.244 114.012 123.549 114.111 123.93 114.111ZM121.469 113.11C121.469 112.684 121.573 112.313 121.781 111.997C121.99 111.678 122.366 111.362 122.909 111.05C122.6 110.688 122.388 110.384 122.274 110.137C122.164 109.886 122.108 109.627 122.108 109.36C122.108 108.866 122.284 108.475 122.636 108.188C122.991 107.902 123.466 107.759 124.062 107.759C124.638 107.759 125.09 107.899 125.419 108.179C125.748 108.455 125.912 108.83 125.912 109.302C125.912 109.673 125.801 110.01 125.58 110.312C125.362 110.615 124.996 110.918 124.481 111.221L126.171 112.852C126.435 112.503 126.654 111.992 126.83 111.318H128.012C127.784 112.243 127.419 112.996 126.918 113.579L128.388 115H126.908L126.181 114.292C125.849 114.559 125.494 114.761 125.116 114.897C124.742 115.031 124.327 115.098 123.871 115.098C123.122 115.098 122.535 114.92 122.108 114.565C121.682 114.211 121.469 113.726 121.469 113.11ZM136.371 115H135.219V111.67C135.219 111.257 135.141 110.949 134.984 110.747C134.828 110.542 134.584 110.439 134.252 110.439C133.809 110.439 133.484 110.584 133.275 110.874C133.07 111.16 132.968 111.639 132.968 112.31V115H131.82V109.6H132.719L132.88 110.308H132.938C133.088 110.05 133.305 109.852 133.588 109.712C133.874 109.572 134.188 109.502 134.53 109.502C135.36 109.502 135.91 109.785 136.181 110.352H136.259C136.418 110.085 136.643 109.876 136.933 109.727C137.222 109.577 137.554 109.502 137.929 109.502C138.573 109.502 139.042 109.665 139.335 109.99C139.631 110.316 139.779 110.812 139.779 111.479V115H138.632V111.67C138.632 111.257 138.552 110.949 138.393 110.747C138.236 110.542 137.992 110.439 137.66 110.439C137.214 110.439 136.887 110.579 136.679 110.859C136.474 111.136 136.371 111.562 136.371 112.139V115ZM145.189 115L145.028 114.292H144.97C144.81 114.543 144.582 114.74 144.286 114.883C143.993 115.026 143.658 115.098 143.28 115.098C142.626 115.098 142.138 114.935 141.815 114.609C141.493 114.284 141.332 113.791 141.332 113.13V109.6H142.489V112.93C142.489 113.343 142.574 113.654 142.743 113.862C142.912 114.067 143.178 114.17 143.539 114.17C144.021 114.17 144.374 114.027 144.599 113.74C144.826 113.451 144.94 112.967 144.94 112.29V109.6H146.093V115H145.189ZM149.55 115.098C148.876 115.098 148.35 114.854 147.973 114.365C147.595 113.877 147.406 113.192 147.406 112.31C147.406 111.424 147.597 110.736 147.978 110.244C148.362 109.749 148.892 109.502 149.569 109.502C150.279 109.502 150.819 109.764 151.19 110.288H151.249C151.194 109.901 151.166 109.595 151.166 109.37V107.402H152.318V115H151.42L151.22 114.292H151.166C150.798 114.829 150.259 115.098 149.55 115.098ZM149.857 114.17C150.329 114.17 150.673 114.038 150.888 113.774C151.103 113.507 151.213 113.076 151.22 112.48V112.319C151.22 111.639 151.109 111.156 150.888 110.869C150.666 110.583 150.32 110.439 149.848 110.439C149.444 110.439 149.133 110.604 148.915 110.933C148.697 111.258 148.588 111.724 148.588 112.329C148.588 112.928 148.694 113.385 148.905 113.701C149.117 114.014 149.434 114.17 149.857 114.17ZM157.338 115L157.108 114.248H157.069C156.809 114.577 156.547 114.801 156.283 114.922C156.02 115.039 155.681 115.098 155.268 115.098C154.737 115.098 154.322 114.954 154.022 114.668C153.726 114.382 153.578 113.976 153.578 113.452C153.578 112.896 153.785 112.476 154.198 112.192C154.612 111.909 155.242 111.755 156.088 111.729L157.021 111.699V111.411C157.021 111.066 156.939 110.809 156.776 110.64C156.617 110.467 156.368 110.381 156.029 110.381C155.753 110.381 155.487 110.422 155.233 110.503C154.979 110.584 154.735 110.68 154.501 110.791L154.13 109.971C154.423 109.818 154.743 109.702 155.092 109.624C155.44 109.543 155.769 109.502 156.078 109.502C156.765 109.502 157.283 109.652 157.631 109.951C157.982 110.251 158.158 110.721 158.158 111.362V115H157.338ZM155.629 114.219C156.046 114.219 156.379 114.103 156.63 113.872C156.884 113.638 157.011 113.311 157.011 112.891V112.422L156.317 112.451C155.777 112.471 155.383 112.562 155.136 112.725C154.892 112.884 154.77 113.13 154.77 113.462C154.77 113.703 154.841 113.89 154.984 114.023C155.128 114.154 155.342 114.219 155.629 114.219ZM164.511 115H163.358V111.68C163.358 111.263 163.274 110.952 163.104 110.747C162.938 110.542 162.673 110.439 162.309 110.439C161.827 110.439 161.472 110.584 161.244 110.874C161.02 111.16 160.907 111.642 160.907 112.319V115H159.76V107.402H160.907V109.331C160.907 109.64 160.888 109.971 160.849 110.322H160.922C161.078 110.062 161.295 109.86 161.571 109.717C161.851 109.574 162.177 109.502 162.548 109.502C163.856 109.502 164.511 110.161 164.511 111.479V115ZM170.526 115.098C169.853 115.098 169.327 114.854 168.949 114.365C168.572 113.877 168.383 113.192 168.383 112.31C168.383 111.424 168.573 110.736 168.954 110.244C169.338 109.749 169.869 109.502 170.546 109.502C171.256 109.502 171.796 109.764 172.167 110.288H172.226C172.17 109.901 172.143 109.595 172.143 109.37V107.402H173.295V115H172.396L172.196 114.292H172.143C171.775 114.829 171.236 115.098 170.526 115.098ZM170.834 114.17C171.306 114.17 171.649 114.038 171.864 113.774C172.079 113.507 172.19 113.076 172.196 112.48V112.319C172.196 111.639 172.086 111.156 171.864 110.869C171.643 110.583 171.296 110.439 170.824 110.439C170.421 110.439 170.11 110.604 169.892 110.933C169.674 111.258 169.564 111.724 169.564 112.329C169.564 112.928 169.67 113.385 169.882 113.701C170.093 114.014 170.411 114.17 170.834 114.17ZM176.083 115H174.936V109.6H176.083V115ZM174.867 108.169C174.867 107.964 174.923 107.806 175.033 107.695C175.147 107.585 175.308 107.529 175.517 107.529C175.718 107.529 175.875 107.585 175.985 107.695C176.099 107.806 176.156 107.964 176.156 108.169C176.156 108.364 176.099 108.519 175.985 108.633C175.875 108.743 175.718 108.799 175.517 108.799C175.308 108.799 175.147 108.743 175.033 108.633C174.923 108.519 174.867 108.364 174.867 108.169ZM180.487 109.502C181.161 109.502 181.685 109.746 182.06 110.234C182.437 110.723 182.626 111.408 182.626 112.29C182.626 113.175 182.436 113.866 182.055 114.36C181.674 114.852 181.145 115.098 180.468 115.098C179.784 115.098 179.254 114.852 178.876 114.36H178.798L178.588 115H177.729V107.402H178.876V109.209C178.876 109.342 178.869 109.541 178.856 109.805C178.843 110.068 178.834 110.236 178.827 110.308H178.876C179.241 109.771 179.778 109.502 180.487 109.502ZM180.189 110.439C179.727 110.439 179.394 110.576 179.188 110.85C178.987 111.12 178.882 111.574 178.876 112.212V112.29C178.876 112.948 178.98 113.424 179.188 113.721C179.397 114.014 179.737 114.16 180.209 114.16C180.616 114.16 180.924 113.999 181.132 113.677C181.343 113.354 181.449 112.889 181.449 112.28C181.449 111.053 181.029 110.439 180.189 110.439ZM187.338 115L187.108 114.248H187.069C186.809 114.577 186.547 114.801 186.283 114.922C186.02 115.039 185.681 115.098 185.268 115.098C184.737 115.098 184.322 114.954 184.022 114.668C183.726 114.382 183.578 113.976 183.578 113.452C183.578 112.896 183.785 112.476 184.198 112.192C184.612 111.909 185.242 111.755 186.088 111.729L187.021 111.699V111.411C187.021 111.066 186.939 110.809 186.776 110.64C186.617 110.467 186.368 110.381 186.029 110.381C185.753 110.381 185.487 110.422 185.233 110.503C184.979 110.584 184.735 110.68 184.501 110.791L184.13 109.971C184.423 109.818 184.743 109.702 185.092 109.624C185.44 109.543 185.769 109.502 186.078 109.502C186.765 109.502 187.283 109.652 187.631 109.951C187.982 110.251 188.158 110.721 188.158 111.362V115H187.338ZM185.629 114.219C186.046 114.219 186.379 114.103 186.63 113.872C186.884 113.638 187.011 113.311 187.011 112.891V112.422L186.317 112.451C185.777 112.471 185.383 112.562 185.136 112.725C184.892 112.884 184.77 113.13 184.77 113.462C184.77 113.703 184.841 113.89 184.984 114.023C185.128 114.154 185.342 114.219 185.629 114.219ZM191.938 115.098C191.12 115.098 190.499 114.86 190.072 114.385C189.649 113.906 189.438 113.221 189.438 112.329C189.438 111.421 189.659 110.723 190.102 110.234C190.548 109.746 191.19 109.502 192.03 109.502C192.6 109.502 193.113 109.608 193.568 109.819L193.222 110.742C192.737 110.553 192.336 110.459 192.021 110.459C191.086 110.459 190.619 111.079 190.619 112.319C190.619 112.925 190.735 113.381 190.966 113.687C191.2 113.989 191.542 114.141 191.991 114.141C192.502 114.141 192.986 114.014 193.441 113.76V114.761C193.236 114.881 193.017 114.967 192.782 115.02C192.551 115.072 192.27 115.098 191.938 115.098ZM198.09 115L197.86 114.248H197.821C197.561 114.577 197.299 114.801 197.035 114.922C196.771 115.039 196.433 115.098 196.02 115.098C195.489 115.098 195.074 114.954 194.774 114.668C194.478 114.382 194.33 113.976 194.33 113.452C194.33 112.896 194.537 112.476 194.95 112.192C195.364 111.909 195.993 111.755 196.84 111.729L197.772 111.699V111.411C197.772 111.066 197.691 110.809 197.528 110.64C197.369 110.467 197.12 110.381 196.781 110.381C196.505 110.381 196.239 110.422 195.985 110.503C195.731 110.584 195.487 110.68 195.253 110.791L194.882 109.971C195.175 109.818 195.495 109.702 195.844 109.624C196.192 109.543 196.521 109.502 196.83 109.502C197.517 109.502 198.035 109.652 198.383 109.951C198.734 110.251 198.91 110.721 198.91 111.362V115H198.09ZM196.381 114.219C196.798 114.219 197.131 114.103 197.382 113.872C197.636 113.638 197.763 113.311 197.763 112.891V112.422L197.069 112.451C196.529 112.471 196.135 112.562 195.888 112.725C195.644 112.884 195.521 113.13 195.521 113.462C195.521 113.703 195.593 113.89 195.736 114.023C195.88 114.154 196.094 114.219 196.381 114.219Z" fill="white"/>
</svg>
