<svg width="744" height="240" viewBox="0 0 744 240" fill="none" xmlns="http://www.w3.org/2000/svg">
<path opacity="0.1" d="M496.051 237.569H249.252C230.529 237.569 215.211 222.251 215.211 203.528V55.4487C215.211 36.726 230.529 21.4075 249.252 21.4075H496.051C514.774 21.4075 530.092 36.726 530.092 55.4487V203.528C530.092 222.251 514.774 237.569 496.051 237.569Z" fill="black"/>
<path d="M485.838 222.247H247.549C228.826 222.247 213.508 206.929 213.508 188.206V52.0412C213.508 33.3186 228.826 18 247.549 18H485.838C504.56 18 519.879 33.3186 519.879 52.0412V188.206C519.879 206.929 504.56 222.247 485.838 222.247Z" fill="#F9F3D7"/>
<path d="M519.879 92.2061H213.508L213.508 52.0412C213.508 33.3186 228.826 18 247.549 18H485.838C504.56 18 519.879 33.3186 519.879 52.0412V92.2061Z" fill="#E9CF88"/>
<path d="M485.838 222.247H247.549C228.826 222.247 213.508 206.929 213.508 188.206V52.0412C213.508 33.3186 228.826 18 247.549 18H485.838C504.56 18 519.879 33.3186 519.879 52.0412V188.206C519.879 206.929 504.56 222.247 485.838 222.247Z" stroke="#333333" stroke-width="3"/>
<path d="M451.245 61.0415H342.142V69.5518H451.245V61.0415Z" fill="#757575"/>
<path d="M484.306 43.5312H309.079V52.0416H484.306V43.5312Z" fill="#757575"/>
<path d="M366.693 122.634H247.549V131.144H366.693V122.634Z" fill="#757575"/>
<path d="M400.734 105.613H247.549V114.123H400.734V105.613Z" fill="#757575"/>
<path d="M358.183 185.696H247.549V194.206H358.183V185.696Z" fill="#757575"/>
<path d="M379.673 168.675H247.549V177.185H379.673V168.675Z" fill="#757575"/>
<path d="M361.673 150.675H247.549V159.185H361.673V150.675Z" fill="#757575"/>
<rect x="247.549" y="37.5312" width="38.0206" height="38.0206" rx="6" fill="#757575"/>
<rect x="238.797" y="96.1318" width="169.345" height="103.086" rx="3" stroke="#F27272" stroke-dasharray="4 4"/>
<rect x="408.642" y="96.6233" width="148" height="29" fill="#F27272" stroke="#F27272"/>
<path d="M418.031 109.123H416.601L413.09 103.435H413.051L413.075 103.752C413.121 104.358 413.144 104.911 413.144 105.412V109.123H412.084V101.985H413.5L417.001 107.644H417.03C417.024 107.569 417.011 107.297 416.991 106.828C416.972 106.356 416.962 105.989 416.962 105.725V101.985H418.031V109.123ZM424.584 106.413C424.584 107.295 424.358 107.984 423.905 108.479C423.453 108.974 422.823 109.221 422.016 109.221C421.511 109.221 421.065 109.107 420.678 108.879C420.29 108.651 419.993 108.324 419.784 107.898C419.576 107.471 419.472 106.976 419.472 106.413C419.472 105.538 419.696 104.854 420.146 104.363C420.595 103.871 421.228 103.625 422.045 103.625C422.826 103.625 423.445 103.878 423.9 104.382C424.356 104.883 424.584 105.56 424.584 106.413ZM420.653 106.413C420.653 107.66 421.114 108.283 422.035 108.283C422.947 108.283 423.402 107.66 423.402 106.413C423.402 105.18 422.943 104.563 422.025 104.563C421.544 104.563 421.194 104.722 420.976 105.041C420.761 105.36 420.653 105.818 420.653 106.413ZM430.458 109.123H429.306V105.793C429.306 105.38 429.228 105.072 429.071 104.87C428.915 104.665 428.671 104.563 428.339 104.563C427.896 104.563 427.571 104.708 427.362 104.997C427.157 105.284 427.055 105.762 427.055 106.433V109.123H425.907V103.723H426.806L426.967 104.431H427.025C427.175 104.174 427.392 103.975 427.675 103.835C427.961 103.695 428.275 103.625 428.617 103.625C429.447 103.625 429.997 103.908 430.268 104.475H430.346C430.505 104.208 430.73 104 431.02 103.85C431.309 103.7 431.641 103.625 432.016 103.625C432.66 103.625 433.129 103.788 433.422 104.114C433.718 104.439 433.866 104.935 433.866 105.603V109.123H432.719V105.793C432.719 105.38 432.639 105.072 432.479 104.87C432.323 104.665 432.079 104.563 431.747 104.563C431.301 104.563 430.974 104.703 430.766 104.983C430.561 105.259 430.458 105.686 430.458 106.262V109.123ZM440.258 106.413C440.258 107.295 440.032 107.984 439.579 108.479C439.127 108.974 438.497 109.221 437.689 109.221C437.185 109.221 436.739 109.107 436.352 108.879C435.964 108.651 435.666 108.324 435.458 107.898C435.25 107.471 435.146 106.976 435.146 106.413C435.146 105.538 435.37 104.854 435.819 104.363C436.269 103.871 436.902 103.625 437.719 103.625C438.5 103.625 439.118 103.878 439.574 104.382C440.03 104.883 440.258 105.56 440.258 106.413ZM436.327 106.413C436.327 107.66 436.788 108.283 437.709 108.283C438.62 108.283 439.076 107.66 439.076 106.413C439.076 105.18 438.617 104.563 437.699 104.563C437.217 104.563 436.868 104.722 436.649 105.041C436.435 105.36 436.327 105.818 436.327 106.413ZM444.32 103.625C444.551 103.625 444.742 103.642 444.892 103.674L444.779 104.743C444.617 104.704 444.447 104.685 444.271 104.685C443.812 104.685 443.44 104.835 443.153 105.134C442.87 105.434 442.729 105.823 442.729 106.301V109.123H441.581V103.723H442.479L442.631 104.675H442.689C442.868 104.353 443.101 104.097 443.388 103.908C443.677 103.72 443.988 103.625 444.32 103.625ZM454.564 109.123H453.134L449.623 103.435H449.584L449.608 103.752C449.654 104.358 449.677 104.911 449.677 105.412V109.123H448.617V101.985H450.033L453.534 107.644H453.563C453.557 107.569 453.544 107.297 453.524 106.828C453.505 106.356 453.495 105.989 453.495 105.725V101.985H454.564V109.123ZM461.176 104.143C461.176 104.888 460.932 105.46 460.443 105.857C459.955 106.254 459.26 106.452 458.358 106.452H457.616V109.123H456.449V101.985H458.505C459.397 101.985 460.064 102.167 460.507 102.531C460.953 102.896 461.176 103.433 461.176 104.143ZM457.616 105.471H458.236C458.835 105.471 459.275 105.367 459.555 105.158C459.835 104.95 459.975 104.625 459.975 104.182C459.975 103.772 459.849 103.466 459.599 103.264C459.348 103.062 458.957 102.961 458.427 102.961H457.616V105.471ZM469.188 109.123H467.919L466.708 104.865C466.656 104.68 466.591 104.413 466.513 104.065C466.435 103.713 466.387 103.469 466.371 103.332C466.339 103.541 466.285 103.811 466.21 104.143C466.138 104.475 466.078 104.722 466.029 104.885L464.848 109.123H463.578L462.655 105.549L461.718 101.985H462.909L463.93 106.145C464.089 106.812 464.203 107.401 464.271 107.912C464.307 107.636 464.361 107.326 464.433 106.985C464.504 106.643 464.569 106.366 464.628 106.155L465.79 101.985H466.947L468.139 106.174C468.253 106.561 468.373 107.141 468.5 107.912C468.549 107.447 468.666 106.854 468.852 106.135L469.867 101.985H471.049L469.188 109.123ZM476.791 104.143C476.791 104.888 476.547 105.46 476.059 105.857C475.57 106.254 474.875 106.452 473.974 106.452H473.231V109.123H472.064V101.985H474.12C475.012 101.985 475.679 102.167 476.122 102.531C476.568 102.896 476.791 103.433 476.791 104.143ZM473.231 105.471H473.852C474.451 105.471 474.89 105.367 475.17 105.158C475.45 104.95 475.59 104.625 475.59 104.182C475.59 103.772 475.465 103.466 475.214 103.264C474.963 103.062 474.573 102.961 474.042 102.961H473.231V105.471ZM482.514 109.221C481.84 109.221 481.314 108.977 480.937 108.489C480.559 108 480.37 107.315 480.37 106.433C480.37 105.547 480.561 104.859 480.941 104.367C481.326 103.873 481.856 103.625 482.533 103.625C483.243 103.625 483.783 103.887 484.154 104.411H484.213C484.158 104.024 484.13 103.718 484.13 103.493V101.526H485.282V109.123H484.384L484.184 108.415H484.13C483.762 108.952 483.223 109.221 482.514 109.221ZM482.821 108.293C483.293 108.293 483.637 108.161 483.852 107.898C484.066 107.631 484.177 107.199 484.184 106.604V106.443C484.184 105.762 484.073 105.279 483.852 104.992C483.63 104.706 483.284 104.563 482.812 104.563C482.408 104.563 482.097 104.727 481.879 105.056C481.661 105.381 481.552 105.847 481.552 106.452C481.552 107.051 481.658 107.509 481.869 107.824C482.081 108.137 482.398 108.293 482.821 108.293ZM490.302 109.123L490.072 108.371H490.033C489.773 108.7 489.511 108.925 489.247 109.045C488.983 109.162 488.645 109.221 488.231 109.221C487.701 109.221 487.286 109.078 486.986 108.791C486.69 108.505 486.542 108.1 486.542 107.575C486.542 107.019 486.749 106.599 487.162 106.316C487.576 106.032 488.205 105.878 489.052 105.852L489.984 105.823V105.534C489.984 105.189 489.903 104.932 489.74 104.763C489.581 104.59 489.332 104.504 488.993 104.504C488.716 104.504 488.451 104.545 488.197 104.626C487.943 104.708 487.699 104.804 487.465 104.914L487.094 104.094C487.387 103.941 487.707 103.825 488.056 103.747C488.404 103.666 488.733 103.625 489.042 103.625C489.729 103.625 490.246 103.775 490.595 104.074C490.946 104.374 491.122 104.844 491.122 105.486V109.123H490.302ZM488.593 108.342C489.009 108.342 489.343 108.226 489.594 107.995C489.848 107.761 489.975 107.434 489.975 107.014V106.545L489.281 106.574C488.741 106.594 488.347 106.685 488.1 106.848C487.855 107.007 487.733 107.253 487.733 107.585C487.733 107.826 487.805 108.013 487.948 108.147C488.091 108.277 488.306 108.342 488.593 108.342ZM497.475 109.123H496.322V105.803C496.322 105.386 496.238 105.075 496.068 104.87C495.902 104.665 495.637 104.563 495.272 104.563C494.787 104.563 494.433 104.706 494.208 104.992C493.983 105.279 493.871 105.759 493.871 106.433V109.123H492.724V103.723H493.622L493.783 104.431H493.842C494.005 104.174 494.236 103.975 494.535 103.835C494.835 103.695 495.167 103.625 495.531 103.625C496.827 103.625 497.475 104.284 497.475 105.603V109.123ZM503.49 109.221C502.816 109.221 502.291 108.977 501.913 108.489C501.535 108 501.347 107.315 501.347 106.433C501.347 105.547 501.537 104.859 501.918 104.367C502.302 103.873 502.833 103.625 503.51 103.625C504.219 103.625 504.76 103.887 505.131 104.411H505.189C505.134 104.024 505.106 103.718 505.106 103.493V101.526H506.259V109.123H505.36L505.16 108.415H505.106C504.739 108.952 504.2 109.221 503.49 109.221ZM503.798 108.293C504.27 108.293 504.613 108.161 504.828 107.898C505.043 107.631 505.154 107.199 505.16 106.604V106.443C505.16 105.762 505.049 105.279 504.828 104.992C504.607 104.706 504.26 104.563 503.788 104.563C503.384 104.563 503.074 104.727 502.855 105.056C502.637 105.381 502.528 105.847 502.528 106.452C502.528 107.051 502.634 107.509 502.846 107.824C503.057 108.137 503.375 108.293 503.798 108.293ZM511.278 109.123L511.049 108.371H511.01C510.749 108.7 510.487 108.925 510.224 109.045C509.96 109.162 509.621 109.221 509.208 109.221C508.677 109.221 508.262 109.078 507.963 108.791C507.667 108.505 507.519 108.1 507.519 107.575C507.519 107.019 507.725 106.599 508.139 106.316C508.552 106.032 509.182 105.878 510.028 105.852L510.961 105.823V105.534C510.961 105.189 510.88 104.932 510.717 104.763C510.557 104.59 510.308 104.504 509.97 104.504C509.693 104.504 509.428 104.545 509.174 104.626C508.92 104.708 508.676 104.804 508.441 104.914L508.07 104.094C508.363 103.941 508.684 103.825 509.032 103.747C509.381 103.666 509.709 103.625 510.019 103.625C510.705 103.625 511.223 103.775 511.571 104.074C511.923 104.374 512.099 104.844 512.099 105.486V109.123H511.278ZM509.569 108.342C509.986 108.342 510.32 108.226 510.57 107.995C510.824 107.761 510.951 107.434 510.951 107.014V106.545L510.258 106.574C509.717 106.594 509.324 106.685 509.076 106.848C508.832 107.007 508.71 107.253 508.71 107.585C508.71 107.826 508.782 108.013 508.925 108.147C509.068 108.277 509.283 108.342 509.569 108.342ZM515.712 108.293C515.992 108.293 516.272 108.249 516.552 108.161V109.026C516.425 109.081 516.26 109.127 516.059 109.162C515.86 109.201 515.653 109.221 515.438 109.221C514.351 109.221 513.808 108.648 513.808 107.502V104.592H513.07V104.084L513.861 103.664L514.252 102.522H514.96V103.723H516.498V104.592H514.96V107.483C514.96 107.759 515.028 107.964 515.165 108.098C515.305 108.228 515.487 108.293 515.712 108.293ZM521.015 109.123L520.785 108.371H520.746C520.486 108.7 520.224 108.925 519.96 109.045C519.696 109.162 519.358 109.221 518.944 109.221C518.414 109.221 517.999 109.078 517.699 108.791C517.403 108.505 517.255 108.1 517.255 107.575C517.255 107.019 517.462 106.599 517.875 106.316C518.288 106.032 518.918 105.878 519.765 105.852L520.697 105.823V105.534C520.697 105.189 520.616 104.932 520.453 104.763C520.294 104.59 520.045 104.504 519.706 104.504C519.429 104.504 519.164 104.545 518.91 104.626C518.656 104.708 518.412 104.804 518.178 104.914L517.807 104.094C518.1 103.941 518.42 103.825 518.769 103.747C519.117 103.666 519.446 103.625 519.755 103.625C520.442 103.625 520.959 103.775 521.308 104.074C521.659 104.374 521.835 104.844 521.835 105.486V109.123H521.015ZM519.306 108.342C519.722 108.342 520.056 108.226 520.307 107.995C520.561 107.761 520.688 107.434 520.688 107.014V106.545L519.994 106.574C519.454 106.594 519.06 106.685 518.812 106.848C518.568 107.007 518.446 107.253 518.446 107.585C518.446 107.826 518.518 108.013 518.661 108.147C518.804 108.277 519.019 108.342 519.306 108.342ZM527.143 106.272L527.792 105.461L529.423 103.723H530.746L528.573 106.042L530.883 109.123H529.535L527.802 106.755L527.172 107.273V109.123H526.034V101.526H527.172V105.232L527.113 106.272H527.143ZM535.136 109.123L534.906 108.371H534.867C534.607 108.7 534.345 108.925 534.081 109.045C533.817 109.162 533.479 109.221 533.065 109.221C532.535 109.221 532.12 109.078 531.82 108.791C531.524 108.505 531.376 108.1 531.376 107.575C531.376 107.019 531.583 106.599 531.996 106.316C532.41 106.032 533.039 105.878 533.886 105.852L534.818 105.823V105.534C534.818 105.189 534.737 104.932 534.574 104.763C534.415 104.59 534.166 104.504 533.827 104.504C533.55 104.504 533.285 104.545 533.031 104.626C532.777 104.708 532.533 104.804 532.299 104.914L531.928 104.094C532.221 103.941 532.541 103.825 532.89 103.747C533.238 103.666 533.567 103.625 533.876 103.625C534.563 103.625 535.08 103.775 535.429 104.074C535.78 104.374 535.956 104.844 535.956 105.486V109.123H535.136ZM533.427 108.342C533.843 108.342 534.177 108.226 534.428 107.995C534.682 107.761 534.809 107.434 534.809 107.014V106.545L534.115 106.574C533.575 106.594 533.181 106.685 532.934 106.848C532.689 107.007 532.567 107.253 532.567 107.585C532.567 107.826 532.639 108.013 532.782 108.147C532.925 108.277 533.14 108.342 533.427 108.342ZM542.108 109.123H540.956V105.793C540.956 105.38 540.878 105.072 540.722 104.87C540.565 104.665 540.321 104.563 539.989 104.563C539.547 104.563 539.221 104.708 539.013 104.997C538.808 105.284 538.705 105.762 538.705 106.433V109.123H537.558V103.723H538.456L538.617 104.431H538.676C538.826 104.174 539.042 103.975 539.325 103.835C539.612 103.695 539.926 103.625 540.268 103.625C541.098 103.625 541.648 103.908 541.918 104.475H541.996C542.156 104.208 542.38 104 542.67 103.85C542.96 103.7 543.292 103.625 543.666 103.625C544.311 103.625 544.779 103.788 545.072 104.114C545.368 104.439 545.517 104.935 545.517 105.603V109.123H544.369V105.793C544.369 105.38 544.289 105.072 544.13 104.87C543.974 104.665 543.729 104.563 543.397 104.563C542.951 104.563 542.624 104.703 542.416 104.983C542.211 105.259 542.108 105.686 542.108 106.262V109.123ZM550.927 109.123L550.766 108.415H550.707C550.548 108.666 550.32 108.863 550.023 109.006C549.73 109.149 549.395 109.221 549.018 109.221C548.363 109.221 547.875 109.058 547.553 108.733C547.23 108.407 547.069 107.914 547.069 107.253V103.723H548.227V107.053C548.227 107.466 548.311 107.777 548.48 107.986C548.65 108.191 548.915 108.293 549.276 108.293C549.758 108.293 550.111 108.15 550.336 107.864C550.564 107.574 550.678 107.09 550.678 106.413V103.723H551.83V109.123H550.927ZM414.721 115.625C415.395 115.625 415.919 115.869 416.293 116.358C416.671 116.846 416.859 117.531 416.859 118.413C416.859 119.299 416.669 119.989 416.288 120.484C415.907 120.975 415.378 121.221 414.701 121.221C414.018 121.221 413.487 120.975 413.109 120.484H413.031L412.821 121.123H411.962V113.526H413.109V115.332C413.109 115.466 413.103 115.664 413.09 115.928C413.077 116.192 413.067 116.359 413.061 116.431H413.109C413.474 115.894 414.011 115.625 414.721 115.625ZM414.423 116.563C413.961 116.563 413.627 116.699 413.422 116.973C413.22 117.243 413.116 117.697 413.109 118.335V118.413C413.109 119.071 413.214 119.548 413.422 119.844C413.63 120.137 413.97 120.283 414.442 120.283C414.849 120.283 415.157 120.122 415.365 119.8C415.577 119.478 415.683 119.012 415.683 118.404C415.683 117.176 415.263 116.563 414.423 116.563ZM419.34 121.123H418.192V115.723H419.34V121.123ZM418.124 114.292C418.124 114.087 418.179 113.929 418.29 113.819C418.404 113.708 418.565 113.653 418.773 113.653C418.975 113.653 419.132 113.708 419.242 113.819C419.356 113.929 419.413 114.087 419.413 114.292C419.413 114.488 419.356 114.642 419.242 114.756C419.132 114.867 418.975 114.922 418.773 114.922C418.565 114.922 418.404 114.867 418.29 114.756C418.179 114.642 418.124 114.488 418.124 114.292ZM424.613 119.585C424.613 120.113 424.421 120.518 424.037 120.801C423.653 121.081 423.103 121.221 422.387 121.221C421.667 121.221 421.09 121.112 420.653 120.894V119.903C421.288 120.196 421.879 120.342 422.426 120.342C423.132 120.342 423.485 120.129 423.485 119.702C423.485 119.566 423.446 119.452 423.368 119.361C423.29 119.269 423.161 119.175 422.982 119.077C422.803 118.98 422.554 118.869 422.235 118.745C421.614 118.504 421.192 118.264 420.971 118.023C420.753 117.782 420.644 117.469 420.644 117.085C420.644 116.623 420.829 116.265 421.2 116.011C421.575 115.754 422.082 115.625 422.724 115.625C423.358 115.625 423.959 115.754 424.525 116.011L424.154 116.875C423.572 116.634 423.082 116.514 422.685 116.514C422.079 116.514 421.776 116.686 421.776 117.031C421.776 117.201 421.854 117.344 422.011 117.461C422.17 117.578 422.515 117.74 423.046 117.945C423.492 118.117 423.816 118.275 424.018 118.418C424.219 118.561 424.369 118.727 424.467 118.916C424.564 119.102 424.613 119.325 424.613 119.585ZM429.237 121.123L429.008 120.371H428.969C428.708 120.7 428.446 120.925 428.183 121.045C427.919 121.162 427.58 121.221 427.167 121.221C426.636 121.221 426.221 121.078 425.922 120.791C425.626 120.505 425.478 120.1 425.478 119.575C425.478 119.019 425.684 118.599 426.098 118.316C426.511 118.032 427.141 117.878 427.987 117.852L428.92 117.823V117.534C428.92 117.189 428.839 116.932 428.676 116.763C428.516 116.59 428.267 116.504 427.929 116.504C427.652 116.504 427.387 116.545 427.133 116.626C426.879 116.708 426.635 116.804 426.4 116.914L426.029 116.094C426.322 115.941 426.643 115.825 426.991 115.747C427.34 115.666 427.668 115.625 427.978 115.625C428.664 115.625 429.182 115.775 429.53 116.074C429.882 116.374 430.058 116.844 430.058 117.486V121.123H429.237ZM427.528 120.342C427.945 120.342 428.279 120.226 428.529 119.995C428.783 119.761 428.91 119.434 428.91 119.014V118.545L428.217 118.574C427.676 118.594 427.283 118.685 427.035 118.848C426.791 119.007 426.669 119.253 426.669 119.585C426.669 119.826 426.741 120.013 426.884 120.147C427.027 120.277 427.242 120.342 427.528 120.342ZM436.269 120.293C436.549 120.293 436.828 120.249 437.108 120.161V121.026C436.981 121.081 436.817 121.127 436.615 121.162C436.417 121.201 436.21 121.221 435.995 121.221C434.908 121.221 434.364 120.648 434.364 119.502V116.592H433.627V116.084L434.418 115.664L434.809 114.522H435.517V115.723H437.055V116.592H435.517V119.483C435.517 119.759 435.585 119.964 435.722 120.098C435.862 120.228 436.044 120.293 436.269 120.293ZM440.551 121.221C439.711 121.221 439.053 120.977 438.578 120.489C438.106 119.997 437.87 119.322 437.87 118.462C437.87 117.58 438.09 116.887 438.529 116.382C438.969 115.878 439.573 115.625 440.341 115.625C441.054 115.625 441.617 115.842 442.03 116.275C442.444 116.708 442.65 117.303 442.65 118.062V118.682H439.052C439.068 119.206 439.21 119.61 439.477 119.893C439.743 120.173 440.119 120.313 440.604 120.313C440.924 120.313 441.22 120.283 441.493 120.225C441.77 120.163 442.066 120.062 442.382 119.922V120.855C442.102 120.988 441.819 121.083 441.532 121.138C441.246 121.193 440.919 121.221 440.551 121.221ZM440.341 116.494C439.976 116.494 439.683 116.61 439.462 116.841C439.244 117.072 439.114 117.409 439.071 117.852H441.522C441.516 117.406 441.409 117.069 441.2 116.841C440.992 116.61 440.705 116.494 440.341 116.494ZM446.693 115.625C446.924 115.625 447.115 115.642 447.265 115.674L447.152 116.743C446.99 116.704 446.82 116.685 446.645 116.685C446.186 116.685 445.813 116.835 445.526 117.134C445.243 117.434 445.102 117.823 445.102 118.301V121.123H443.954V115.723H444.853L445.004 116.675H445.062C445.242 116.353 445.474 116.097 445.761 115.908C446.05 115.72 446.361 115.625 446.693 115.625ZM449.418 121.123H448.271V113.526H449.418V121.123ZM452.211 121.123H451.063V115.723H452.211V121.123ZM450.995 114.292C450.995 114.087 451.05 113.929 451.161 113.819C451.275 113.708 451.436 113.653 451.645 113.653C451.846 113.653 452.003 113.708 452.113 113.819C452.227 113.929 452.284 114.087 452.284 114.292C452.284 114.488 452.227 114.642 452.113 114.756C452.003 114.867 451.846 114.922 451.645 114.922C451.436 114.922 451.275 114.867 451.161 114.756C451.05 114.642 450.995 114.488 450.995 114.292ZM458.607 121.123H457.455V117.803C457.455 117.386 457.37 117.075 457.201 116.87C457.035 116.665 456.77 116.563 456.405 116.563C455.924 116.563 455.569 116.708 455.341 116.997C455.116 117.284 455.004 117.766 455.004 118.443V121.123H453.856V113.526H455.004V115.454C455.004 115.764 454.984 116.094 454.945 116.446H455.019C455.175 116.185 455.391 115.983 455.668 115.84C455.948 115.697 456.273 115.625 456.645 115.625C457.953 115.625 458.607 116.284 458.607 117.603V121.123ZM463.583 121.123L463.354 120.371H463.314C463.054 120.7 462.792 120.925 462.528 121.045C462.265 121.162 461.926 121.221 461.513 121.221C460.982 121.221 460.567 121.078 460.268 120.791C459.971 120.505 459.823 120.1 459.823 119.575C459.823 119.019 460.03 118.599 460.443 118.316C460.857 118.032 461.487 117.878 462.333 117.852L463.266 117.823V117.534C463.266 117.189 463.184 116.932 463.021 116.763C462.862 116.59 462.613 116.504 462.274 116.504C461.998 116.504 461.732 116.545 461.479 116.626C461.225 116.708 460.98 116.804 460.746 116.914L460.375 116.094C460.668 115.941 460.989 115.825 461.337 115.747C461.685 115.666 462.014 115.625 462.323 115.625C463.01 115.625 463.528 115.775 463.876 116.074C464.228 116.374 464.403 116.844 464.403 117.486V121.123H463.583ZM461.874 120.342C462.291 120.342 462.624 120.226 462.875 119.995C463.129 119.761 463.256 119.434 463.256 119.014V118.545L462.562 118.574C462.022 118.594 461.628 118.685 461.381 118.848C461.137 119.007 461.015 119.253 461.015 119.585C461.015 119.826 461.086 120.013 461.229 120.147C461.373 120.277 461.588 120.342 461.874 120.342ZM468.017 120.293C468.297 120.293 468.576 120.249 468.856 120.161V121.026C468.729 121.081 468.565 121.127 468.363 121.162C468.165 121.201 467.958 121.221 467.743 121.221C466.656 121.221 466.112 120.648 466.112 119.502V116.592H465.375V116.084L466.166 115.664L466.557 114.522H467.265V115.723H468.803V116.592H467.265V119.483C467.265 119.759 467.333 119.964 467.47 120.098C467.61 120.228 467.792 120.293 468.017 120.293ZM471.986 123.526C471.641 123.526 471.355 123.485 471.127 123.404V122.495C471.348 122.554 471.575 122.583 471.806 122.583C472.294 122.583 472.538 122.307 472.538 121.753V115.723H473.686V121.831C473.686 122.388 473.539 122.809 473.246 123.096C472.956 123.382 472.536 123.526 471.986 123.526ZM472.47 114.292C472.47 114.087 472.525 113.929 472.636 113.819C472.75 113.708 472.911 113.653 473.119 113.653C473.321 113.653 473.477 113.708 473.588 113.819C473.702 113.929 473.759 114.087 473.759 114.292C473.759 114.488 473.702 114.642 473.588 114.756C473.477 114.867 473.321 114.922 473.119 114.922C472.911 114.922 472.75 114.867 472.636 114.756C472.525 114.642 472.47 114.488 472.47 114.292ZM477.689 121.221C476.85 121.221 476.192 120.977 475.717 120.489C475.245 119.997 475.009 119.322 475.009 118.462C475.009 117.58 475.229 116.887 475.668 116.382C476.107 115.878 476.711 115.625 477.479 115.625C478.192 115.625 478.756 115.842 479.169 116.275C479.582 116.708 479.789 117.303 479.789 118.062V118.682H476.19C476.207 119.206 476.348 119.61 476.615 119.893C476.882 120.173 477.258 120.313 477.743 120.313C478.062 120.313 478.358 120.283 478.632 120.225C478.909 120.163 479.205 120.062 479.521 119.922V120.855C479.241 120.988 478.957 121.083 478.671 121.138C478.384 121.193 478.057 121.221 477.689 121.221ZM477.479 116.494C477.115 116.494 476.822 116.61 476.601 116.841C476.382 117.072 476.252 117.409 476.21 117.852H478.661C478.655 117.406 478.547 117.069 478.339 116.841C478.131 116.61 477.844 116.494 477.479 116.494ZM482.24 121.123H481.093V113.526H482.24V121.123ZM487.265 121.123L487.035 120.371H486.996C486.736 120.7 486.474 120.925 486.21 121.045C485.946 121.162 485.608 121.221 485.194 121.221C484.664 121.221 484.249 121.078 483.949 120.791C483.653 120.505 483.505 120.1 483.505 119.575C483.505 119.019 483.712 118.599 484.125 118.316C484.538 118.032 485.168 117.878 486.015 117.852L486.947 117.823V117.534C486.947 117.189 486.866 116.932 486.703 116.763C486.544 116.59 486.295 116.504 485.956 116.504C485.679 116.504 485.414 116.545 485.16 116.626C484.906 116.708 484.662 116.804 484.428 116.914L484.057 116.094C484.35 115.941 484.67 115.825 485.019 115.747C485.367 115.666 485.696 115.625 486.005 115.625C486.692 115.625 487.209 115.775 487.558 116.074C487.909 116.374 488.085 116.844 488.085 117.486V121.123H487.265ZM485.556 120.342C485.972 120.342 486.306 120.226 486.557 119.995C486.811 119.761 486.938 119.434 486.938 119.014V118.545L486.244 118.574C485.704 118.594 485.31 118.685 485.062 118.848C484.818 119.007 484.696 119.253 484.696 119.585C484.696 119.826 484.768 120.013 484.911 120.147C485.054 120.277 485.269 120.342 485.556 120.342ZM493.314 119.585C493.314 120.113 493.122 120.518 492.738 120.801C492.354 121.081 491.804 121.221 491.088 121.221C490.368 121.221 489.791 121.112 489.354 120.894V119.903C489.989 120.196 490.58 120.342 491.127 120.342C491.833 120.342 492.187 120.129 492.187 119.702C492.187 119.566 492.147 119.452 492.069 119.361C491.991 119.269 491.863 119.175 491.684 119.077C491.505 118.98 491.256 118.869 490.937 118.745C490.315 118.504 489.893 118.264 489.672 118.023C489.454 117.782 489.345 117.469 489.345 117.085C489.345 116.623 489.53 116.265 489.901 116.011C490.276 115.754 490.784 115.625 491.425 115.625C492.06 115.625 492.66 115.754 493.227 116.011L492.855 116.875C492.273 116.634 491.783 116.514 491.386 116.514C490.78 116.514 490.478 116.686 490.478 117.031C490.478 117.201 490.556 117.344 490.712 117.461C490.871 117.578 491.216 117.74 491.747 117.945C492.193 118.117 492.517 118.275 492.719 118.418C492.921 118.561 493.07 118.727 493.168 118.916C493.266 119.102 493.314 119.325 493.314 119.585Z" fill="white"/>
</svg>
