<svg width="744" height="240" viewBox="0 0 744 240" fill="none" xmlns="http://www.w3.org/2000/svg">
<path d="M411.467 230.046L399.574 176.626C397.724 166.364 390.06 157.943 380.281 155.048L336.41 136.101H294.917L251.838 154.522C240.738 156.89 232.017 165.574 230.167 176.89L218.538 230.046H411.467Z" fill="url(#paint0_linear)"/>
<path d="M333.767 27.9447H298.882C288.839 27.9447 277.21 36.8918 280.117 53.7334L282.232 77.6801H349.36L351.739 55.8386C357.024 36.8918 344.339 27.9447 333.767 27.9447Z" fill="#0288D1"/>
<path d="M316.058 161.1C350.151 160.837 351.736 142.679 351.736 142.679L342.751 138.732C340.901 137.943 339.579 136.1 339.579 133.995V111.364C342.222 107.68 344.072 103.733 344.865 99.2594C345.129 97.4173 345.658 95.5753 345.922 93.7332H346.451C353.322 98.7331 365.479 75.5758 358.608 70.0497C353.851 66.1024 350.151 70.0497 348.565 72.6812C348.829 69.7865 348.829 66.8919 348.829 63.7341C348.829 63.7341 350.944 28.7351 315.794 28.2088C280.908 27.4193 283.815 63.7341 283.815 63.7341C283.815 63.7341 283.815 67.9445 284.344 73.9969C283.286 71.8917 279.322 65.5761 273.772 70.0497C266.901 75.5758 279.058 98.7331 285.929 93.7332H286.458C286.722 95.5753 286.986 97.4173 287.515 99.2594C288.572 104.522 290.686 109.259 293.858 113.206V133.732C293.858 135.837 292.536 137.679 290.686 138.469L280.908 142.679C280.379 142.416 281.965 160.837 316.058 161.1Z" fill="#F2C8BF"/>
<path d="M275.361 76.8928C275.361 76.8928 281.176 75.8402 284.876 83.2084" stroke="#D2948B" stroke-width="1.5" stroke-miterlimit="10" stroke-linecap="round" stroke-linejoin="round"/>
<path d="M281.436 78.9967C281.436 78.9967 275.886 81.8913 279.586 86.3649" stroke="#D2948B" stroke-width="1.5" stroke-miterlimit="10" stroke-linecap="round" stroke-linejoin="round"/>
<path d="M356.495 76.8899C356.495 76.8899 350.68 75.5742 347.245 82.9424" stroke="#D2948B" stroke-width="1.5" stroke-miterlimit="10" stroke-linecap="round" stroke-linejoin="round"/>
<path d="M350.411 78.9967C350.411 78.9967 355.961 81.8913 352.261 86.3649" stroke="#D2948B" stroke-width="1.5" stroke-miterlimit="10" stroke-linecap="round" stroke-linejoin="round"/>
<path d="M285.932 42.6829C283.818 47.4196 277.211 65.0507 285.403 77.6819C285.403 77.6819 289.632 57.9456 289.896 46.1038C299.146 50.3142 324.782 60.0508 341.432 54.5246C343.018 64.5244 346.189 77.6819 346.189 77.6819C353.325 65.8401 349.361 50.0511 350.154 49.2616C350.154 49.2616 367.596 18.7362 348.832 22.4203C332.446 25.5781 315.796 20.0519 303.639 25.5781C303.903 21.894 301.789 22.4203 301.789 22.4203C280.911 27.9464 285.932 42.6829 285.932 42.6829Z" fill="#0288D1"/>
<path opacity="0.1" d="M330.069 120.048L328.747 120.838C320.819 125.838 310.776 126.101 302.583 121.101C299.412 119.259 296.769 116.891 294.39 113.996C293.862 113.207 293.333 112.943 293.333 112.943C293.333 112.943 306.019 136.364 320.29 135.048C336.412 133.732 339.054 118.996 339.054 111.101C336.94 114.785 333.769 117.68 330.069 120.048Z" fill="#01579B"/>
<path d="M312.886 77.4183V88.997C312.886 89.2601 312.886 89.7864 313.15 90.0496C313.679 91.3653 315.264 92.1548 316.586 91.6285L319.757 90.839" stroke="#D2948B" stroke-width="1.5" stroke-miterlimit="10" stroke-linecap="round" stroke-linejoin="round"/>
<path d="M301.256 77.1532C302.862 77.1532 304.163 75.8572 304.163 74.2586C304.163 72.6599 302.862 71.3639 301.256 71.3639C299.651 71.3639 298.349 72.6599 298.349 74.2586C298.349 75.8572 299.651 77.1532 301.256 77.1532Z" fill="#455A64"/>
<path d="M329.534 77.1532C331.139 77.1532 332.441 75.8572 332.441 74.2586C332.441 72.6599 331.139 71.3639 329.534 71.3639C327.928 71.3639 326.626 72.6599 326.626 74.2586C326.626 75.8572 327.928 77.1532 329.534 77.1532Z" fill="#455A64"/>
<path d="M307.073 97.6795C307.073 97.6795 309.452 99.5216 315.53 99.5216C321.08 99.5216 324.516 97.6795 324.516 97.6795" stroke="#D2948B" stroke-width="1.5" stroke-miterlimit="10" stroke-linecap="round" stroke-linejoin="round"/>
<path d="M315.798 113.995V117.153" stroke="#D2948B" stroke-width="0.5" stroke-miterlimit="10" stroke-linecap="round" stroke-linejoin="round"/>
<path d="M308.922 67.6808V64.7862H297.822C296.5 64.7862 295.179 65.0493 294.122 65.5756L289.629 68.2071L297.029 67.6808H308.922Z" fill="#01579B"/>
<path d="M321.875 67.6808V64.7862H332.975C334.297 64.7862 335.618 65.0493 336.675 65.5756L341.168 68.2071L333.768 67.6808H321.875Z" fill="#01579B"/>
<path opacity="0.1" d="M273.24 229.874L278.002 188.947C279.588 189.21 295.974 174.474 294.917 169.211C294.124 165.79 288.838 167.632 288.838 167.632L294.917 151.053L268.224 173.947L240.685 229.874H273.24Z" fill="black"/>
<path d="M292.805 167.369C287.783 166.316 281.44 168.684 281.44 168.684L286.462 152.369L292.012 134.475C292.54 132.896 291.483 131.054 289.898 130.528C288.312 130.001 286.726 130.791 286.198 132.37L279.062 151.843H276.683L281.176 134.212C281.705 132.633 280.648 131.054 279.062 130.528C277.476 130.001 275.626 131.054 275.362 132.633L269.019 151.58L265.583 142.106C262.412 142.106 260.562 145.79 260.562 151.316C258.976 151.316 255.54 146.053 255.012 147.632L248.669 166.316C247.347 171.053 248.405 175.789 251.576 179.21L227.898 230.173H261.184L271.926 186.579C274.305 186.315 276.419 185.526 278.533 184.21C284.612 180 288.048 176.053 292.54 173.421C293.333 172.895 294.126 172.105 294.39 171.053L294.655 170.263C294.919 169.211 294.126 167.632 292.805 167.369Z" fill="#E6B7AF"/>
<path opacity="0.1" d="M312.628 171.054H274.306C271.399 171.054 269.021 168.685 269.021 165.791V142.897C269.021 140.002 271.399 137.634 274.306 137.634H312.628C315.535 137.634 317.913 140.002 317.913 142.897V165.791C317.913 168.685 315.535 171.054 312.628 171.054Z" fill="black"/>
<path d="M311.038 168.685H274.038C271.131 168.685 268.752 166.316 268.752 163.422V142.369C268.752 139.475 271.131 137.106 274.038 137.106H311.038C313.945 137.106 316.324 139.475 316.324 142.369V163.422C316.324 166.316 313.945 168.685 311.038 168.685Z" fill="#ECF9FF"/>
<path d="M299.145 141.054H285.931V142.369H299.145V141.054Z" fill="#757575"/>
<path d="M307.078 143.685H278.006V145.001H307.078V143.685Z" fill="#757575"/>
<path d="M291.215 148.948H274.037V150.264H291.215V148.948Z" fill="#757575"/>
<path d="M292.537 154.21H274.037V155.526H292.537V154.21Z" fill="#757575"/>
<path d="M297.822 151.58H274.037V152.896H297.822V151.58Z" fill="#757575"/>
<path d="M291.215 162.105H274.037V163.421H291.215V162.105Z" fill="#757575"/>
<path d="M295.179 156.842H274.037V158.158H295.179V156.842Z" fill="#757575"/>
<path d="M289.894 159.474H274.037V160.79H289.894V159.474Z" fill="#757575"/>
<path d="M311.038 148.948H303.11V159.474H311.038V148.948Z" fill="#01579B"/>
<path d="M308.131 155.263V153.947C308.131 153.684 308.396 153.684 308.396 153.421C308.396 152.895 308.66 152.368 308.66 151.579C308.66 151.579 308.66 150 307.074 149.737C305.488 149.737 305.488 151.579 305.488 151.579C305.488 151.579 305.488 152.368 305.753 153.158C305.753 153.421 306.017 153.684 306.017 153.947V155L303.11 156.316V159.473H311.038V156.316L308.131 155.263Z" fill="#F2C8BF"/>
<path d="M265.055 142.369C263.205 142.633 261.884 144.211 262.148 145.79L263.998 160C264.262 162.106 266.112 163.685 268.227 163.421C270.341 163.158 271.927 161.316 271.662 158.948L268.491 145.001C268.227 143.422 266.641 142.106 265.055 142.369Z" fill="#F2C8BF"/>
<path d="M257.916 145.263C256.33 145 255.009 146.316 254.744 147.895L253.423 162.631C253.159 164.473 254.744 166.052 256.594 166.316C258.444 166.579 260.294 165 260.294 163.158L260.559 148.158C260.559 146.579 259.502 145.263 257.916 145.263Z" fill="#F2C8BF"/>
<path d="M278.264 138.161C280.015 138.161 281.435 136.512 281.435 134.477C281.435 132.443 280.015 130.793 278.264 130.793C276.512 130.793 275.092 132.443 275.092 134.477C275.092 136.512 276.512 138.161 278.264 138.161Z" fill="#F2C8BF"/>
<path d="M289.104 138.16C290.855 138.16 292.275 136.511 292.275 134.476C292.275 132.442 290.855 130.792 289.104 130.792C287.352 130.792 285.932 132.442 285.932 134.476C285.932 136.511 287.352 138.16 289.104 138.16Z" fill="#F2C8BF"/>
<path opacity="0.1" d="M381.867 230.046L378.432 191.889L376.582 230.046H381.867Z" fill="black"/>
<path fill-rule="evenodd" clip-rule="evenodd" d="M347.883 73.3144C348.408 73.3742 348.785 73.8464 348.725 74.3692L347.915 74.2771C348.725 74.3693 348.725 74.3692 348.725 74.3692L348.724 74.3727L348.723 74.3829L348.7 74.5787C348.685 74.7155 348.661 74.9168 348.631 75.1752C348.57 75.692 348.483 76.4371 348.373 77.3509C348.154 79.1783 347.848 81.6811 347.501 84.3818C346.809 89.7591 345.947 95.972 345.278 99.1774C344.473 103.706 342.623 107.701 340.009 111.405V133.733C340.009 135.436 341.082 136.946 342.601 137.594L342.607 137.597L380.611 154.152C390.702 157.163 398.596 165.85 400.512 176.439L412.659 230.999H217.352L229.228 176.44C229.229 176.437 229.229 176.435 229.23 176.432C231.418 165.555 241.361 155.501 252.127 153.355C252.636 153.212 253.119 153.362 253.262 153.868C253.406 154.375 252.12 155.358 251.611 155.501C243.248 156.974 233.148 166.642 231.105 176.813L231.103 176.821L219.725 229.093H410.275L398.635 176.814L398.632 176.795C396.846 166.887 389.441 158.754 380.008 155.962L379.952 155.945L341.847 139.346L341.843 139.344C339.663 138.412 338.096 136.239 338.096 133.733V110.797L338.274 110.548C340.849 106.959 342.632 103.142 343.396 98.8316L343.398 98.8172L343.401 98.8029C344.053 95.6886 344.907 89.5437 345.602 84.1398C345.949 81.4459 346.254 78.9488 346.473 77.125C346.582 76.2132 346.67 75.4699 346.73 74.9546C346.76 74.697 346.783 74.4964 346.799 74.3603L346.823 74.1561L346.823 74.1537C346.883 73.6309 347.357 73.2547 347.883 73.3144Z" fill="#333333"/>
<path fill-rule="evenodd" clip-rule="evenodd" d="M293.589 112.866C294.118 112.866 294.546 113.293 294.546 113.819V137.106C294.546 137.632 294.118 138.059 293.589 138.059C293.061 138.059 292.632 137.632 292.632 137.106V113.819C292.632 113.293 293.061 112.866 293.589 112.866Z" fill="#333333"/>
<path fill-rule="evenodd" clip-rule="evenodd" d="M351.552 141.731C352.079 141.777 352.468 142.238 352.423 142.763L351.469 142.68C352.423 142.763 352.422 142.764 352.422 142.765L352.422 142.767L352.422 142.773L352.42 142.79C352.419 142.803 352.417 142.821 352.414 142.843C352.409 142.886 352.401 142.947 352.39 143.024C352.367 143.177 352.33 143.393 352.27 143.664C352.152 144.205 351.945 144.965 351.588 145.87C350.873 147.682 349.558 150.075 347.157 152.465C342.34 157.262 333.284 161.92 316.327 162.053C315.798 162.058 315.366 161.634 315.362 161.108C315.358 160.582 315.783 160.152 316.312 160.148C332.919 160.018 341.437 155.466 345.804 151.118C347.995 148.936 349.175 146.774 349.806 145.173C350.122 144.372 350.301 143.711 350.401 143.258C350.45 143.031 350.48 142.857 350.497 142.744C350.505 142.688 350.51 142.647 350.513 142.622L350.516 142.598L350.516 142.597L350.516 142.596C350.516 142.596 350.516 142.596 350.516 142.596C350.563 142.073 351.026 141.685 351.552 141.731Z" fill="#333333"/>
<path fill-rule="evenodd" clip-rule="evenodd" d="M353.79 44.9318C354.281 48.402 353.986 52.1127 352.688 56.2897L352.167 62.003L352.163 62.0272C351.358 67.6383 349.747 73.2578 347.324 78.3525L346.162 80.7948C345.211 76.6419 341.607 61.0607 340.704 56.5393C332.297 58.9773 321.98 57.8712 312.674 55.6817C303.794 53.5924 295.7 50.4828 290.81 48.342C290.549 54.1332 289.506 61.36 288.5 67.2815C287.953 70.4986 287.414 73.344 287.013 75.3853C286.812 76.4061 287.129 74.82 287.013 75.3853L285.775 81.33L283.238 76.2783C281.341 72.7665 279.973 68.6943 279.697 64.5922L279.697 64.5873L278.908 54.3797C277.036 43.6433 280.769 35.9669 286.526 31.5159C288.823 27.6245 293.285 23.8855 301.555 21.7604L301.562 21.7586L301.795 22.683C301.562 21.7587 301.564 21.7583 301.564 21.7583L301.565 21.7579L301.569 21.7571L301.576 21.7554L301.593 21.7515C301.605 21.7487 301.62 21.7456 301.637 21.7424C301.671 21.7359 301.714 21.7287 301.765 21.7223C301.866 21.7096 302.002 21.6997 302.161 21.7064C302.478 21.7198 302.918 21.8012 303.349 22.0876C304.011 22.5269 304.441 23.2877 304.577 24.4175C310.592 22.1086 317.519 22.147 324.692 22.4217C325.562 22.455 326.437 22.4919 327.315 22.5289C334.289 22.8229 341.499 23.1268 348.656 21.7476L348.663 21.7461C352.355 21.0653 355.02 21.5514 356.698 23.1553C358.354 24.739 358.768 27.1524 358.613 29.6493C358.309 34.5532 355.753 40.7332 353.79 44.9318ZM302.006 23.6127C294.028 25.6686 290.048 29.2164 288.09 32.6291L287.993 32.7971L287.839 32.9143C282.59 36.8961 279.009 43.9001 280.801 54.0968L280.809 54.1421L281.606 64.4606C281.86 68.2463 283.226 72.2495 285.025 75.5752C285.06 75.3973 285.097 75.2117 285.135 75.0189C285.534 72.9895 286.069 70.1608 286.613 66.9636C287.702 60.5542 288.815 52.7182 288.945 46.8717L288.977 45.4245L290.299 46.0263C294.886 48.1138 303.546 51.5759 313.115 53.8272C322.716 56.0863 333.07 57.0864 341.135 54.4098L342.169 54.0666L342.377 55.1318C343.299 59.8533 344.551 65.4992 345.575 69.9699C346.02 71.9129 346.421 73.6323 346.732 74.9551C348.439 70.7654 349.618 66.2767 350.265 61.7817L350.801 55.9158L350.831 55.8189C352.114 51.7314 352.36 48.1943 351.856 44.9325L351.812 44.6459L351.935 44.3833C353.922 40.1628 356.418 34.1309 356.703 29.5321C356.846 27.2265 356.417 25.5282 355.372 24.5298C354.349 23.5518 352.456 22.9854 349.015 23.6192C341.624 25.043 334.181 24.7276 327.232 24.4331C326.352 24.3958 325.481 24.3589 324.618 24.3259C316.865 24.029 309.886 24.0513 304.042 26.7076L302.575 27.3743L302.69 25.7729C302.812 24.0683 302.359 23.7205 302.288 23.6731C302.224 23.6306 302.151 23.6133 302.08 23.6103C302.046 23.6088 302.02 23.611 302.006 23.6127Z" fill="#333333"/>
<path fill-rule="evenodd" clip-rule="evenodd" d="M283.738 73.8378C284.264 73.7975 284.86 75.6882 284.901 76.2129C285.429 83.0466 286.083 90.1874 287.658 98.5533C289.458 107.508 294.853 115.434 302.811 120.29C310.683 125.094 320.334 124.845 327.963 120.034C328.41 119.753 329.001 119.885 329.284 120.329C329.566 120.774 329.434 121.363 328.987 121.644C320.76 126.833 310.324 127.11 301.811 121.915C293.384 116.772 287.681 108.384 285.78 98.9214L285.778 98.9101C284.182 90.4361 283.386 81.7095 282.857 74.8609C282.816 74.3362 283.211 73.8782 283.738 73.8378Z" fill="#333333"/>
<path fill-rule="evenodd" clip-rule="evenodd" d="M284.705 75.55C284.941 76.0206 285.005 76.665 284.533 76.9004C284.06 77.1357 283.485 76.9449 283.249 76.4743C282.712 75.4047 281.769 72.328 280.07 70.7869C279.231 70.0261 278.335 69.5246 277.396 69.4125C276.486 69.304 275.396 69.5436 274.106 70.5338C272.776 71.6097 272.229 73.6676 272.499 76.429C272.765 79.1491 273.808 82.2881 275.287 85.1379C276.77 87.9948 278.642 90.4647 280.494 91.9049C281.418 92.6239 282.285 93.0451 283.053 93.1751C283.79 93.3 284.467 93.165 285.105 92.7006C285.532 92.3902 286.13 92.4829 286.442 92.9078C286.754 93.3326 286.661 93.9287 286.234 94.2392C285.154 95.0248 283.948 95.2598 282.732 95.0537C281.546 94.8528 280.39 94.2419 279.316 93.4067C277.17 91.7384 275.144 89.0111 273.587 86.0129C272.027 83.0077 270.89 79.6337 270.594 76.6138C270.303 73.6405 270.811 70.7341 272.911 69.0452L272.919 69.0387L272.927 69.0325C274.54 67.7914 276.123 67.3414 277.624 67.5205C279.096 67.6962 280.347 68.4612 281.358 69.378C283.341 71.1756 284.175 74.4949 284.705 75.55Z" fill="#333333"/>
<path fill-rule="evenodd" clip-rule="evenodd" d="M352.493 67.5005C354.431 66.8575 356.616 67.1594 358.948 69.0456C361.048 70.7347 361.555 73.6406 361.264 76.6133C360.969 79.6332 359.831 83.0072 358.271 86.0124C356.715 89.0106 354.688 91.738 352.543 93.4062C351.469 94.2414 350.312 94.8523 349.127 95.0532C347.91 95.2594 346.704 95.0243 345.624 94.2387C345.198 93.9282 345.104 93.3321 345.416 92.9073C345.728 92.4824 346.327 92.3897 346.753 92.7002C347.392 93.1646 348.069 93.2995 348.805 93.1747C349.573 93.0446 350.44 92.6234 351.365 91.9044C353.217 90.4642 355.088 87.9943 356.571 85.1375C358.05 82.2876 359.093 79.1486 359.359 76.4285C359.63 73.6618 359.08 71.6012 357.745 70.5271L357.743 70.5254C355.846 68.9914 354.333 68.8987 353.099 69.3083C351.767 69.7502 350.587 70.8328 349.547 71.9978C349.196 72.3911 348.591 72.4265 348.196 72.0769C347.801 71.7273 347.765 71.1251 348.117 70.7318C349.191 69.5285 350.654 68.1111 352.493 67.5005Z" fill="#333333"/>
<path fill-rule="evenodd" clip-rule="evenodd" d="M347.723 50.6108C348.142 50.2897 348.742 50.3673 349.065 50.784C349.387 51.2008 349.31 51.7991 348.891 52.1203L348.307 51.3656C348.891 52.1203 348.891 52.1202 348.891 52.1203L348.887 52.1237L348.876 52.1315L348.839 52.1598C348.807 52.1842 348.76 52.2194 348.699 52.2642C348.578 52.3537 348.403 52.4817 348.183 52.6381C347.743 52.9506 347.12 53.3779 346.386 53.8392C344.935 54.7519 342.989 55.8378 341.148 56.4019C340.643 56.5567 340.107 56.2744 339.952 55.7715C339.796 55.2685 340.08 54.7353 340.585 54.5806C342.179 54.0921 343.954 53.1152 345.364 52.2282C346.061 51.7897 346.654 51.383 347.072 51.0863C347.281 50.9382 347.445 50.8179 347.557 50.7353C347.613 50.694 347.655 50.6621 347.683 50.641L347.714 50.6175L347.721 50.612L347.723 50.6108Z" fill="#333333"/>
<path fill-rule="evenodd" clip-rule="evenodd" d="M378.478 190.939C379.005 190.964 379.413 191.411 379.387 191.936L377.537 230.093C377.512 230.619 377.063 231.024 376.535 230.999C376.007 230.973 375.6 230.527 375.626 230.001L377.476 191.844C377.501 191.319 377.95 190.913 378.478 190.939Z" fill="#333333"/>
<path fill-rule="evenodd" clip-rule="evenodd" d="M255.314 146.73C255.814 146.899 256.083 147.44 255.914 147.938L249.58 166.597C248.351 171.031 249.35 175.41 252.275 178.565L252.71 179.034L229.17 229.09H260.556L271.141 185.707L271.816 185.632C274.027 185.388 276 184.658 278.002 183.415C280.82 181.462 283.062 179.566 285.139 177.81C285.262 177.705 285.385 177.601 285.508 177.498C287.674 175.668 289.708 173.977 292.024 172.616C292.265 172.449 292.633 172.052 292.995 171.512C293.36 170.967 293.627 170.413 293.722 170.033L293.747 169.931L293.794 169.838C293.803 169.822 293.823 169.78 293.8 169.593C293.791 169.523 293.782 169.466 293.769 169.393C293.761 169.347 293.753 169.294 293.742 169.227C293.719 169.081 293.693 168.891 293.693 168.685C293.693 168.159 294.122 167.732 294.65 167.732C295.179 167.732 295.607 168.159 295.607 168.685C295.607 168.742 295.614 168.815 295.633 168.933C295.637 168.958 295.642 168.99 295.648 169.027C295.664 169.123 295.685 169.249 295.699 169.356C295.738 169.671 295.759 170.115 295.554 170.588C295.374 171.237 294.996 171.958 294.588 172.569C294.166 173.199 293.619 173.848 293.067 174.215L293.044 174.229L293.021 174.243C290.856 175.511 288.932 177.104 286.746 178.951C286.621 179.057 286.494 179.164 286.367 179.271C284.291 181.027 281.981 182.981 279.075 184.993L279.056 185.006L279.036 185.019C277.016 186.276 274.971 187.089 272.706 187.437L262.079 230.995H226.169L250.44 179.374C247.364 175.738 246.4 170.875 247.743 166.062L247.75 166.036L254.101 147.328C254.27 146.829 254.813 146.562 255.314 146.73Z" fill="#333333"/>
<path fill-rule="evenodd" clip-rule="evenodd" d="M267.541 145.158C267.349 144.011 266.188 143.147 265.207 143.31L265.129 143.323H265.049C263.81 143.323 262.904 144.36 263.09 145.656L263.091 145.668L264.942 159.883C265.147 161.519 266.564 162.668 268.102 162.477C269.672 162.281 270.908 160.67 270.707 159.067C270.641 158.545 271.013 158.068 271.538 158.003C272.062 157.938 272.541 158.308 272.606 158.83C272.933 161.438 270.998 164.037 268.34 164.367C265.65 164.702 263.367 162.695 263.043 160.122C263.043 160.121 263.043 160.12 263.043 160.119L261.194 145.919C260.859 143.559 262.555 141.462 264.971 141.418C267.123 141.111 269.082 142.846 269.425 144.824L270.479 149.805C270.588 150.32 270.257 150.825 269.739 150.934C269.222 151.042 268.715 150.713 268.606 150.198L267.545 145.178L267.541 145.158Z" fill="#333333"/>
<path fill-rule="evenodd" clip-rule="evenodd" d="M261.031 144.456C262.005 142.629 263.539 141.417 265.576 141.417C266.105 141.417 266.533 141.844 266.533 142.37C266.533 142.896 266.105 143.323 265.576 143.323C264.442 143.323 263.465 143.953 262.721 145.349C261.963 146.773 261.512 148.903 261.512 151.58V151.591L261.247 163.17C261.243 164.409 260.624 165.51 259.757 166.25C258.887 166.993 257.693 167.436 256.455 167.26C254.256 166.947 252.126 165.026 252.468 162.524L253.791 147.775L253.797 147.739C254.116 145.832 255.789 143.946 258.069 144.325C259.03 144.484 259.896 144.894 260.527 145.568C260.528 145.569 260.529 145.57 260.53 145.571C260.679 145.176 260.846 144.803 261.031 144.456ZM259.598 151.569V148.159C259.598 147.594 259.414 147.173 259.128 146.868C258.835 146.556 258.38 146.308 257.755 146.204C256.871 146.058 255.911 146.789 255.69 148.019L254.37 162.742L254.366 162.767C254.198 163.937 255.232 165.161 256.726 165.373C257.338 165.46 257.994 165.245 258.511 164.804C259.029 164.362 259.334 163.758 259.334 163.159V163.148L259.598 151.569Z" fill="#333333"/>
<path fill-rule="evenodd" clip-rule="evenodd" d="M274.161 132.651C274.58 130.503 277.019 129.199 279.092 129.887C280.025 130.197 280.823 130.697 281.369 131.512C281.907 132.315 282.124 133.312 282.124 134.475C282.124 136.955 280.514 139.112 277.996 139.112C277.18 139.112 276.456 138.72 276.012 138.426C275.774 138.268 275.578 138.112 275.441 137.994C275.372 137.935 275.316 137.885 275.276 137.848C275.256 137.83 275.24 137.815 275.228 137.803L275.214 137.789L275.209 137.784L275.207 137.782L275.206 137.781C275.206 137.781 275.205 137.78 275.882 137.107L275.205 137.78C274.831 137.408 274.831 136.805 275.205 136.433C275.578 136.061 276.182 136.061 276.556 136.431M276.558 136.432L276.556 136.431L276.559 136.434C276.563 136.438 276.571 136.445 276.582 136.455C276.604 136.476 276.64 136.508 276.686 136.548C276.78 136.628 276.914 136.735 277.073 136.84C277.422 137.072 277.755 137.206 277.996 137.206C279.178 137.206 280.211 136.205 280.211 134.475C280.211 133.533 280.032 132.951 279.777 132.569C279.53 132.201 279.139 131.911 278.486 131.695C277.416 131.339 276.193 132.095 276.033 133.053L276.019 133.135L274.18 138.322H273.503C271.188 138.322 269.439 140.199 269.439 142.633V144.581C269.439 145.107 269.01 145.534 268.482 145.534C267.953 145.534 267.525 145.107 267.525 144.581V142.633C267.525 139.502 269.683 136.803 272.813 136.455L274.161 132.651" fill="#333333"/>
<path fill-rule="evenodd" clip-rule="evenodd" d="M285.412 132.535C286.111 130.463 288.235 129.407 290.32 130.099L290.346 130.108L290.372 130.118C291.155 130.43 291.916 130.92 292.478 131.695C293.044 132.476 293.353 133.469 293.353 134.687C293.353 137.167 291.743 139.324 289.224 139.324C288.3 139.324 287.578 138.955 287.109 138.615C286.872 138.444 286.69 138.273 286.564 138.142L286.344 137.89C286.027 137.469 286.113 136.872 286.536 136.556C286.956 136.242 287.552 136.325 287.87 136.74C287.871 136.741 287.875 136.745 287.88 136.751C287.892 136.766 287.914 136.791 287.945 136.824C288.009 136.89 288.107 136.982 288.234 137.074C288.492 137.261 288.827 137.418 289.224 137.418C290.406 137.418 291.439 136.417 291.439 134.687C291.439 133.8 291.219 133.214 290.926 132.811C290.634 132.408 290.215 132.112 289.689 131.898C288.614 131.555 287.583 132.075 287.225 133.146L287.222 133.154L285.408 138.271H280.503C279.974 138.271 279.546 137.845 279.546 137.319C279.546 136.792 279.974 136.366 280.503 136.366H284.054L285.412 132.535Z" fill="#333333"/>
<path fill-rule="evenodd" clip-rule="evenodd" d="M291.031 137.107C291.031 136.581 291.46 136.154 291.988 136.154H311.037C314.473 136.154 317.28 138.949 317.28 142.37V163.422C317.28 166.843 314.473 169.638 311.037 169.638H274.037C270.601 169.638 267.794 166.843 267.794 163.422C267.794 162.896 268.223 162.469 268.751 162.469C269.28 162.469 269.708 162.896 269.708 163.422C269.708 165.79 271.658 167.732 274.037 167.732H311.037C313.416 167.732 315.366 165.79 315.366 163.422V142.37C315.366 140.001 313.416 138.06 311.037 138.06H291.988C291.46 138.06 291.031 137.633 291.031 137.107Z" fill="#333333"/>
<rect x="263.331" y="17.6121" width="103.345" height="109.086" rx="3" stroke="#F27272" stroke-dasharray="4 4"/>
<g filter="url(#filter0_d)">
<path d="M232.707 60.6724C245.39 60.6724 255.672 50.3904 255.672 37.7069C255.672 25.0234 245.39 14.7414 232.707 14.7414C220.023 14.7414 209.741 25.0234 209.741 37.7069C209.741 50.3904 220.023 60.6724 232.707 60.6724Z" fill="#7AC943" stroke="#333333" stroke-width="2" stroke-miterlimit="10"/>
<path d="M242.911 31.3265L230.153 44.0851L222.498 36.43" stroke="white" stroke-width="2" stroke-miterlimit="10" stroke-linecap="round" stroke-linejoin="round"/>
</g>
<rect x="263.331" y="132.44" width="103.345" height="40.1897" rx="3" stroke="#F27272" stroke-dasharray="4 4"/>
<g filter="url(#filter1_d)">
<path d="M500 225C508.284 225 515 218.284 515 210C515 201.716 508.284 195 500 195C491.716 195 485 201.716 485 210C485 218.284 491.716 225 500 225Z" fill="#ED1C24" stroke="#333333" stroke-width="2" stroke-miterlimit="10"/>
<path d="M494.997 204.999L504.997 214.999" stroke="white" stroke-width="2" stroke-miterlimit="10" stroke-linecap="round"/>
<path d="M504.997 204.999L494.997 214.999" stroke="white" stroke-width="2" stroke-miterlimit="10" stroke-linecap="round"/>
</g>
<path d="M491.548 230.921L483.928 227.56C482.36 226.887 481.239 225.318 481.239 223.526V204.253C483.48 201.116 485.049 197.754 485.721 193.944C485.945 192.376 486.394 190.807 486.618 189.238H487.066C492.893 193.496 503.201 173.775 497.375 169.069C493.341 165.708 490.203 169.069 488.859 171.31C489.083 168.845 489.083 166.38 489.083 163.691C489.083 163.691 490.876 133.885 461.07 133.437C431.489 132.765 433.954 163.691 433.954 163.691C433.954 163.691 433.954 167.276 434.402 172.431C433.506 170.638 430.144 165.259 425.438 169.069C419.611 173.775 429.92 193.496 435.747 189.238H436.195C436.419 190.807 436.643 192.376 437.091 193.944C437.988 198.426 439.781 202.46 442.47 205.822V223.302C442.47 225.094 441.349 226.663 439.781 227.335L431.489 230.921H491.548Z" fill="#F2C8BF"/>
<path d="M426.785 174.895C426.785 174.895 431.715 173.999 434.853 180.274" stroke="#D2948B" stroke-miterlimit="10" stroke-linecap="round" stroke-linejoin="round"/>
<path d="M431.928 176.688C431.928 176.688 427.222 179.154 430.36 182.963" stroke="#D2948B" stroke-miterlimit="10" stroke-linecap="round" stroke-linejoin="round"/>
<path d="M495.586 174.896C495.586 174.896 490.656 173.775 487.742 180.05" stroke="#D2948B" stroke-miterlimit="10" stroke-linecap="round" stroke-linejoin="round"/>
<path d="M490.422 176.688C490.422 176.688 495.128 179.154 491.991 182.963" stroke="#D2948B" stroke-miterlimit="10" stroke-linecap="round" stroke-linejoin="round"/>
<path opacity="0.1" d="M473.166 211.648L472.045 212.32C465.322 216.578 456.806 216.803 449.859 212.545C447.17 210.976 444.929 208.959 442.912 206.494C442.464 205.822 442.016 205.597 442.016 205.597C442.016 205.597 452.772 225.542 464.874 224.422C478.544 223.301 480.785 210.752 480.785 204.029C478.992 207.166 476.303 209.631 473.166 211.648Z" fill="#01579B"/>
<path d="M458.605 175.346V185.207C458.605 185.431 458.605 185.879 458.83 186.103C459.278 187.223 460.622 187.896 461.743 187.448L464.432 186.775" stroke="#D2948B" stroke-miterlimit="10" stroke-linecap="round" stroke-linejoin="round"/>
<path d="M448.739 175.121C450.1 175.121 451.204 174.017 451.204 172.656C451.204 171.294 450.1 170.191 448.739 170.191C447.377 170.191 446.273 171.294 446.273 172.656C446.273 174.017 447.377 175.121 448.739 175.121Z" fill="#455A64"/>
<path d="M472.723 175.121C474.084 175.121 475.188 174.017 475.188 172.656C475.188 171.294 474.084 170.191 472.723 170.191C471.361 170.191 470.258 171.294 470.258 172.656C470.258 174.017 471.361 175.121 472.723 175.121Z" fill="#455A64"/>
<path d="M455.238 167.053V164.588H445.826C444.706 164.588 443.585 164.812 442.689 165.26L438.879 167.501L445.154 167.053H455.238Z" fill="#01579B"/>
<path d="M466.234 167.053V164.588H475.647C476.767 164.588 477.888 164.812 478.784 165.26L482.594 167.501L476.319 167.053H466.234Z" fill="#01579B"/>
<path d="M440.603 201.621C441.645 194.778 439.898 190.416 438.41 188.122L461.28 182.172C470.299 183.009 484.896 188.122 484.896 188.122C482.144 190.874 481.642 199.559 481.735 203.557C479.379 207.461 471.991 215.271 461.28 215.271C450.57 215.271 442.71 205.526 440.603 201.621Z" fill="#7BE7AC"/>
<path d="M445.562 193.884L453.202 192.062C458.623 190.769 464.27 190.753 469.699 192.014L477.745 193.884" stroke="#59CE8E" stroke-width="2"/>
<path d="M448.461 204.53L452.336 203.439C458.648 201.663 465.326 201.644 471.649 203.385L475.804 204.53" stroke="#59CE8E" stroke-width="2"/>
<path d="M485.73 174.673C485.73 180.724 480.8 185.878 474.525 185.878C468.251 185.878 463.32 180.948 463.32 174.673C463.32 168.622 468.251 167.95 474.525 167.95C480.8 167.95 485.73 168.622 485.73 174.673Z" fill="url(#paint1_linear)"/>
<path d="M458.394 174.673C458.394 180.724 453.464 185.878 447.189 185.878C441.139 185.878 435.984 180.948 435.984 174.673C435.984 168.622 440.915 167.95 447.189 167.95C453.24 167.95 458.394 168.622 458.394 174.673Z" fill="url(#paint2_linear)"/>
<path d="M486.181 138.591C478.786 131.868 461.306 130.972 461.306 130.972C461.306 130.972 443.826 131.868 436.43 138.591C429.035 145.314 430.828 169.965 430.828 169.965C442.033 162.57 451.445 158.088 461.306 158.088C471.166 157.864 479.458 162.346 490.663 169.965C490.663 169.965 493.576 145.314 486.181 138.591Z" fill="#01579B"/>
<path d="M443.375 163.691C443.375 163.691 444.047 147.331 446.288 142.401C448.529 137.471 457.269 130.972 461.303 130.972C465.337 130.972 474.077 137.247 476.318 142.401C478.559 147.331 479.231 163.691 479.231 163.691" fill="#0288D1"/>
<path d="M490.659 167.276C479.454 161.898 471.163 158.088 461.302 158.088C451.442 157.864 442.254 161.898 430.824 167.276L430.6 167.949C429.48 171.086 432.393 173.999 435.53 172.879C441.805 170.638 451.218 167.949 461.302 167.949C470.938 167.949 479.678 170.19 485.953 172.431C489.091 173.551 492.228 170.19 490.659 167.276Z" fill="#0288D1"/>
<path fill-rule="evenodd" clip-rule="evenodd" d="M488.304 171.697C488.833 171.757 489.213 172.235 489.153 172.764L488.195 172.655L487.237 172.545C487.297 172.016 487.775 171.636 488.304 171.697ZM486.229 193.903C486.798 191.165 487.529 185.87 488.115 181.293C488.409 178.993 488.669 176.861 488.855 175.304C488.948 174.526 489.022 173.891 489.073 173.451L489.153 172.764C489.153 172.764 489.153 172.764 488.195 172.655C487.237 172.545 487.237 172.545 487.237 172.545L487.158 173.228C487.107 173.667 487.032 174.299 486.94 175.076C486.754 176.629 486.496 178.755 486.202 181.048C485.612 185.652 484.889 190.879 484.337 193.524L484.334 193.538L484.332 193.553C483.689 197.197 482.188 200.427 480.015 203.469L479.835 203.72V223.302C479.835 225.498 481.201 227.4 483.099 228.218L489.062 230.959H492.288C492.288 230.519 492.191 230.218 491.706 229.998L483.878 226.453L483.869 226.449C482.634 225.92 481.764 224.687 481.764 223.302V204.336C483.975 201.178 485.544 197.768 486.229 193.903Z" fill="#333333"/>
<path fill-rule="evenodd" clip-rule="evenodd" d="M442.247 204.859C442.78 204.859 443.211 205.291 443.211 205.824V221.287C443.211 221.819 442.78 222.251 442.247 222.251C441.715 222.251 441.283 221.819 441.283 221.287V205.824C441.283 205.291 441.715 204.859 442.247 204.859Z" fill="#333333"/>
<path fill-rule="evenodd" clip-rule="evenodd" d="M433.883 172.142C434.414 172.101 434.878 172.499 434.919 173.03C435.366 178.848 436.035 186.198 437.369 193.313C438.888 200.899 443.438 207.611 450.148 211.723C456.772 215.783 464.893 215.574 471.314 211.507C471.764 211.222 472.36 211.355 472.645 211.805C472.93 212.255 472.796 212.851 472.346 213.136C465.322 217.585 456.41 217.823 449.14 213.367C441.958 208.965 437.097 201.785 435.477 193.686L435.474 193.674C434.12 186.449 433.444 179.011 432.996 173.178C432.955 172.647 433.352 172.183 433.883 172.142Z" fill="#333333"/>
<path fill-rule="evenodd" clip-rule="evenodd" d="M428.021 166.648C429.168 166.648 430.137 167.08 430.909 167.595C431.352 167.89 431.472 168.489 431.176 168.932C430.881 169.375 430.282 169.495 429.839 169.199C429.266 168.817 428.667 168.577 428.021 168.577C427.387 168.577 426.586 168.808 425.6 169.597C424.53 170.463 424.061 172.149 424.289 174.487C424.512 176.78 425.389 179.434 426.637 181.849C427.888 184.27 429.463 186.353 431.01 187.561C431.782 188.164 432.494 188.507 433.111 188.613C433.698 188.712 434.229 188.605 434.735 188.236C435.165 187.922 435.769 188.015 436.083 188.445C436.397 188.875 436.303 189.479 435.873 189.793C434.923 190.488 433.858 190.696 432.788 190.514C431.749 190.337 430.745 189.802 429.823 189.081C427.98 187.642 426.249 185.299 424.923 182.734C423.594 180.162 422.622 177.27 422.369 174.674C422.121 172.126 422.548 169.583 424.39 168.095L424.393 168.092C425.647 167.089 426.862 166.648 428.021 166.648Z" fill="#333333"/>
<path fill-rule="evenodd" clip-rule="evenodd" d="M497.783 168.112C496.526 166.987 495.256 166.489 494.019 166.453C492.798 166.419 491.723 166.838 490.852 167.336C490.39 167.601 490.229 168.19 490.493 168.652C490.757 169.114 491.346 169.275 491.809 169.011C492.506 168.612 493.224 168.36 493.964 168.381C494.682 168.402 495.534 168.683 496.512 169.563L496.531 169.58L496.551 169.596C497.623 170.462 498.092 172.148 497.864 174.488C497.641 176.78 496.764 179.435 495.516 181.849C494.264 184.271 492.69 186.354 491.143 187.562C490.371 188.165 489.659 188.508 489.041 188.613C488.455 188.713 487.923 188.606 487.417 188.236C486.987 187.922 486.384 188.016 486.07 188.446C485.756 188.876 485.85 189.479 486.28 189.794C487.23 190.488 488.295 190.697 489.365 190.515C490.404 190.338 491.408 189.802 492.33 189.082C494.173 187.643 495.904 185.299 497.229 182.735C498.559 180.163 499.531 177.271 499.784 174.675C500.031 172.136 499.608 169.602 497.783 168.112Z" fill="#333333"/>
<path fill-rule="evenodd" clip-rule="evenodd" d="M461.346 130.01L461.297 130.973L461.248 130.01L461.297 130.007L461.346 130.01ZM491.851 167.876C492.076 164.793 492.398 158.89 491.924 153.025C491.683 150.047 491.233 147.046 490.447 144.416C489.666 141.801 488.522 139.454 486.827 137.885L486.821 137.879C482.913 134.326 476.461 132.384 471.152 131.316C468.469 130.777 466.022 130.451 464.247 130.259C463.359 130.164 462.637 130.101 462.136 130.063C461.886 130.044 461.69 130.031 461.556 130.022C461.489 130.018 461.438 130.015 461.402 130.013L461.362 130.011L461.351 130.01L461.348 130.01C461.348 130.01 461.346 130.01 461.297 130.973C461.248 130.01 461.248 130.01 461.248 130.01L461.243 130.01L461.232 130.011L461.192 130.013C461.157 130.015 461.105 130.018 461.038 130.022C460.904 130.031 460.709 130.044 460.458 130.063C459.957 130.101 459.235 130.164 458.347 130.259C456.572 130.451 454.126 130.777 451.443 131.316C446.135 132.383 439.686 134.325 435.777 137.875C434.086 139.381 432.897 141.649 432.048 144.19C431.193 146.748 430.65 149.677 430.31 152.599C429.646 158.295 429.738 164.083 429.847 167.29L429.707 167.57L429.687 167.625C428.293 171.529 431.946 175.182 435.85 173.788C442.078 171.564 451.371 168.914 461.297 168.914C470.785 168.914 479.408 171.121 485.614 173.336C487.466 174.043 489.25 173.456 490.43 172.311C491.557 171.217 492.204 169.546 491.851 167.876ZM461.297 131.939C461.266 131.941 461.22 131.943 461.16 131.947C461.034 131.955 460.847 131.968 460.605 131.986C460.121 132.023 459.42 132.083 458.554 132.177C456.82 132.364 454.434 132.682 451.823 133.207C446.543 134.268 440.558 136.136 437.071 139.306L437.063 139.313C435.731 140.497 434.679 142.401 433.877 144.802C433.079 147.188 432.557 149.974 432.225 152.822C431.562 158.519 431.671 164.343 431.783 167.467L431.792 167.713L431.485 168.326C430.688 170.677 432.847 172.812 435.201 171.972C441.523 169.714 451.054 166.985 461.297 166.985C471.077 166.985 479.93 169.258 486.273 171.524L486.284 171.527L486.294 171.532C487.351 171.938 488.363 171.629 489.086 170.927C489.828 170.208 490.184 169.149 489.943 168.184L489.905 168.033L489.917 167.878C490.14 164.868 490.471 158.988 490.001 153.181C489.766 150.277 489.333 147.422 488.599 144.968C487.862 142.501 486.849 140.535 485.52 139.303C482.033 136.135 476.049 134.268 470.771 133.207C468.16 132.682 465.774 132.364 464.041 132.177C463.174 132.083 462.473 132.023 461.989 131.986C461.747 131.968 461.56 131.955 461.434 131.947C461.374 131.943 461.328 131.941 461.297 131.939Z" fill="#333333"/>
<path fill-rule="evenodd" clip-rule="evenodd" d="M430.413 166.404C441.809 161.041 451.2 156.894 461.323 157.124C461.855 157.137 462.277 157.578 462.265 158.11C462.253 158.643 461.811 159.065 461.279 159.053C451.681 158.834 442.695 162.755 431.234 168.149C430.752 168.376 430.177 168.169 429.951 167.687C429.724 167.205 429.931 166.631 430.413 166.404Z" fill="#333333"/>
<path fill-rule="evenodd" clip-rule="evenodd" d="M452.777 167.754C452.87 167.731 452.967 167.729 453.061 167.749C454.745 168.095 456.254 168.715 457.341 169.839C458.442 170.978 459.038 172.559 459.038 174.673C459.038 181.07 453.828 186.521 447.19 186.521C440.793 186.521 435.342 181.311 435.342 174.673C435.342 173.809 435.437 173.032 435.625 172.336C435.686 172.111 435.865 171.936 436.092 171.88L452.777 167.754ZM452.943 169.038L436.781 173.034C436.681 173.517 436.628 174.061 436.628 174.673C436.628 180.584 441.486 185.235 447.19 185.235C453.102 185.235 457.752 180.377 457.752 174.673C457.752 172.813 457.236 171.58 456.416 170.732C455.607 169.895 454.432 169.361 452.943 169.038Z" fill="#333333"/>
<path fill-rule="evenodd" clip-rule="evenodd" d="M468.108 167.849C468.158 167.837 468.208 167.831 468.259 167.831C471.041 167.831 475.414 168.83 479.027 169.803C480.847 170.293 482.498 170.783 483.694 171.15C484.292 171.333 484.777 171.486 485.112 171.594C485.28 171.647 485.41 171.69 485.499 171.719L485.6 171.752L485.635 171.763C485.635 171.763 485.636 171.763 485.434 172.374L485.635 171.763C485.835 171.829 485.991 171.99 486.051 172.193C486.266 172.925 486.374 173.749 486.374 174.673C486.374 181.07 481.165 186.521 474.527 186.521C467.897 186.521 462.679 181.303 462.679 174.673C462.679 172.662 463.195 171.129 464.182 169.998C465.162 168.877 466.537 168.228 468.108 167.849ZM484.902 172.877C484.847 172.859 484.787 172.84 484.72 172.818C484.389 172.712 483.909 172.561 483.317 172.379C482.131 172.015 480.495 171.529 478.693 171.044C475.096 170.076 470.928 169.135 468.336 169.117C466.946 169.462 465.878 170.011 465.151 170.844C464.418 171.683 463.964 172.887 463.964 174.673C463.964 180.593 468.607 185.235 474.527 185.235C480.438 185.235 485.089 180.377 485.089 174.673C485.089 173.993 485.023 173.398 484.902 172.877Z" fill="#333333"/>
<path fill-rule="evenodd" clip-rule="evenodd" d="M458.395 174.672L457.96 174.198C457.699 174.438 457.681 174.844 457.921 175.106C458.161 175.368 458.567 175.385 458.829 175.146M458.829 175.146L458.845 175.132C458.859 175.119 458.883 175.099 458.916 175.073C458.982 175.02 459.081 174.945 459.208 174.861C459.465 174.691 459.824 174.491 460.24 174.361C461.042 174.109 462.065 174.097 463.094 175.126C463.345 175.377 463.752 175.377 464.003 175.126C464.255 174.875 464.255 174.468 464.003 174.217C462.568 172.781 461.014 172.77 459.855 173.134C459.291 173.311 458.822 173.574 458.498 173.789C458.335 173.897 458.205 173.996 458.114 174.068C458.068 174.105 458.032 174.135 458.006 174.157C457.993 174.168 457.983 174.177 457.975 174.184L457.966 174.193L457.962 174.196L457.961 174.197C457.961 174.197 457.96 174.198 458.395 174.672" fill="#333333"/>
<g filter="url(#filter2_d)">
<path d="M500 111C508.284 111 515 104.284 515 96C515 87.7157 508.284 81 500 81C491.716 81 485 87.7157 485 96C485 104.284 491.716 111 500 111Z" fill="#ED1C24" stroke="#333333" stroke-width="2" stroke-miterlimit="10"/>
<path d="M494.997 90.9993L504.997 100.999" stroke="white" stroke-width="2" stroke-miterlimit="10" stroke-linecap="round"/>
<path d="M504.997 90.9993L494.997 100.999" stroke="white" stroke-width="2" stroke-miterlimit="10" stroke-linecap="round"/>
</g>
<path opacity="0.1" d="M453.749 116.991L465.655 79.8168C467.696 80.1569 470.757 76.7552 474.159 72.6731C478.922 67.2303 484.024 61.4473 488.106 59.066C488.787 58.7259 489.807 57.7053 490.147 56.3446L490.488 55.3241C491.168 53.6232 490.828 51.5822 489.807 50.9018C486.065 48.1804 480.282 52.2625 480.282 52.2625L488.106 30.8314L453.749 60.4267L426.488 116.991H453.749Z" fill="black"/>
<path d="M473.816 57.3683L436.397 31.1747L430.274 50.2246C428.233 56.3478 429.933 62.4709 433.675 66.8932L413.012 95.1528L413.072 116.997H442.111L458.848 77.4387C467.693 75.7378 474.156 61.4504 473.816 57.3683Z" fill="#E6B7AF"/>
<path d="M447.287 41.3798C449.668 41.3798 451.709 39.3388 451.709 36.9576L452.729 24.371C452.729 21.3095 450.348 18.588 447.287 18.588C444.225 18.588 441.844 21.3094 441.844 24.0309L442.524 36.6174C442.524 39.3388 444.905 41.3798 447.287 41.3798Z" fill="#E6B7AF"/>
<path opacity="0.1" d="M494.574 68.2524H445.589C441.847 68.2524 438.785 65.1909 438.785 61.4489V31.8536C438.785 28.1117 441.847 25.0501 445.589 25.0501H494.914C498.656 25.0501 501.718 28.1117 501.718 31.8536V61.4489C501.378 65.1909 498.316 68.2524 494.574 68.2524Z" fill="black"/>
<path d="M492.862 65.1921H445.237C441.495 65.1921 438.434 62.1305 438.434 58.3885V31.1745C438.434 27.4325 441.495 24.3709 445.237 24.3709H492.862C496.604 24.3709 499.665 27.4325 499.665 31.1745V58.3885C499.665 62.1305 496.604 65.1921 492.862 65.1921Z" fill="#ECF9FF"/>
<path d="M477.552 29.4724H460.543V31.1733H477.552V29.4724Z" fill="#A5A5A5"/>
<path d="M487.755 32.8739H450.336V34.5748H487.755V32.8739Z" fill="#A5A5A5"/>
<path d="M467.346 39.6768H445.234V41.3776H467.346V39.6768Z" fill="#A5A5A5"/>
<path d="M469.047 46.4815H445.234V48.1824H469.047V46.4815Z" fill="#A5A5A5"/>
<path d="M475.85 43.0782H445.234V44.7791H475.85V43.0782Z" fill="#A5A5A5"/>
<path d="M467.346 56.6885H445.234V58.3894H467.346V56.6885Z" fill="#A5A5A5"/>
<path d="M472.448 49.8829H445.234V51.5838H472.448V49.8829Z" fill="#A5A5A5"/>
<path d="M465.645 53.2844H445.234V54.9852H465.645V53.2844Z" fill="#A5A5A5"/>
<path d="M492.858 39.6768H482.652V53.2838H492.858V39.6768Z" fill="#01579B"/>
<path d="M482.652 49.5436L486.394 47.8427V46.482C486.054 46.1418 486.054 45.8016 486.054 45.4615C485.714 44.4409 485.714 43.4204 485.714 43.4204C485.714 43.4204 485.374 41.0392 487.755 41.0392C489.796 41.0392 489.796 43.4204 489.796 43.4204C489.796 44.4409 489.796 45.1213 489.456 45.8016C489.456 46.1418 489.116 46.482 489.116 46.482V48.1829L492.858 49.8837V53.9659H482.652V49.5436Z" fill="#CDCDCD"/>
<path opacity="0.1" d="M438.783 29.133C453.07 36.2767 465.656 38.9981 449.668 59.7488C446.607 63.8309 449.668 65.5318 449.668 65.5318H437.422L438.783 29.133Z" fill="black"/>
<path d="M452.726 35.9373L433.336 26.4124C430.615 25.0516 427.213 26.4123 425.852 29.1338C424.832 31.515 425.512 33.8962 427.213 35.2569C425.852 35.9373 424.832 36.9578 424.151 38.3185C423.131 41.0399 424.492 44.1015 427.213 45.122L427.893 45.4622C426.533 46.1426 425.512 47.1631 425.172 48.5238C424.492 50.905 425.512 53.2863 427.893 54.3068C427.213 54.647 426.533 55.3273 425.852 56.0077C424.492 58.3889 425.172 61.4505 427.553 62.8112L438.439 66.8933C440.48 68.254 443.201 67.5737 444.222 65.5326C445.242 63.4915 444.902 61.1103 442.861 59.7496L436.398 56.3478L442.521 57.7085C444.902 58.3889 447.283 57.0282 447.964 54.9871C448.304 53.6264 447.964 52.2657 446.943 51.2452C448.304 50.905 449.324 49.8845 449.665 48.5238C450.345 47.1631 450.005 45.4622 448.984 44.1015C451.365 44.7819 453.747 43.4212 454.427 41.3801C456.128 39.6792 455.107 36.9578 452.726 35.9373Z" fill="#F2C8BF"/>
<path fill-rule="evenodd" clip-rule="evenodd" d="M440.887 24.0299C440.887 20.6505 443.792 17.3013 447.615 17.3013C451.486 17.3013 454.344 20.7014 454.344 24.3701C454.344 25.0801 453.768 25.6558 453.058 25.6558C452.348 25.6558 451.772 25.0801 451.772 24.3701C451.772 21.9155 449.868 19.8728 447.615 19.8728C445.315 19.8728 443.458 21.9664 443.458 24.0299V25.0504C443.458 25.7605 442.882 26.3361 442.172 26.3361C441.462 26.3361 440.887 25.7605 440.887 25.0504V24.0299Z" fill="#333333"/>
<path fill-rule="evenodd" clip-rule="evenodd" d="M445.234 25.995C442.707 25.995 440.806 27.3643 439.974 29.583L437.567 28.6801C438.776 25.456 441.637 23.4236 445.234 23.4236H492.859C497.311 23.4236 500.948 27.0608 500.948 31.5128V58.7269C500.948 63.1789 497.311 66.8161 492.859 66.8161H445.234V64.2447H492.859C495.89 64.2447 498.376 61.7587 498.376 58.7269V31.5128C498.376 28.4809 495.89 25.995 492.859 25.995H445.234Z" fill="#333333"/>
<path fill-rule="evenodd" clip-rule="evenodd" d="M433.946 25.2572L433.951 25.2593L453.304 34.7663C454.755 35.3969 455.856 36.4714 456.419 37.821C456.981 39.1701 456.966 40.7036 456.349 42.1753C455.681 44.1102 453.894 45.5278 451.815 45.8378C452.133 46.9716 452.115 48.1865 451.596 49.3076C451.271 50.4762 450.56 51.4537 449.597 52.1074C450.122 53.1967 450.233 54.4277 449.931 55.6361C449.923 55.668 449.914 55.6996 449.903 55.7308C449.205 57.8258 447.198 59.3262 444.919 59.4929C447.025 61.3242 447.24 64.1477 446.092 66.4447C444.698 69.2326 441.078 70.055 438.445 68.3002C437.855 67.9063 437.695 67.1081 438.089 66.5172C438.483 65.9264 439.281 65.7668 439.872 66.1607C441.322 67.1273 443.145 66.589 443.792 65.2947C444.57 63.7387 444.277 62.1307 442.919 61.1911L436.519 57.8227C435.949 57.5227 435.689 56.847 435.911 56.2422C436.132 55.6374 436.768 55.2901 437.397 55.4299L443.52 56.7906C443.545 56.7961 443.569 56.8024 443.594 56.8094C445.304 57.2981 446.967 56.3179 447.448 54.9635C447.663 54.0405 447.43 53.1674 446.754 52.4915C446.426 52.1639 446.3 51.6855 446.424 51.2391C446.548 50.7927 446.902 50.4474 447.351 50.335C448.251 50.11 448.912 49.4492 449.137 48.5491C449.16 48.4581 449.193 48.3698 449.234 48.2859C449.633 47.488 449.5 46.3097 448.676 45.2101C448.344 44.7684 448.332 44.1645 448.645 43.7097C448.958 43.2549 449.526 43.0507 450.057 43.2024C451.787 43.6966 453.468 42.6886 453.927 41.3106C453.938 41.2768 453.951 41.2435 453.965 41.2108C454.349 40.316 454.327 39.4871 454.045 38.81C453.761 38.1285 453.174 37.5079 452.259 37.116C452.239 37.1073 452.219 37.098 452.199 37.0882L432.801 27.5593C430.804 26.5607 428.153 27.5276 427.059 29.6722C426.279 31.529 426.831 33.2699 428.056 34.2499C428.398 34.5238 428.577 34.9533 428.531 35.3893C428.485 35.8254 428.22 36.2078 427.828 36.4039C426.736 36.9495 425.927 37.7483 425.372 38.8289C424.64 40.8813 425.68 43.156 427.704 43.9151C427.746 43.9309 427.787 43.9489 427.828 43.969L428.508 44.3092C428.943 44.527 429.219 44.9722 429.219 45.4592C429.219 45.9462 428.943 46.3914 428.508 46.6091C427.364 47.1812 426.68 47.9479 426.459 48.8326C426.455 48.8464 426.452 48.8602 426.448 48.874C425.936 50.6639 426.682 52.369 428.439 53.122C428.899 53.3192 429.203 53.7656 429.218 54.266C429.233 54.7664 428.956 55.2298 428.508 55.4537C428.082 55.6666 427.595 56.1225 426.931 56.7841C426.007 58.5588 426.554 60.6813 428.16 61.6502L431.472 62.9751C431.7 63.0664 431.898 63.2214 432.041 63.4215L433.742 65.8028C434.053 66.2389 434.061 66.8225 433.762 67.2673L413.005 98.6022L413 116.974H439.169L457.721 76.8989C457.919 76.4674 458.339 76.1807 458.812 76.1523L458.815 76.152C458.819 76.1517 458.826 76.1511 458.834 76.1502C458.862 76.1473 458.913 76.1412 458.987 76.1293C459.135 76.1054 459.371 76.0583 459.682 75.9677C460.302 75.7867 461.222 75.4306 462.327 74.7328C464.528 73.3427 467.525 70.5552 470.325 64.9546C470.643 64.3194 471.415 64.062 472.05 64.3796C472.685 64.6971 472.943 65.4694 472.625 66.1045C469.643 72.0699 466.347 75.2355 463.7 76.9069C462.381 77.74 461.239 78.1918 460.403 78.436C460.166 78.5051 459.954 78.5575 459.77 78.5972L442.152 116.974H413V93.5452L431.131 66.5723L430.167 65.2227L427.115 64.0019C427.06 63.9798 427.006 63.9539 426.955 63.9245C423.896 62.1766 423.098 58.3017 424.775 55.3667C424.832 55.2675 424.902 55.1763 424.983 55.0955C425.008 55.0699 425.034 55.044 425.06 55.0177C425.254 54.8234 425.467 54.6107 425.694 54.3967C423.96 52.8592 423.317 50.4991 423.969 48.1878C424.229 47.1677 424.766 46.3218 425.463 45.6368C422.986 43.9775 421.901 40.7603 422.987 37.864C423.003 37.8219 423.021 37.7807 423.041 37.7405C423.59 36.6428 424.333 35.7252 425.261 34.9973C424.029 33.2543 423.733 30.9041 424.71 28.6242C424.72 28.6011 424.731 28.5782 424.742 28.5557C426.379 25.2823 430.512 23.5431 433.946 25.2572Z" fill="#333333"/>
<path fill-rule="evenodd" clip-rule="evenodd" d="M433.194 36.3875C433.508 35.7504 434.278 35.4881 434.916 35.8017L450.379 43.4127C451.016 43.7263 451.278 44.497 450.965 45.1341C450.651 45.7712 449.88 46.0334 449.243 45.7199L433.78 38.1088C433.143 37.7952 432.881 37.0245 433.194 36.3875Z" fill="#333333"/>
<path fill-rule="evenodd" clip-rule="evenodd" d="M433.158 45.6519C433.428 44.9949 434.179 44.6808 434.836 44.9503L448.103 50.3932C448.76 50.6627 449.074 51.4137 448.804 52.0707C448.535 52.7276 447.784 53.0417 447.127 52.7722L433.86 47.3294C433.203 47.0598 432.889 46.3088 433.158 45.6519Z" fill="#333333"/>
<defs>
<filter id="filter0_d" x="198.741" y="3.74138" width="67.9311" height="67.9311" filterUnits="userSpaceOnUse" color-interpolation-filters="sRGB">
<feFlood flood-opacity="0" result="BackgroundImageFix"/>
<feColorMatrix in="SourceAlpha" type="matrix" values="0 0 0 0 0 0 0 0 0 0 0 0 0 0 0 0 0 0 127 0"/>
<feOffset/>
<feGaussianBlur stdDeviation="5"/>
<feColorMatrix type="matrix" values="0 0 0 0 0 0 0 0 0 0 0 0 0 0 0 0 0 0 0.25 0"/>
<feBlend mode="normal" in2="BackgroundImageFix" result="effect1_dropShadow"/>
<feBlend mode="normal" in="SourceGraphic" in2="effect1_dropShadow" result="shape"/>
</filter>
<filter id="filter1_d" x="480" y="190" width="40" height="40" filterUnits="userSpaceOnUse" color-interpolation-filters="sRGB">
<feFlood flood-opacity="0" result="BackgroundImageFix"/>
<feColorMatrix in="SourceAlpha" type="matrix" values="0 0 0 0 0 0 0 0 0 0 0 0 0 0 0 0 0 0 127 0"/>
<feOffset/>
<feGaussianBlur stdDeviation="2"/>
<feColorMatrix type="matrix" values="0 0 0 0 0 0 0 0 0 0 0 0 0 0 0 0 0 0 0.25 0"/>
<feBlend mode="normal" in2="BackgroundImageFix" result="effect1_dropShadow"/>
<feBlend mode="normal" in="SourceGraphic" in2="effect1_dropShadow" result="shape"/>
</filter>
<filter id="filter2_d" x="480" y="76" width="40" height="40" filterUnits="userSpaceOnUse" color-interpolation-filters="sRGB">
<feFlood flood-opacity="0" result="BackgroundImageFix"/>
<feColorMatrix in="SourceAlpha" type="matrix" values="0 0 0 0 0 0 0 0 0 0 0 0 0 0 0 0 0 0 127 0"/>
<feOffset/>
<feGaussianBlur stdDeviation="2"/>
<feColorMatrix type="matrix" values="0 0 0 0 0 0 0 0 0 0 0 0 0 0 0 0 0 0 0.25 0"/>
<feBlend mode="normal" in2="BackgroundImageFix" result="effect1_dropShadow"/>
<feBlend mode="normal" in="SourceGraphic" in2="effect1_dropShadow" result="shape"/>
</filter>
<linearGradient id="paint0_linear" x1="364.247" y1="141.63" x2="272.222" y2="268.838" gradientUnits="userSpaceOnUse">
<stop stop-color="#0288D1"/>
<stop offset="1" stop-color="#01579B"/>
</linearGradient>
<linearGradient id="paint1_linear" x1="463.404" y1="176.962" x2="485.705" y2="176.962" gradientUnits="userSpaceOnUse">
<stop stop-color="#333333"/>
<stop offset="1" stop-color="#455A64"/>
</linearGradient>
<linearGradient id="paint2_linear" x1="436.016" y1="176.962" x2="458.317" y2="176.962" gradientUnits="userSpaceOnUse">
<stop stop-color="#333333"/>
<stop offset="1" stop-color="#455A64"/>
</linearGradient>
</defs>
</svg>
