<svg width="42" height="42" viewBox="0 0 42 42" fill="none" xmlns="http://www.w3.org/2000/svg">
<g clip-path="url(#clip0)">
<path d="M40.9837 33.4252C40.1528 34.4227 38.9219 34.9997 37.6237 35.0002H4.37367C3.07544 34.9997 1.84448 34.4227 1.01367 33.4252L17.0612 20.0552L18.7237 21.1927C20.0932 22.1377 21.9042 22.1377 23.2737 21.1927L24.9362 20.0552L40.9837 33.4252Z" fill="#1E88E5"/>
<path d="M41.2314 8.90737L24.9389 20.0548L23.2764 21.1923C21.9069 22.1373 20.0959 22.1373 18.7264 21.1923L17.0638 20.0548L0.771484 8.88981C1.5913 7.70766 2.93784 7.0017 4.3765 6.99982H37.6264C39.0716 6.99219 40.4247 7.70815 41.2314 8.90737Z" fill="#64B5F6"/>
<path d="M17.0625 20.0551L1.01505 33.4251C0.358225 32.64 -0.0011527 31.6487 7.7766e-05 30.6251V11.3751C-0.00525425 10.4873 0.263726 9.61939 0.770104 8.89014L17.0625 20.0551Z" fill="#2196F3"/>
<path d="M42.001 11.3752V30.6252C42.0021 31.6488 41.6428 32.6401 40.986 33.4252L24.9385 20.0552L41.2309 8.90771C41.7348 9.63172 42.0036 10.4931 42.001 11.3752Z" fill="#2196F3"/>
</g>
<defs>
<clipPath id="clip0">
<rect width="42" height="42" fill="white"/>
</clipPath>
</defs>
</svg>
