<svg width="23" height="23" viewBox="0 0 23 23" fill="none" xmlns="http://www.w3.org/2000/svg">
<g clip-path="url(#clip0)">
<path d="M20.6492 3.72429L11.8445 0.0686799C11.6239 -0.0228708 11.376 -0.0229158 11.1555 0.0686799L2.35081 3.72429C2.01546 3.86354 1.79688 4.19094 1.79688 4.55404V8.99793C1.79688 15.1169 5.49525 20.621 11.1605 22.9334C11.3781 23.0222 11.6219 23.0222 11.8395 22.9334C17.5047 20.6211 21.2031 15.1169 21.2031 8.99793V4.55404C21.2031 4.19094 20.9846 3.86354 20.6492 3.72429ZM19.4062 8.99793C19.4062 14.1997 16.3516 18.9882 11.5 21.1257C6.77808 19.0453 3.59375 14.3406 3.59375 8.99793V5.15384L11.5 1.87121L19.4062 5.15384V8.99793ZM10.507 12.0263L14.3686 8.16468C14.7195 7.81384 15.2883 7.81379 15.6392 8.16468C15.9901 8.51556 15.99 9.08441 15.6391 9.43525L11.1422 13.9322C10.7913 14.2831 10.2225 14.2829 9.87167 13.9322L7.36081 11.4213C7.00992 11.0704 7.00992 10.5016 7.36081 10.1507C7.71169 9.79988 8.28054 9.79984 8.63138 10.1507L10.507 12.0263Z" fill="#AFE843"/>
</g>
<defs>
<clipPath id="clip0">
<rect width="23" height="23" fill="white"/>
</clipPath>
</defs>
</svg>
