<svg width="120" height="53" viewBox="0 0 120 53" fill="none" xmlns="http://www.w3.org/2000/svg">
<path d="M99.0257 39.3997C99.6092 40.4209 100.63 41.1504 101.943 41.1504H108.8C109.53 41.1504 110.113 40.2751 109.821 39.5456L102.673 25.2486C102.381 24.5192 102.381 23.7897 102.819 23.0603L116.24 2.92776H107.341C106.32 2.92776 105.299 3.51131 104.715 4.38664L92.0231 23.2062C91.5854 23.7897 91.5854 24.6651 91.8772 25.3945L99.0257 39.3997Z" fill="#01579B"/>
<path d="M93.3349 13.2858C92.7513 12.2646 91.7301 11.5352 90.4171 11.5352H83.5604C82.831 11.5352 82.2474 12.4105 82.5392 13.1399L89.6877 27.437C89.9795 28.1664 89.9795 28.8958 89.5418 29.6253L76.1201 49.7578H85.0193C86.0405 49.7578 87.0617 49.1743 87.6453 48.2989L100.192 29.4794C100.629 28.8958 100.629 28.0205 100.338 27.2911L93.3349 13.2858Z" fill="#0288D1"/>
<path fill-rule="evenodd" clip-rule="evenodd" d="M62.2618 27.5828L67.9514 28.1664C69.7021 28.3122 71.1609 29.6252 71.5986 31.3759C71.7445 32.543 71.7445 33.5642 71.5986 34.7313V35.0231C71.3068 36.7737 69.848 38.0867 67.9514 38.2326H67.8055C65.7631 38.3785 63.5748 38.3785 61.3865 38.2326C59.4899 38.0867 58.031 36.6279 57.7393 34.7313V34.4395V32.2512H60.3652C60.657 32.2512 60.8029 32.3971 60.8029 32.6889V32.9807C60.8029 33.4183 60.8029 33.7101 60.9488 34.1478C61.0947 34.8772 61.6782 35.3149 62.4077 35.4607H62.6995C64.0124 35.6066 65.3254 35.6066 66.6384 35.4607C67.3679 35.3149 67.9514 34.7313 68.0973 34.0019V33.856C68.2432 33.2724 68.2432 32.543 68.0973 31.9594C67.9514 31.3759 67.5137 31.0841 66.9302 30.9382L60.5111 30.0629C59.0523 29.917 57.8852 28.7499 57.5934 27.291C57.3016 25.978 57.3016 24.665 57.5934 23.3521C57.8852 21.8932 59.0523 20.7261 60.5111 20.5802H60.657C62.9912 20.2884 65.4713 20.2884 67.9514 20.5802C69.5562 20.7261 70.7233 21.8932 71.0151 23.4979V23.9356V25.6863H68.2432C68.0973 25.6863 67.9514 25.5404 67.9514 25.3945C67.9514 25.1027 67.9514 24.665 67.8055 24.2274C67.6596 23.4979 67.0761 23.0603 66.3466 22.9144H66.0549C64.8878 22.7685 63.7207 22.7685 62.5536 22.9144C61.8241 23.0603 61.2406 23.6438 61.0947 24.3733C60.9488 24.9568 60.9488 25.6863 61.0947 26.2698V26.5616C61.2406 27.1451 61.6782 27.5828 62.2618 27.5828ZM42.2752 20.5813H40.0868C39.6492 20.5813 39.3574 20.8731 39.2115 21.1649L34.5431 34.7324L29.8747 21.019C29.7288 20.7272 29.437 20.4354 28.9993 20.4354H26.811C26.5193 20.4354 26.3734 20.7272 26.3734 21.019L31.9171 37.3584C32.063 37.6502 32.3548 37.942 32.7924 37.942H33.5219H35.7102H36.5855C36.7314 37.942 36.8773 37.7961 37.0232 37.6502L42.5669 21.019C42.7128 20.8731 42.5669 20.5813 42.2752 20.5813ZM3.76074 37.212V21.0184C3.76074 20.7266 3.90663 20.5808 4.19841 20.5808H7.26205V37.6496C7.26205 37.9414 7.11616 38.0873 6.82439 38.0873H4.63607C4.19841 38.0873 3.76074 37.6496 3.76074 37.212ZM47.0897 20.5808H55.9889C56.1348 20.5808 56.4266 20.7266 56.2807 21.0184V23.2067H46.9438V27.5834H55.2595V30.2094H46.9438V35.4613H56.2807V37.6496C56.2807 37.9414 56.1348 38.0873 55.843 38.0873H46.9438H46.5062H44.3179C43.8802 38.0873 43.4425 37.6496 43.4425 37.212V21.0184C43.4425 20.7266 43.5884 20.5808 43.8802 20.5808H46.6521H47.0897ZM71.5986 21.0184V22.3314C71.5986 22.7691 72.0363 23.2067 72.4739 23.2067H76.267V37.212C76.267 37.6496 76.7047 38.0873 77.1423 38.0873H79.3307C79.6224 38.0873 79.7683 37.9414 79.7683 37.6496V23.2067H83.9991C84.2909 23.2067 84.4367 23.0608 84.4367 22.7691V20.5808H72.0363C71.7445 20.5808 71.5986 20.7266 71.5986 21.0184ZM22.1429 34.0024V21.0184C22.1429 20.7266 22.2888 20.5808 22.5806 20.5808H25.6442V37.6496C25.6442 37.9414 25.4983 38.0873 25.2065 38.0873H24.623H22.2888H21.7052C21.4135 38.0873 21.1217 37.9414 20.9758 37.6496L13.3896 24.6656V38.0873H10.7636C10.326 38.0873 9.88832 37.6496 9.88832 37.212V21.0184C9.88832 20.7266 10.0342 20.5808 10.326 20.5808H10.9095H13.2437H13.8273C14.1191 20.5808 14.4108 20.7266 14.5567 21.0184L22.1429 34.0024Z" fill="white"/>
</svg>
