<svg width="117" height="50" viewBox="0 0 117 50" fill="none" xmlns="http://www.w3.org/2000/svg">
<rect width="117" height="50" fill="none"/>
<path d="M98.8481 36.3414C99.4475 37.2469 100.496 37.8938 101.845 37.8938H108.888C109.637 37.8938 110.236 37.1176 109.937 36.4707L102.594 23.7929C102.295 23.1461 102.295 22.4993 102.744 21.8524L116.53 4H107.389C106.34 4 105.291 4.51746 104.692 5.29366L91.6556 21.9818C91.206 22.4993 91.2061 23.2755 91.5057 23.9223L98.8481 36.3414Z" fill="#01579B"/>
<path d="M93.0045 13.185C92.4051 12.2794 91.3562 11.6326 90.0076 11.6326H82.9649C82.2157 11.6326 81.6163 12.4088 81.916 13.0556L89.2584 25.7334C89.5581 26.3802 89.5581 27.0271 89.1086 27.6739L75.3229 45.5263H84.4634C85.5123 45.5263 86.5612 45.0089 87.1606 44.2327L100.047 27.5445C100.497 27.0271 100.497 26.2509 100.197 25.604L93.0045 13.185Z" fill="#0288D1"/>
<path fill-rule="evenodd" clip-rule="evenodd" d="M61.0875 25.8627L66.9315 26.3802C68.7296 26.5095 70.228 27.6738 70.6776 29.2262C70.8274 30.2611 70.8274 31.1667 70.6776 32.2016V32.4603C70.3779 34.0127 68.8794 35.177 66.9315 35.3064H66.7816C64.6838 35.4357 62.4361 35.4357 60.1885 35.3064C58.2405 35.177 56.7421 33.8834 56.4424 32.2016V31.9429V30.0024H59.1396C59.4393 30.0024 59.5891 30.1318 59.5891 30.3905V30.6492C59.5891 31.0373 59.5891 31.2961 59.7389 31.6841C59.8888 32.331 60.4882 32.7191 61.2374 32.8484H61.5371C62.8857 32.9778 64.2343 32.9778 65.5829 32.8484C66.3321 32.7191 66.9315 32.2016 67.0813 31.5548V31.4254C67.2312 30.908 67.2312 30.2611 67.0813 29.7437C66.9315 29.2262 66.4819 28.9675 65.8826 28.8381L59.2894 28.0619C57.791 27.9325 56.5922 26.8976 56.2925 25.604C55.9928 24.4397 55.9928 23.2754 56.2925 22.1111C56.5922 20.8174 57.791 19.7825 59.2894 19.6532H59.4393C61.8368 19.3944 64.3841 19.3944 66.9315 19.6532C68.5798 19.7825 69.7785 20.8174 70.0782 22.2405V22.6286V24.1809H67.2312C67.0813 24.1809 66.9315 24.0516 66.9315 23.9222C66.9315 23.6635 66.9315 23.2754 66.7816 22.8873C66.6318 22.2405 66.0324 21.8524 65.2832 21.723H64.9835C63.7847 21.5936 62.586 21.5936 61.3872 21.723C60.638 21.8524 60.0386 22.3698 59.8888 23.0167C59.7389 23.5341 59.7389 24.181 59.8888 24.6984V24.9571C60.0386 25.4746 60.4882 25.8627 61.0875 25.8627ZM40.5589 19.6532H38.3112C37.8617 19.6532 37.562 19.9119 37.4122 20.1707L32.6171 32.2017L27.8221 20.0413C27.6723 19.7826 27.3726 19.5238 26.9231 19.5238H24.6754C24.3757 19.5238 24.2259 19.7826 24.2259 20.0413L29.9199 34.5303C30.0698 34.789 30.3695 35.0477 30.819 35.0477H31.5682H33.8159H34.715C34.8648 35.0477 35.0146 34.9183 35.1645 34.789L40.8586 20.0413C41.0084 19.9119 40.8586 19.6532 40.5589 19.6532ZM1 34.4009V20.0413C1 19.7826 1.14984 19.6532 1.44953 19.6532H4.59626V34.789C4.59626 35.0477 4.44642 35.1771 4.14673 35.1771H1.89907C1.44953 35.1771 1 34.789 1 34.4009ZM45.5037 19.6532H54.6442C54.794 19.6532 55.0937 19.7826 54.9439 20.0413V21.9818H45.3538V25.8627H53.8949V28.1913H45.3538V32.8485H54.9439V34.789C54.9439 35.0477 54.794 35.1771 54.4943 35.1771H45.3538H44.9043H42.6566C42.2071 35.1771 41.7576 34.789 41.7576 34.4009V20.0413C41.7576 19.7826 41.9074 19.6532 42.2071 19.6532H45.0541H45.5037ZM70.6776 20.0413V21.2056C70.6776 21.5937 71.1271 21.9818 71.5766 21.9818H75.4726V34.4009C75.4726 34.789 75.9221 35.1771 76.3717 35.1771H78.6193C78.919 35.1771 79.0688 35.0477 79.0688 34.789V21.9818H83.4143C83.714 21.9818 83.8639 21.8524 83.8639 21.5937V19.6532H71.1271C70.8274 19.6532 70.6776 19.7826 70.6776 20.0413ZM19.8803 31.5548V20.0413C19.8803 19.7826 20.0301 19.6532 20.3298 19.6532H23.4766V34.789C23.4766 35.0477 23.3267 35.1771 23.027 35.1771H22.4277H20.0301H19.4308C19.1311 35.1771 18.8314 35.0477 18.6815 34.789L10.8897 23.2754V35.1771H8.19245C7.74292 35.1771 7.29339 34.789 7.29339 34.4009V20.0413C7.29339 19.7826 7.44323 19.6532 7.74292 19.6532H8.3423H10.7398H11.3392C11.6389 19.6532 11.9386 19.7826 12.0884 20.0413L19.8803 31.5548Z" fill="black"/>
</svg>
