<svg width="141" height="75" viewBox="0 0 141 75" fill="none" xmlns="http://www.w3.org/2000/svg">
<g clip-path="url(#clip0)">
<path fill-rule="evenodd" clip-rule="evenodd" d="M118.247 23.4583C117.764 24.2632 117.764 25.068 118.086 25.8729L125.974 41.4876C126.296 42.2924 125.652 43.2583 124.847 43.2583H117.281C115.832 43.2583 114.706 42.4534 114.062 41.3266L112.291 37.9461L116.798 31.3461C117.603 30.0583 117.764 28.6095 117.12 27.3217L111.486 16.0534L120.34 2.85341C120.984 1.88755 122.11 1.24365 123.237 1.24365H133.057L118.247 23.4583ZM107.945 12.5125L115.672 28.1271C115.994 28.932 115.994 29.7369 115.511 30.3808L101.667 51.1466C101.023 52.1125 99.8963 52.7564 98.7695 52.7564H88.95L103.76 30.5417C104.243 29.7369 104.243 28.932 103.921 28.1271L96.0329 12.3515C95.711 11.5466 96.3549 10.5808 97.1598 10.5808H104.726C106.174 10.5808 107.301 11.3856 107.945 12.5125ZM8.94434 21.0432V38.9115C8.94434 39.3944 9.42726 39.8773 9.91019 39.8773H12.3248C12.6468 39.8773 12.8077 39.7164 12.8077 39.3944V20.5603H9.42726C9.10531 20.5603 8.94434 20.7212 8.94434 21.0432ZM56.7539 20.5603H66.5734C66.7344 20.5603 67.0563 20.7212 66.8953 21.0432V23.4578H56.5929V28.2871H65.7685V31.1846H56.5929V36.9798H66.8953V39.3944C66.8953 39.7164 66.7344 39.8773 66.4124 39.8773H56.5929H56.11H53.6953C53.2124 39.8773 52.7295 39.3944 52.7295 38.9115V21.0432C52.7295 20.7212 52.8905 20.5603 53.2124 20.5603H56.271H56.7539ZM83.798 21.0432V22.492C83.798 22.9749 84.281 23.4578 84.7639 23.4578H88.9493V38.9115C88.9493 39.3944 89.4322 39.8773 89.9151 39.8773H92.3298C92.6517 39.8773 92.8127 39.7164 92.8127 39.3944V23.4578H97.481C97.8029 23.4578 97.9639 23.2968 97.9639 22.9749V20.5603H84.281C83.959 20.5603 83.798 20.7212 83.798 21.0432ZM29.2274 35.37V21.0432C29.2274 20.7212 29.3884 20.5603 29.7103 20.5603H33.0908V39.3944C33.0908 39.7164 32.9299 39.8773 32.6079 39.8773H31.964H29.3884H28.7445C28.4225 39.8773 28.1006 39.7164 27.9396 39.3944L19.5689 25.0676V39.8773H16.6713C16.1884 39.8773 15.7055 39.3944 15.7055 38.9115V21.0432C15.7055 20.7212 15.8664 20.5603 16.1884 20.5603H16.8323H19.4079H20.0518C20.3738 20.5603 20.6957 20.7212 20.8567 21.0432L29.2274 35.37ZM51.4416 20.5622H49.0269C48.544 20.5622 48.222 20.8842 48.0611 21.2061L42.9099 36.1769L37.7586 21.0452C37.5977 20.7232 37.2757 20.4013 36.7928 20.4013H34.3781C34.0562 20.4013 33.8952 20.7232 33.8952 21.0452L40.0123 39.0744C40.1733 39.3964 40.4952 39.7183 40.9781 39.7183H41.783H44.1977H45.1635C45.3245 39.7183 45.4855 39.5574 45.6464 39.3964L51.7635 21.0452C51.9245 20.8842 51.7635 20.5622 51.4416 20.5622ZM73.4953 28.2879L79.7734 28.9318C81.7051 29.0928 83.3148 30.5416 83.7978 32.4733C83.9587 33.7611 83.9587 34.8879 83.7978 36.1757V36.4977C83.4758 38.4294 81.8661 39.8782 79.7734 40.0391H79.6124C77.3587 40.2001 74.9441 40.2001 72.5295 40.0391C70.4368 39.8782 68.827 38.2684 68.5051 36.1757V35.8538V33.4391H71.4026C71.7246 33.4391 71.8856 33.6001 71.8856 33.9221V34.244C71.8856 34.7269 71.8856 35.0489 72.0465 35.5318C72.2075 36.3367 72.8514 36.8196 73.6563 36.9806H73.9782C75.427 37.1416 76.8758 37.1416 78.3246 36.9806C79.1295 36.8196 79.7734 36.1757 79.9343 35.3708V35.2099C80.0953 34.566 80.0953 33.7611 79.9343 33.1172C79.7734 32.4733 79.2904 32.1513 78.6465 31.9904L71.5636 31.0245C69.9539 30.8635 68.6661 29.5757 68.3441 27.966C68.0222 26.5172 68.0222 25.0684 68.3441 23.6196C68.6661 22.0099 69.9539 20.7221 71.5636 20.5611H71.7246C74.3002 20.2391 77.0368 20.2391 79.7734 20.5611C81.5441 20.7221 82.8319 22.0099 83.1539 23.7806V24.2635V26.1952H80.0953C79.9343 26.1952 79.7734 26.0343 79.7734 25.8733C79.7734 25.5513 79.7734 25.0684 79.6124 24.5855C79.4514 23.7806 78.8075 23.2977 78.0026 23.1367H77.6807C76.3929 22.9757 75.1051 22.9757 73.8173 23.1367C73.0124 23.2977 72.3685 23.9416 72.2075 24.7465C72.0465 25.3904 72.0465 26.1952 72.2075 26.8391V27.1611C72.3685 27.805 72.8514 28.2879 73.4953 28.2879Z" fill="white"/>
<path d="M9.36035 64.8293C8.95345 64.8293 8.63932 64.9709 8.41797 65.2542C8.19987 65.5374 8.09082 65.9296 8.09082 66.4309C8.09082 66.9778 8.19336 67.3831 8.39844 67.6467C8.60677 67.9104 8.92415 68.0422 9.35059 68.0422C9.63053 68.0422 9.97396 67.969 10.3809 67.8225V68.428C10.2246 68.4931 10.0635 68.5484 9.89746 68.594C9.7347 68.6396 9.53939 68.6624 9.31152 68.6624C8.68001 68.6624 8.19499 68.467 7.85645 68.0764C7.5179 67.6825 7.34863 67.134 7.34863 66.4309C7.34863 65.7506 7.52767 65.2102 7.88574 64.8098C8.24707 64.4094 8.73861 64.2092 9.36035 64.2092C9.77702 64.2092 10.1774 64.3069 10.5615 64.5022L10.2783 65.0784C9.92676 64.9124 9.62077 64.8293 9.36035 64.8293ZM5.48828 66.4309C5.48828 65.7799 5.65104 65.1695 5.97656 64.5999C6.30208 64.0302 6.74967 63.581 7.31934 63.2522C7.889 62.9234 8.5026 62.759 9.16016 62.759C9.8112 62.759 10.4215 62.9218 10.9912 63.2473C11.5609 63.5728 12.0101 64.0204 12.3389 64.5901C12.6676 65.1597 12.832 65.7734 12.832 66.4309C12.832 67.0722 12.6742 67.6744 12.3584 68.2375C12.0426 68.8007 11.5999 69.2515 11.0303 69.5901C10.4606 69.9286 9.83724 70.0979 9.16016 70.0979C8.48633 70.0979 7.86458 69.9303 7.29492 69.595C6.72526 69.2564 6.28092 68.8056 5.96191 68.2424C5.64616 67.6793 5.48828 67.0754 5.48828 66.4309ZM6.00098 66.4309C6.00098 66.9941 6.14258 67.5214 6.42578 68.0129C6.70898 68.5012 7.09473 68.887 7.58301 69.1702C8.07454 69.4501 8.60026 69.5901 9.16016 69.5901C9.72656 69.5901 10.2523 69.4485 10.7373 69.1653C11.2223 68.8821 11.6064 68.4996 11.8896 68.0178C12.1761 67.5328 12.3193 67.0038 12.3193 66.4309C12.3193 65.8645 12.1777 65.3388 11.8945 64.8538C11.6113 64.3687 11.2272 63.9846 10.7422 63.7014C10.2604 63.415 9.73307 63.2717 9.16016 63.2717C8.59375 63.2717 8.06803 63.4133 7.58301 63.6965C7.09798 63.9797 6.71224 64.3639 6.42578 64.8489C6.14258 65.3306 6.00098 65.858 6.00098 66.4309ZM21.0986 70.0002H16.4062V69.302L18.2861 67.4124C18.859 66.8329 19.2367 66.4195 19.4189 66.1721C19.6012 65.9247 19.738 65.6838 19.8291 65.4495C19.9202 65.2151 19.9658 64.9628 19.9658 64.6926C19.9658 64.3118 19.8503 64.0107 19.6191 63.7893C19.388 63.5647 19.0674 63.4524 18.6572 63.4524C18.361 63.4524 18.0794 63.5012 17.8125 63.5989C17.5488 63.6965 17.2542 63.8739 16.9287 64.1311L16.499 63.5793C17.1566 63.0325 17.8727 62.759 18.6475 62.759C19.318 62.759 19.8438 62.9316 20.2246 63.2766C20.6055 63.6184 20.7959 64.079 20.7959 64.6584C20.7959 65.1109 20.6689 65.5585 20.415 66.0012C20.1611 66.4439 19.6859 67.0038 18.9893 67.6809L17.4268 69.2092V69.2483H21.0986V70.0002ZM26.8604 66.4211C26.8604 67.6549 26.665 68.5761 26.2744 69.1848C25.887 69.7935 25.293 70.0979 24.4922 70.0979C23.724 70.0979 23.1396 69.787 22.7393 69.1653C22.3389 68.5403 22.1387 67.6256 22.1387 66.4211C22.1387 65.1777 22.3324 64.2548 22.7197 63.6526C23.1071 63.0504 23.6979 62.7493 24.4922 62.7493C25.2669 62.7493 25.8545 63.0634 26.2549 63.6917C26.6585 64.3199 26.8604 65.2297 26.8604 66.4211ZM22.959 66.4211C22.959 67.4596 23.0811 68.2164 23.3252 68.6917C23.5693 69.1637 23.9583 69.3997 24.4922 69.3997C25.0326 69.3997 25.4232 69.1604 25.6641 68.6819C25.9082 68.2001 26.0303 67.4465 26.0303 66.4211C26.0303 65.3958 25.9082 64.6454 25.6641 64.1702C25.4232 63.6917 25.0326 63.4524 24.4922 63.4524C23.9583 63.4524 23.5693 63.6884 23.3252 64.1604C23.0811 64.6292 22.959 65.3827 22.959 66.4211ZM32.5439 70.0002H27.8516V69.302L29.7314 67.4124C30.3044 66.8329 30.682 66.4195 30.8643 66.1721C31.0465 65.9247 31.1833 65.6838 31.2744 65.4495C31.3656 65.2151 31.4111 64.9628 31.4111 64.6926C31.4111 64.3118 31.2956 64.0107 31.0645 63.7893C30.8333 63.5647 30.5127 63.4524 30.1025 63.4524C29.8063 63.4524 29.5247 63.5012 29.2578 63.5989C28.9941 63.6965 28.6995 63.8739 28.374 64.1311L27.9443 63.5793C28.6019 63.0325 29.318 62.759 30.0928 62.759C30.7633 62.759 31.2891 62.9316 31.6699 63.2766C32.0508 63.6184 32.2412 64.079 32.2412 64.6584C32.2412 65.1109 32.1143 65.5585 31.8604 66.0012C31.6064 66.4439 31.1312 67.0038 30.4346 67.6809L28.8721 69.2092V69.2483H32.5439V70.0002ZM38.3057 66.4211C38.3057 67.6549 38.1104 68.5761 37.7197 69.1848C37.3324 69.7935 36.7383 70.0979 35.9375 70.0979C35.1693 70.0979 34.585 69.787 34.1846 69.1653C33.7842 68.5403 33.584 67.6256 33.584 66.4211C33.584 65.1777 33.7777 64.2548 34.165 63.6526C34.5524 63.0504 35.1432 62.7493 35.9375 62.7493C36.7122 62.7493 37.2998 63.0634 37.7002 63.6917C38.1038 64.3199 38.3057 65.2297 38.3057 66.4211ZM34.4043 66.4211C34.4043 67.4596 34.5264 68.2164 34.7705 68.6917C35.0146 69.1637 35.4036 69.3997 35.9375 69.3997C36.4779 69.3997 36.8685 69.1604 37.1094 68.6819C37.3535 68.2001 37.4756 67.4465 37.4756 66.4211C37.4756 65.3958 37.3535 64.6454 37.1094 64.1702C36.8685 63.6917 36.4779 63.4524 35.9375 63.4524C35.4036 63.4524 35.0146 63.6884 34.7705 64.1604C34.5264 64.6292 34.4043 65.3827 34.4043 66.4211ZM46.875 70.0002L45.9863 67.7297H43.125L42.2461 70.0002H41.4062L44.2285 62.8323H44.9268L47.7344 70.0002H46.875ZM45.7275 66.9827L44.8975 64.7708C44.79 64.4908 44.6794 64.1474 44.5654 63.7405C44.4938 64.053 44.3913 64.3964 44.2578 64.7708L43.418 66.9827H45.7275ZM49.4043 70.0002H48.5938V62.4026H49.4043V70.0002ZM51.9336 70.0002H51.123V62.4026H51.9336V70.0002ZM57.2021 67.0315V70.0002H56.3721V62.8616H58.3301C59.2057 62.8616 59.8519 63.0292 60.2686 63.3645C60.6885 63.6998 60.8984 64.2043 60.8984 64.8782C60.8984 65.8222 60.4199 66.4602 59.4629 66.7922L61.4014 70.0002H60.4199L58.6914 67.0315H57.2021ZM57.2021 66.3186H58.3398C58.9258 66.3186 59.3555 66.203 59.6289 65.9719C59.9023 65.7375 60.0391 65.3876 60.0391 64.9221C60.0391 64.4501 59.8991 64.1099 59.6191 63.9016C59.3424 63.6933 58.8965 63.5891 58.2812 63.5891H57.2021V66.3186ZM63.2422 70.0002H62.4316V64.6487H63.2422V70.0002ZM62.3633 63.1985C62.3633 63.0129 62.4089 62.8778 62.5 62.7932C62.5911 62.7053 62.7051 62.6614 62.8418 62.6614C62.972 62.6614 63.0843 62.7053 63.1787 62.7932C63.2731 62.8811 63.3203 63.0162 63.3203 63.1985C63.3203 63.3808 63.2731 63.5175 63.1787 63.6086C63.0843 63.6965 62.972 63.7405 62.8418 63.7405C62.7051 63.7405 62.5911 63.6965 62.5 63.6086C62.4089 63.5175 62.3633 63.3808 62.3633 63.1985ZM69.3408 64.6487V65.1614L68.3496 65.2786C68.4408 65.3925 68.5221 65.5422 68.5938 65.7278C68.6654 65.9101 68.7012 66.1168 68.7012 66.3479C68.7012 66.872 68.5221 67.2903 68.1641 67.6028C67.806 67.9153 67.3145 68.0715 66.6895 68.0715C66.5299 68.0715 66.3802 68.0585 66.2402 68.0325C65.8952 68.2148 65.7227 68.4443 65.7227 68.7209C65.7227 68.8674 65.7829 68.9765 65.9033 69.0481C66.0238 69.1165 66.2305 69.1506 66.5234 69.1506H67.4707C68.0501 69.1506 68.4945 69.2727 68.8037 69.5168C69.1162 69.761 69.2725 70.1158 69.2725 70.5813C69.2725 71.1737 69.0348 71.6246 68.5596 71.9338C68.0843 72.2463 67.391 72.4026 66.4795 72.4026C65.7796 72.4026 65.2393 72.2724 64.8584 72.012C64.4808 71.7515 64.292 71.3837 64.292 70.9084C64.292 70.5829 64.3962 70.3014 64.6045 70.0637C64.8128 69.8261 65.1058 69.665 65.4834 69.5803C65.3467 69.5185 65.2311 69.4224 65.1367 69.2922C65.0456 69.162 65 69.0107 65 68.8381C65 68.6428 65.0521 68.4719 65.1562 68.3254C65.2604 68.179 65.4248 68.0374 65.6494 67.9006C65.3727 67.7867 65.1465 67.593 64.9707 67.3196C64.7982 67.0461 64.7119 66.7336 64.7119 66.3821C64.7119 65.7961 64.8877 65.3453 65.2393 65.0295C65.5908 64.7105 66.0889 64.551 66.7334 64.551C67.0133 64.551 67.2656 64.5836 67.4902 64.6487H69.3408ZM65.0732 70.8987C65.0732 71.1884 65.1953 71.4081 65.4395 71.5579C65.6836 71.7076 66.0335 71.7825 66.4893 71.7825C67.1696 71.7825 67.6725 71.6799 67.998 71.4749C68.3268 71.273 68.4912 70.998 68.4912 70.6497C68.4912 70.3599 68.4017 70.1581 68.2227 70.0442C68.0436 69.9335 67.7067 69.8782 67.2119 69.8782H66.2402C65.8724 69.8782 65.5859 69.9661 65.3809 70.1418C65.1758 70.3176 65.0732 70.5699 65.0732 70.8987ZM65.5127 66.3625C65.5127 66.7369 65.6185 67.0201 65.8301 67.2122C66.0417 67.4042 66.3363 67.5002 66.7139 67.5002C67.5049 67.5002 67.9004 67.1161 67.9004 66.3479C67.9004 65.5439 67.5 65.1418 66.6992 65.1418C66.3184 65.1418 66.0254 65.2444 65.8203 65.4495C65.6152 65.6545 65.5127 65.9589 65.5127 66.3625ZM74.1016 70.0002V66.5383C74.1016 66.1021 74.0023 65.7766 73.8037 65.5618C73.6051 65.3469 73.2943 65.2395 72.8711 65.2395C72.3079 65.2395 71.8962 65.3925 71.6357 65.6985C71.3786 66.0045 71.25 66.5058 71.25 67.2024V70.0002H70.4395V62.4026H71.25V64.7024C71.25 64.9791 71.237 65.2086 71.2109 65.3909H71.2598C71.4193 65.1337 71.6455 64.9319 71.9385 64.7854C72.2347 64.6357 72.5716 64.5608 72.9492 64.5608C73.6035 64.5608 74.0934 64.717 74.4189 65.0295C74.7477 65.3388 74.9121 65.8319 74.9121 66.509V70.0002H74.1016ZM78.3105 69.429C78.4538 69.429 78.5921 69.4192 78.7256 69.3997C78.859 69.3769 78.9648 69.3541 79.043 69.3313V69.9514C78.9551 69.9937 78.8249 70.0279 78.6523 70.054C78.4831 70.0833 78.3301 70.0979 78.1934 70.0979C77.1582 70.0979 76.6406 69.5527 76.6406 68.4622V65.2786H75.874V64.8879L76.6406 64.551L76.9824 63.4084H77.4512V64.6487H79.0039V65.2786H77.4512V68.428C77.4512 68.7502 77.5277 68.9976 77.6807 69.1702C77.8337 69.3427 78.0436 69.429 78.3105 69.429ZM83.5693 68.5403C83.5693 69.0383 83.3838 69.4224 83.0127 69.6926C82.6416 69.9628 82.1208 70.0979 81.4502 70.0979C80.7406 70.0979 80.1872 69.9856 79.79 69.761V69.009C80.0472 69.1392 80.3223 69.2418 80.6152 69.3167C80.9115 69.3915 81.1963 69.429 81.4697 69.429C81.8929 69.429 82.2184 69.3622 82.4463 69.2288C82.6742 69.092 82.7881 68.8853 82.7881 68.6086C82.7881 68.4003 82.6969 68.2229 82.5146 68.0764C82.3356 67.9267 81.984 67.7509 81.46 67.5491C80.9619 67.3635 80.6071 67.2024 80.3955 67.0657C80.1872 66.9257 80.0309 66.7678 79.9268 66.592C79.8258 66.4163 79.7754 66.2063 79.7754 65.9622C79.7754 65.526 79.9528 65.1825 80.3076 64.9319C80.6624 64.678 81.1491 64.551 81.7676 64.551C82.3438 64.551 82.9069 64.6682 83.457 64.9026L83.1689 65.5618C82.6318 65.3404 82.1452 65.2297 81.709 65.2297C81.3249 65.2297 81.0352 65.29 80.8398 65.4104C80.6445 65.5308 80.5469 65.6969 80.5469 65.9084C80.5469 66.0517 80.5827 66.1737 80.6543 66.2747C80.7292 66.3756 80.848 66.4716 81.0107 66.5627C81.1735 66.6539 81.486 66.7857 81.9482 66.9583C82.583 67.1894 83.0111 67.4221 83.2324 67.6565C83.457 67.8909 83.5693 68.1855 83.5693 68.5403ZM88.4424 67.0315V70.0002H87.6123V62.8616H89.5703C90.446 62.8616 91.0921 63.0292 91.5088 63.3645C91.9287 63.6998 92.1387 64.2043 92.1387 64.8782C92.1387 65.8222 91.6602 66.4602 90.7031 66.7922L92.6416 70.0002H91.6602L89.9316 67.0315H88.4424ZM88.4424 66.3186H89.5801C90.166 66.3186 90.5957 66.203 90.8691 65.9719C91.1426 65.7375 91.2793 65.3876 91.2793 64.9221C91.2793 64.4501 91.1393 64.1099 90.8594 63.9016C90.5827 63.6933 90.1367 63.5891 89.5215 63.5891H88.4424V66.3186ZM95.9326 70.0979C95.1416 70.0979 94.5166 69.857 94.0576 69.3752C93.6019 68.8935 93.374 68.2245 93.374 67.3684C93.374 66.5058 93.5856 65.8206 94.0088 65.3127C94.4352 64.8049 95.0065 64.551 95.7227 64.551C96.3932 64.551 96.9238 64.7724 97.3145 65.2151C97.7051 65.6545 97.9004 66.2356 97.9004 66.9583V67.4709H94.2139C94.2301 68.0992 94.388 68.5761 94.6875 68.9016C94.9902 69.2271 95.415 69.3899 95.9619 69.3899C96.5381 69.3899 97.1077 69.2694 97.6709 69.0286V69.7512C97.3844 69.8749 97.1126 69.9628 96.8555 70.0149C96.6016 70.0702 96.2939 70.0979 95.9326 70.0979ZM95.7129 65.2297C95.2832 65.2297 94.9398 65.3697 94.6826 65.6497C94.4287 65.9296 94.279 66.317 94.2334 66.8118H97.0312C97.0312 66.3007 96.9173 65.9101 96.6895 65.6399C96.4616 65.3665 96.1361 65.2297 95.7129 65.2297ZM102.739 68.5403C102.739 69.0383 102.554 69.4224 102.183 69.6926C101.812 69.9628 101.291 70.0979 100.62 70.0979C99.9105 70.0979 99.3571 69.9856 98.96 69.761V69.009C99.2171 69.1392 99.4922 69.2418 99.7852 69.3167C100.081 69.3915 100.366 69.429 100.64 69.429C101.063 69.429 101.388 69.3622 101.616 69.2288C101.844 69.092 101.958 68.8853 101.958 68.6086C101.958 68.4003 101.867 68.2229 101.685 68.0764C101.506 67.9267 101.154 67.7509 100.63 67.5491C100.132 67.3635 99.777 67.2024 99.5654 67.0657C99.3571 66.9257 99.2008 66.7678 99.0967 66.592C98.9958 66.4163 98.9453 66.2063 98.9453 65.9622C98.9453 65.526 99.1227 65.1825 99.4775 64.9319C99.8324 64.678 100.319 64.551 100.938 64.551C101.514 64.551 102.077 64.6682 102.627 64.9026L102.339 65.5618C101.802 65.3404 101.315 65.2297 100.879 65.2297C100.495 65.2297 100.205 65.29 100.01 65.4104C99.8145 65.5308 99.7168 65.6969 99.7168 65.9084C99.7168 66.0517 99.7526 66.1737 99.8242 66.2747C99.8991 66.3756 100.018 66.4716 100.181 66.5627C100.343 66.6539 100.656 66.7857 101.118 66.9583C101.753 67.1894 102.181 67.4221 102.402 67.6565C102.627 67.8909 102.739 68.1855 102.739 68.5403ZM106.323 70.0979C105.532 70.0979 104.907 69.857 104.448 69.3752C103.993 68.8935 103.765 68.2245 103.765 67.3684C103.765 66.5058 103.976 65.8206 104.399 65.3127C104.826 64.8049 105.397 64.551 106.113 64.551C106.784 64.551 107.314 64.7724 107.705 65.2151C108.096 65.6545 108.291 66.2356 108.291 66.9583V67.4709H104.604C104.621 68.0992 104.779 68.5761 105.078 68.9016C105.381 69.2271 105.806 69.3899 106.353 69.3899C106.929 69.3899 107.498 69.2694 108.062 69.0286V69.7512C107.775 69.8749 107.503 69.9628 107.246 70.0149C106.992 70.0702 106.685 70.0979 106.323 70.0979ZM106.104 65.2297C105.674 65.2297 105.33 65.3697 105.073 65.6497C104.819 65.9296 104.67 66.317 104.624 66.8118H107.422C107.422 66.3007 107.308 65.9101 107.08 65.6399C106.852 65.3665 106.527 65.2297 106.104 65.2297ZM112.119 64.551C112.357 64.551 112.57 64.5706 112.759 64.6096L112.646 65.3616C112.425 65.3127 112.23 65.2883 112.061 65.2883C111.628 65.2883 111.257 65.4641 110.947 65.8157C110.641 66.1672 110.488 66.6051 110.488 67.1292V70.0002H109.678V64.6487H110.347L110.439 65.6399H110.479C110.677 65.2916 110.916 65.023 111.196 64.8342C111.476 64.6454 111.784 64.551 112.119 64.551ZM114.932 70.0002L112.9 64.6487H113.77L114.922 67.8225C115.182 68.5647 115.335 69.0465 115.381 69.2678H115.42C115.456 69.0953 115.568 68.7389 115.757 68.1985C115.949 67.6549 116.377 66.4716 117.041 64.6487H117.91L115.879 70.0002H114.932ZM121.03 70.0979C120.239 70.0979 119.614 69.857 119.155 69.3752C118.7 68.8935 118.472 68.2245 118.472 67.3684C118.472 66.5058 118.683 65.8206 119.106 65.3127C119.533 64.8049 120.104 64.551 120.82 64.551C121.491 64.551 122.021 64.7724 122.412 65.2151C122.803 65.6545 122.998 66.2356 122.998 66.9583V67.4709H119.312C119.328 68.0992 119.486 68.5761 119.785 68.9016C120.088 69.2271 120.513 69.3899 121.06 69.3899C121.636 69.3899 122.205 69.2694 122.769 69.0286V69.7512C122.482 69.8749 122.21 69.9628 121.953 70.0149C121.699 70.0702 121.392 70.0979 121.03 70.0979ZM120.811 65.2297C120.381 65.2297 120.037 65.3697 119.78 65.6497C119.526 65.9296 119.377 66.317 119.331 66.8118H122.129C122.129 66.3007 122.015 65.9101 121.787 65.6399C121.559 65.3665 121.234 65.2297 120.811 65.2297ZM128.027 69.2825H127.983C127.609 69.8261 127.049 70.0979 126.304 70.0979C125.604 70.0979 125.059 69.8586 124.668 69.3801C124.281 68.9016 124.087 68.2213 124.087 67.3391C124.087 66.4569 124.282 65.7717 124.673 65.2834C125.063 64.7952 125.607 64.551 126.304 64.551C127.03 64.551 127.586 64.8147 127.974 65.342H128.037L128.003 64.9563L127.983 64.5803V62.4026H128.794V70.0002H128.135L128.027 69.2825ZM126.406 69.4192C126.96 69.4192 127.36 69.2694 127.607 68.97C127.858 68.6672 127.983 68.1806 127.983 67.51V67.3391C127.983 66.5806 127.856 66.0403 127.603 65.718C127.352 65.3925 126.95 65.2297 126.396 65.2297C125.921 65.2297 125.557 65.4153 125.303 65.7864C125.052 66.1542 124.927 66.675 124.927 67.3489C124.927 68.0325 125.052 68.5484 125.303 68.8967C125.553 69.245 125.921 69.4192 126.406 69.4192Z" fill="white"/>
</g>
<defs>
<clipPath id="clip0">
<rect width="141" height="75" fill="white"/>
</clipPath>
</defs>
</svg>
