<svg width="42" height="42" viewBox="0 0 42 42" fill="none" xmlns="http://www.w3.org/2000/svg">
<g clip-path="url(#clip0)">
<path d="M36.88 0H24.9688C21.7146 0 19.8496 3.14 19.8496 8.61375C19.8496 14.0069 21.7627 17.2275 24.9688 17.2275H27.2328V20.9191C27.2328 21.4166 27.5332 21.8661 27.9923 22.0559C28.4397 22.2441 28.9758 22.1468 29.3334 21.7891L33.895 17.2275H36.88C40.1342 17.2275 41.9992 14.0875 41.9992 8.61375C41.9992 3.22056 40.0861 0 36.88 0V0Z" fill="url(#paint0_linear)"/>
<path d="M35.8463 7.38329C35.1667 7.38329 34.6158 7.93424 34.6158 8.61383C34.6158 9.29341 35.1667 9.84436 35.8463 9.84436C36.5259 9.84436 37.0769 9.29341 37.0769 8.61383C37.0769 7.93424 36.526 7.38329 35.8463 7.38329ZM30.9242 9.84436C31.6038 9.84436 32.1547 9.29341 32.1547 8.61383C32.1547 7.93424 31.6038 7.38329 30.9242 7.38329C30.2446 7.38329 29.6936 7.93424 29.6936 8.61383C29.6936 9.29341 30.2446 9.84436 30.9242 9.84436ZM26.002 9.84436C26.6816 9.84436 27.2326 9.29341 27.2326 8.61383C27.2326 7.93424 26.6816 7.38329 26.002 7.38329C25.3224 7.38329 24.7715 7.93424 24.7715 8.61383C24.7715 9.29341 25.3224 9.84436 26.002 9.84436ZM27.6934 26.4885C27.232 26.0271 26.4148 26.0271 25.9534 26.4885L22.8506 29.5901C19.4234 26.9368 16.8926 24.8446 12.4127 19.145L15.5107 16.047C15.993 15.5647 15.9894 14.7856 15.5107 14.3069L7.68033 6.47548C7.21888 6.01403 6.40172 6.01403 5.94027 6.47548L1.79919 10.6166C-0.294197 12.7087 -0.596991 16.0038 1.0758 18.4504C4.48619 23.4434 10.1967 31.8012 23.5499 40.9233C25.9912 42.5934 29.2849 42.2966 31.3826 40.201L35.5237 36.0599C36.0043 35.5793 36.0043 34.8005 35.5237 34.3199L27.6934 26.4885Z" fill="url(#paint1_linear)"/>
</g>
<defs>
<linearGradient id="paint0_linear" x1="30.9244" y1="22.1499" x2="30.9244" y2="0" gradientUnits="userSpaceOnUse">
<stop stop-color="#ADDCFF"/>
<stop offset="0.5028" stop-color="#EAF6FF"/>
<stop offset="1" stop-color="#EAF6FF"/>
</linearGradient>
<linearGradient id="paint1_linear" x1="18.538" y1="42.0001" x2="18.538" y2="6.12937" gradientUnits="userSpaceOnUse">
<stop stop-color="#5558FF"/>
<stop offset="1" stop-color="#00C0FF"/>
</linearGradient>
<clipPath id="clip0">
<rect width="42" height="42" fill="white"/>
</clipPath>
</defs>
</svg>
