<svg width="128" height="133" viewBox="0 0 128 133" fill="none" xmlns="http://www.w3.org/2000/svg">
<path d="M33.0322 111.548H53.6774V124.419H33.0322V111.548Z" fill="#F0BC5E"/>
<path d="M73.5342 34.8893L63.9999 32.366L54.4657 34.8893L53.7187 24.2514L48.6542 15.2654L57.6118 11.2317L63.9999 3.02502L70.3901 11.2296L79.3477 15.2633L74.2832 24.2493L73.5342 34.8893Z" fill="#F0BC5E"/>
<path d="M22.2268 45.615L16.5161 44.1067L10.8054 45.615L10.3639 39.2675L7.36389 33.9455L12.6784 31.5531L16.5161 26.6218L20.3538 31.551L25.6683 33.9434L22.6683 39.2654L22.2268 45.615Z" fill="#F0BC5E"/>
<path d="M117.195 45.615L111.484 44.1067L105.773 45.615L105.33 39.2675L102.33 33.9455L107.644 31.5531L111.484 26.6218L115.322 31.551L120.636 33.9434L117.636 39.2654L117.195 45.615Z" fill="#F0BC5E"/>
<path d="M44.247 71.6272L36.0696 61.0104C33.119 57.1746 29.628 53.85 25.6946 51.1256L24.1794 50.0772L30.2309 37.5037L32.2067 39.0424C37.9002 43.4762 41.6724 50.2311 42.5555 57.5695L44.247 71.6272Z" fill="#F0BC5E"/>
<path d="M83.7531 71.6272L85.4446 57.5695C86.3276 50.2311 90.0998 43.4783 95.7934 39.0423L97.7712 37.4995L103.823 50.0719L102.307 51.1214C98.374 53.8479 94.8811 57.1704 91.9325 61.0041L83.7531 71.6272Z" fill="#F0BC5E"/>
<path d="M102.438 77.2258H25.5625L17.3044 94.3871H24.7742V133H103.226V94.3871H110.696L102.438 77.2258ZM99.8851 81.5162L104.014 90.0968H71.4698L67.3407 81.5162H99.8851ZM28.1149 81.5162H60.6593L56.5303 90.0968H23.9859L28.1149 81.5162ZM99.0968 128.71H66.0645V113.694H61.9355V128.71H28.9032V94.3871H59.0827L61.9355 88.4576V107.258H66.0645V88.4576L68.9173 94.3871H99.0968V128.71Z" fill="black"/>
<path d="M33.0322 111.548H45.4193V115.839H33.0322V111.548Z" fill="black"/>
<path d="M33.0322 120.129H45.4193V124.419H33.0322V120.129Z" fill="black"/>
<path d="M49.5483 120.129H53.6774V124.419H49.5483V120.129Z" fill="black"/>
<path d="M76.3871 63.9474C76.3871 53.6437 79.882 43.6134 86.2329 35.6958L83.0595 32.9494C76.0937 41.6358 72.2581 52.6445 72.2581 63.9474V72.9355H76.3871V63.9474Z" fill="black"/>
<path d="M86.7097 25.7419H90.8387V30.0323H86.7097V25.7419Z" fill="black"/>
<path d="M92.9032 17.1613H97.0322V21.4516H92.9032V17.1613Z" fill="black"/>
<path d="M51.6129 72.9355H55.7419V63.9474C55.7419 52.6424 51.9063 41.6358 44.9426 32.9494L41.7692 35.6958C48.118 43.6134 51.6129 53.6437 51.6129 63.9474V72.9355Z" fill="black"/>
<path d="M37.1613 25.7419H41.2903V30.0323H37.1613V25.7419Z" fill="black"/>
<path d="M30.9678 17.1613H35.0968V21.4516H30.9678V17.1613Z" fill="black"/>
<path d="M61.9354 36.4678H66.0645V40.7581H61.9354V36.4678Z" fill="black"/>
<path d="M61.9354 45.0484H66.0645V72.9355H61.9354V45.0484Z" fill="black"/>
<path d="M119.742 57.9194H123.871V62.2097H119.742V57.9194Z" fill="black"/>
<path d="M119.742 66.5H123.871V70.7903H119.742V66.5Z" fill="black"/>
<path d="M123.871 62.2097H128V66.5H123.871V62.2097Z" fill="black"/>
<path d="M115.613 62.2097H119.742V66.5H115.613V62.2097Z" fill="black"/>
<path d="M113.548 0H117.677V4.29032H113.548V0Z" fill="black"/>
<path d="M113.548 8.58063H117.677V12.8709H113.548V8.58063Z" fill="black"/>
<path d="M117.677 4.29034H121.806V8.58067H117.677V4.29034Z" fill="black"/>
<path d="M109.419 4.29034H113.548V8.58067H109.419V4.29034Z" fill="black"/>
<path d="M4.12903 66.5H8.25806V70.7903H4.12903V66.5Z" fill="black"/>
<path d="M4.12903 75.0806H8.25806V79.371H4.12903V75.0806Z" fill="black"/>
<path d="M8.25806 70.7903H12.3871V75.0807H8.25806V70.7903Z" fill="black"/>
<path d="M0 70.7903H4.12903V75.0807H0V70.7903Z" fill="black"/>
<path d="M4.12903 0H8.25806V4.29032H4.12903V0Z" fill="black"/>
<path d="M4.12903 8.58063H8.25806V12.8709H4.12903V8.58063Z" fill="black"/>
<path d="M8.25806 4.29034H12.3871V8.58067H8.25806V4.29034Z" fill="black"/>
<path d="M0 4.29034H4.12903V8.58067H0V4.29034Z" fill="black"/>
</svg>
