<svg width="17" height="17" viewBox="0 0 17 17" fill="none" xmlns="http://www.w3.org/2000/svg">
<path d="M13.6243 5.3125C12.1602 5.3125 10.968 4.12108 10.968 2.65625C10.968 1.19142 12.1602 0 13.6243 0C15.0884 0 16.2805 1.19142 16.2805 2.65625C16.2805 4.12108 15.0884 5.3125 13.6243 5.3125ZM13.6243 1.0625C12.7459 1.0625 12.0305 1.77715 12.0305 2.65625C12.0305 3.53535 12.7459 4.25 13.6243 4.25C14.5026 4.25 15.218 3.53535 15.218 2.65625C15.218 1.77715 14.5026 1.0625 13.6243 1.0625Z" fill="black"/>
<path d="M13.6243 17C12.1602 17 10.968 15.8086 10.968 14.3438C10.968 12.8789 12.1602 11.6875 13.6243 11.6875C15.0884 11.6875 16.2805 12.8789 16.2805 14.3438C16.2805 15.8086 15.0884 17 13.6243 17ZM13.6243 12.75C12.7459 12.75 12.0305 13.4646 12.0305 14.3438C12.0305 15.2229 12.7459 15.9375 13.6243 15.9375C14.5026 15.9375 15.218 15.2229 15.218 14.3438C15.218 13.4646 14.5026 12.75 13.6243 12.75Z" fill="black"/>
<path d="M3.35352 11.1562C1.88934 11.1562 0.697266 9.96483 0.697266 8.5C0.697266 7.03517 1.88934 5.84375 3.35352 5.84375C4.8177 5.84375 6.00977 7.03517 6.00977 8.5C6.00977 9.96483 4.8177 11.1562 3.35352 11.1562ZM3.35352 6.90625C2.47519 6.90625 1.75977 7.6209 1.75977 8.5C1.75977 9.3791 2.47519 10.0938 3.35352 10.0938C4.23184 10.0938 4.94727 9.3791 4.94727 8.5C4.94727 7.6209 4.23184 6.90625 3.35352 6.90625Z" fill="black"/>
<path d="M5.20285 7.9829C5.0179 7.9829 4.838 7.88653 4.74099 7.7152C4.59573 7.46021 4.68431 7.1357 4.9393 6.99056L11.512 3.24341C11.7662 3.09685 12.0913 3.18608 12.2358 3.44185C12.3811 3.69684 12.2925 4.02122 12.0375 4.16648L5.46484 7.91351C5.38197 7.9602 5.29208 7.9829 5.20285 7.9829Z" fill="black"/>
<path d="M11.775 13.8265C11.6858 13.8265 11.5958 13.8038 11.5129 13.7565L4.94022 10.0093C4.68523 9.8642 4.59677 9.53969 4.74191 9.2847C4.88639 9.02906 5.2109 8.94048 5.46589 9.08639L12.0384 12.8334C12.2934 12.9787 12.382 13.3031 12.2369 13.558C12.1391 13.7302 11.9592 13.8265 11.775 13.8265Z" fill="black"/>
</svg>
