<svg width="19" height="19" viewBox="0 0 19 19" fill="none" xmlns="http://www.w3.org/2000/svg">
<g clip-path="url(#clip0)">
<path d="M15.6016 18.6747C11.538 19.1084 7.46203 19.1084 3.39841 18.6747C1.77806 18.5018 0.498222 17.2219 0.325287 15.6014C-0.108429 11.5378 -0.108429 7.46203 0.325287 3.39841C0.498222 1.77806 1.77806 0.498222 3.39841 0.325287C7.46203 -0.108429 11.5378 -0.108429 15.6014 0.325287C17.2219 0.498222 18.5018 1.77806 18.6747 3.39841C19.1084 7.46203 19.1084 11.5378 18.6747 15.6014C18.5018 17.2219 17.2221 18.5018 15.6016 18.6747Z" fill="url(#paint0_linear)"/>
<path d="M17.6416 4.08596C17.4882 2.64811 16.3526 1.51236 14.9146 1.35885C11.3087 0.974133 7.69194 0.974133 4.08596 1.35885C2.64811 1.51236 1.51236 2.64811 1.35885 4.08596C0.974133 7.69194 0.974133 11.3087 1.35885 14.9145C1.51236 16.3525 2.64811 17.4882 4.08596 17.6416C7.69194 18.0265 11.3087 18.0265 14.9145 17.6416C16.3525 17.4882 17.4882 16.3525 17.6416 14.9145C18.0265 11.3087 18.0265 7.69194 17.6416 4.08596Z" fill="url(#paint1_linear)"/>
<path d="M0.285156 15.2075C0.298203 15.3389 0.311684 15.4702 0.325745 15.6015C0.49868 17.2219 1.77852 18.5017 3.39901 18.6746C7.46263 19.1084 11.5384 19.1084 15.6021 18.6746C17.2225 18.5017 18.5022 17.2219 18.6752 15.6015C18.6892 15.4702 18.7027 15.3389 18.7159 15.2075H0.285156Z" fill="url(#paint2_linear)"/>
<path d="M18.4699 16.4606L6.20873 4.19928C5.9349 3.84196 5.50408 3.61133 5.0192 3.61133C4.19206 3.61133 3.52148 4.28176 3.52148 5.10889C3.52148 5.59393 3.75226 6.02474 4.10958 6.29842L16.3281 18.5171C17.3157 18.1885 18.1029 17.4296 18.4699 16.4606Z" fill="url(#paint3_linear)"/>
<path d="M6.27679 7.58936H3.76074V15.389L7.33078 18.959C10.0882 19.0634 12.8475 18.969 15.6011 18.6751C16.0825 18.6237 16.5335 18.474 16.9347 18.2473L6.27679 7.58936Z" fill="url(#paint4_linear)"/>
<path d="M14.8222 8.24209C14.362 7.73749 13.6994 7.4209 12.9629 7.4209C11.7978 7.4209 11.0459 7.83012 10.5984 8.21005L10.1054 7.58876H7.78711V15.3884L11.3679 18.9692C12.7801 18.9232 14.1917 18.8249 15.602 18.6745C17.2225 18.5015 18.5022 17.2217 18.6751 15.6013C18.7908 14.5179 18.8753 13.4336 18.9292 12.3491L14.8222 8.24209Z" fill="url(#paint5_linear)"/>
<path d="M3.76172 7.58887H6.27762V15.3885H3.76172V7.58887Z" fill="white"/>
<path d="M12.9629 7.42139C11.1191 7.42139 10.3092 8.4461 10.1054 8.75805V7.58925H7.78711V15.3889H10.3032V11.4711C10.3032 10.339 10.8243 9.45834 11.8128 9.45834C12.8011 9.45834 12.9629 10.5545 12.9629 11.9025V15.3889H15.4789V9.93743C15.4789 8.54786 14.3524 7.42139 12.9629 7.42139Z" fill="white"/>
<path d="M6.51676 5.10904C6.51676 5.93617 5.84633 6.60661 5.0192 6.60661C4.19206 6.60661 3.52148 5.93617 3.52148 5.10904C3.52148 4.28191 4.19206 3.61133 5.0192 3.61133C5.84633 3.61133 6.51676 4.28191 6.51676 5.10904Z" fill="white"/>
</g>
<defs>
<linearGradient id="paint0_linear" x1="6.30837" y1="2.67136" x2="11.114" y2="12.9532" gradientUnits="userSpaceOnUse">
<stop stop-color="#0077B5"/>
<stop offset="1" stop-color="#0066B2"/>
</linearGradient>
<linearGradient id="paint1_linear" x1="13.5186" y1="11.6559" x2="-14.0859" y2="-3.15222" gradientUnits="userSpaceOnUse">
<stop stop-color="#0066B2" stop-opacity="0"/>
<stop offset="1" stop-color="#07485E"/>
</linearGradient>
<linearGradient id="paint2_linear" x1="9.50047" y1="15.431" x2="9.50047" y2="19.402" gradientUnits="userSpaceOnUse">
<stop stop-color="#0066B2" stop-opacity="0"/>
<stop offset="1" stop-color="#07485E"/>
</linearGradient>
<linearGradient id="paint3_linear" x1="10.0698" y1="10.1596" x2="2.96567" y2="3.05549" gradientUnits="userSpaceOnUse">
<stop stop-color="#0066B2" stop-opacity="0"/>
<stop offset="1" stop-color="#07485E"/>
</linearGradient>
<linearGradient id="paint4_linear" x1="14.2404" y1="16.7601" x2="-0.065536" y2="10.0542" gradientUnits="userSpaceOnUse">
<stop stop-color="#0066B2" stop-opacity="0"/>
<stop offset="1" stop-color="#07485E"/>
</linearGradient>
<linearGradient id="paint5_linear" x1="17.7212" y1="18.2299" x2="7.75511" y2="8.26376" gradientUnits="userSpaceOnUse">
<stop stop-color="#0066B2" stop-opacity="0"/>
<stop offset="1" stop-color="#07485E"/>
</linearGradient>
<clipPath id="clip0">
<rect width="19" height="19" fill="white"/>
</clipPath>
</defs>
</svg>
