<svg width="102" height="102" viewBox="0 0 102 102" fill="none" xmlns="http://www.w3.org/2000/svg">
<path d="M76.3037 8.96484V93.0352C76.3037 97.9778 72.2815 102 67.3389 102H8.96777C4.02516 102 0.00292969 97.9778 0.00292969 93.0352V8.96484C0.00292969 4.02223 4.02516 0 8.96777 0H67.3389C72.2815 0 76.3037 4.02223 76.3037 8.96484Z" fill="#EEF4FF"/>
<path d="M76.3027 8.96484V93.0352C76.3027 97.9778 72.2805 102 67.3379 102H38.252V0H67.3379C72.2805 0 76.3027 4.02223 76.3027 8.96484Z" fill="#D9E6FC"/>
<path d="M63.5527 22.3125C63.5527 23.962 62.214 25.3008 60.5644 25.3008H15.9395C14.2899 25.3008 12.9512 23.962 12.9512 22.3125C12.9512 20.663 14.2899 19.3242 15.9395 19.3242H60.5644C62.214 19.3242 63.5527 20.663 63.5527 22.3125Z" fill="#425796"/>
<path d="M63.5527 22.3125C63.5527 23.962 62.214 25.3008 60.5644 25.3008H38.0527V19.3242H60.5644C62.214 19.3242 63.5527 20.663 63.5527 22.3125Z" fill="#283758"/>
<path d="M53.9902 38.25C53.9902 39.8995 52.6515 41.2383 51.0019 41.2383H15.9395C14.2899 41.2383 12.9512 39.8995 12.9512 38.25C12.9512 36.6005 14.2899 35.2617 15.9395 35.2617H51.0019C52.6515 35.2617 53.9902 36.6005 53.9902 38.25Z" fill="#425796"/>
<path d="M53.9902 38.25C53.9902 39.8995 52.6515 41.2383 51.0019 41.2383H38.0527V35.2617H51.0019C52.6515 35.2617 53.9902 36.6005 53.9902 38.25Z" fill="#283758"/>
<path d="M44.4277 54.1875C44.4277 55.837 43.089 57.1758 41.4395 57.1758H15.9395C14.2899 57.1758 12.9512 55.837 12.9512 54.1875C12.9512 52.538 14.2899 51.1992 15.9395 51.1992H41.4395C43.089 51.1992 44.4277 52.538 44.4277 54.1875Z" fill="#425796"/>
<path d="M44.4277 54.1875C44.4277 55.837 43.089 57.1758 41.4395 57.1758H38.0527V51.1992H41.4395C43.089 51.1992 44.4277 52.538 44.4277 54.1875Z" fill="#283758"/>
<path d="M101.173 44.4833C100.801 45.1128 99.5555 46.3918 91.2122 54.6255C86.3772 59.3968 79.1575 66.5069 68.3439 77.1811C67.8239 77.6971 68.9993 77.0675 50.6035 85.6519C48.0634 86.8412 45.4616 84.1856 46.631 81.6794C55.2293 63.2577 54.5839 64.453 55.1158 63.9271C65.8935 53.1493 73.0534 45.9854 77.8128 41.2261C87.0625 31.9724 87.2438 31.7971 87.2657 31.821C89.6623 29.8846 93.1068 30.0758 95.2624 32.2314C100.661 37.6302 100.4 37.3493 100.661 37.674C102.191 39.5387 102.472 42.266 101.173 44.4833Z" fill="#FFE278"/>
<path d="M101.173 44.4835C100.586 45.4776 97.8164 48.0914 68.3439 77.1813C67.824 77.6973 68.9994 77.0677 50.6035 85.6521C50.1991 85.8413 49.7668 85.933 49.3405 85.933C48.5137 85.933 47.7925 85.6082 47.2666 85.0962L97.6988 34.666C100.58 37.5447 100.446 37.4073 100.661 37.6742C102.191 39.5389 102.472 42.2662 101.173 44.4835Z" fill="#FFB454"/>
<path d="M101.173 44.4833C100.8 45.1128 99.5552 46.3918 91.212 54.6255L91.196 54.6116L84.4744 47.89L77.8125 41.2301V41.2261C87.0622 31.9724 87.2435 31.7971 87.2654 31.821C89.662 29.8846 93.1065 30.0758 95.2621 32.2314C96.2522 33.2215 97.0511 34.0203 97.6985 34.6658C100.583 37.5485 100.448 37.4091 100.661 37.674C102.191 39.5387 102.472 42.266 101.173 44.4833Z" fill="#DD5958"/>
<path d="M101.173 44.4835C100.801 45.113 99.5555 46.392 91.2122 54.6257L91.1962 54.6118L84.4746 47.8902L97.6987 34.666C100.583 37.5487 100.448 37.4093 100.661 37.6742C102.191 39.5389 102.472 42.2662 101.173 44.4835Z" fill="#D8225B"/>
</svg>
