<svg width="68" height="68" viewBox="0 0 68 68" fill="none" xmlns="http://www.w3.org/2000/svg">
<g clip-path="url(#clip0)">
<path d="M63.7535 32.0303H27.6056C26.5168 32.0303 25.626 32.9211 25.626 34.0099C25.626 35.0987 26.5168 35.9895 27.6056 35.9895H63.7535C64.8423 35.9895 65.7331 35.0987 65.7331 34.0099C65.7331 32.9211 64.8621 32.0303 63.7535 32.0303Z" fill="url(#paint0_linear)"/>
<path d="M11.4718 24.8047C6.38421 24.8047 2.2666 28.9223 2.2666 34.0099C2.2666 39.0976 6.38421 43.2152 11.4718 43.2152C16.5595 43.2152 20.6771 39.0976 20.6771 34.0099C20.6771 28.9223 16.5595 24.8047 11.4718 24.8047ZM11.4718 39.2559C8.5618 39.2559 6.22584 36.9002 6.22584 34.0099C6.22584 31.0999 8.58159 28.7639 11.4718 28.7639C14.3621 28.7639 16.7178 31.1197 16.7178 34.0099C16.7178 36.9002 14.3621 39.2559 11.4718 39.2559Z" fill="url(#paint1_linear)"/>
<path d="M63.7535 7.28516H27.6056C26.5168 7.28516 25.626 8.17599 25.626 9.26478C25.626 10.3536 26.5168 11.2444 27.6056 11.2444H63.7535C64.8423 11.2444 65.7331 10.3536 65.7331 9.26478C65.7331 8.17599 64.8621 7.28516 63.7535 7.28516Z" fill="url(#paint2_linear)"/>
<path d="M11.4718 0C6.38421 0 2.2666 4.11761 2.2666 9.20524C2.2666 14.2929 6.38421 18.4105 11.4718 18.4105C16.5595 18.4105 20.6771 14.2929 20.6771 9.20524C20.6771 4.13741 16.5595 0.0197962 11.4718 0ZM11.4718 14.471C8.5618 14.471 6.22584 12.1153 6.22584 9.22504C6.22584 6.33479 8.58159 3.97904 11.4718 3.97904C14.3819 3.97904 16.7178 6.33479 16.7178 9.22504C16.7178 12.1153 14.3621 14.471 11.4718 14.471Z" fill="url(#paint3_linear)"/>
<path d="M63.7535 56.7759H27.6056C26.5168 56.7759 25.626 57.6667 25.626 58.7555C25.626 59.8443 26.5168 60.7351 27.6056 60.7351H63.7535C64.8423 60.7351 65.7331 59.8443 65.7331 58.7555C65.7331 57.6667 64.8621 56.7759 63.7535 56.7759Z" fill="url(#paint4_linear)"/>
<path d="M11.4718 49.5894C6.38421 49.5894 2.2666 53.707 2.2666 58.7946C2.2666 63.8822 6.38421 67.9998 11.4718 67.9998C16.5595 67.9998 20.6771 63.8822 20.6771 58.7946C20.6771 53.7268 16.5595 49.5894 11.4718 49.5894ZM11.4718 64.0604C8.5618 64.0604 6.22584 61.7046 6.22584 58.8144C6.22584 55.9043 8.58159 53.5684 11.4718 53.5684C14.3819 53.5684 16.7178 55.9241 16.7178 58.8144C16.7178 61.7046 14.3621 64.0604 11.4718 64.0604Z" fill="url(#paint5_linear)"/>
</g>
<defs>
<linearGradient id="paint0_linear" x1="45.6795" y1="32.0303" x2="45.6795" y2="35.9895" gradientUnits="userSpaceOnUse">
<stop stop-color="#F27272"/>
<stop offset="1" stop-color="#4CB5EF" stop-opacity="0"/>
</linearGradient>
<linearGradient id="paint1_linear" x1="11.4718" y1="24.8047" x2="11.4718" y2="43.2152" gradientUnits="userSpaceOnUse">
<stop stop-color="#F27272"/>
<stop offset="1" stop-color="#4CB5EF" stop-opacity="0"/>
</linearGradient>
<linearGradient id="paint2_linear" x1="45.6795" y1="7.28516" x2="45.6795" y2="11.2444" gradientUnits="userSpaceOnUse">
<stop stop-color="#F27272"/>
<stop offset="1" stop-color="#4CB5EF" stop-opacity="0"/>
</linearGradient>
<linearGradient id="paint3_linear" x1="11.4718" y1="0" x2="11.4718" y2="18.4105" gradientUnits="userSpaceOnUse">
<stop stop-color="#F27272"/>
<stop offset="1" stop-color="#4CB5EF" stop-opacity="0"/>
</linearGradient>
<linearGradient id="paint4_linear" x1="45.6795" y1="56.7759" x2="45.6795" y2="60.7351" gradientUnits="userSpaceOnUse">
<stop stop-color="#F27272"/>
<stop offset="1" stop-color="#4CB5EF" stop-opacity="0"/>
</linearGradient>
<linearGradient id="paint5_linear" x1="11.4718" y1="49.5894" x2="11.4718" y2="67.9998" gradientUnits="userSpaceOnUse">
<stop stop-color="#F27272"/>
<stop offset="1" stop-color="#4CB5EF" stop-opacity="0"/>
</linearGradient>
<clipPath id="clip0">
<rect width="68" height="68" fill="white"/>
</clipPath>
</defs>
</svg>
