<svg width="91" height="91" viewBox="0 0 91 91" fill="none" xmlns="http://www.w3.org/2000/svg">
<path d="M83.5119 28.3785C83.8459 28.0451 84.0336 27.5926 84.0336 27.1207C84.0336 26.6488 83.8459 26.1963 83.5119 25.8628L74.0465 16.4143C73.3526 15.7218 72.229 15.7218 71.5351 16.4143L66.6686 21.2721C62.3187 18.3612 57.4342 16.3933 52.2712 15.4746C53.7965 13.8299 54.7302 11.6304 54.7302 9.21713C54.7302 4.13481 50.5895 0 45.4997 0C40.4099 0 36.2692 4.13481 36.2692 9.21713C36.2692 11.6302 37.2027 13.8299 38.7282 15.4746C33.5652 16.3933 28.6807 18.3612 24.3308 21.2721L19.4643 16.4143C18.7704 15.7218 17.6468 15.7218 16.9529 16.4143L7.48747 25.8628C7.15351 26.1963 6.96582 26.6488 6.96582 27.1207C6.96582 27.5926 7.15351 28.0451 7.48747 28.3785L12.6725 33.5545C9.21789 39.3616 7.37479 46.0094 7.37479 52.9398C7.37479 63.1065 11.3408 72.6647 18.5424 79.8536C25.7431 87.0415 35.3168 91 45.4997 91C55.6826 91 65.2563 87.0415 72.4569 79.8536C79.6585 72.6649 83.6244 63.1065 83.6244 52.9398C83.6244 46.0092 81.7813 39.3616 78.3267 33.5543L83.5119 28.3785ZM72.7908 20.1835L79.7404 27.1207L76.3252 30.5298C75.1646 28.9458 73.8734 27.4402 72.4569 26.0262C71.5289 25.1 70.5615 24.2273 69.5585 23.4099L72.7908 20.1835ZM45.4997 3.55469C48.6292 3.55469 51.1755 6.09487 51.1755 9.21713C51.1755 11.7203 49.5387 13.8494 47.277 14.5952V10.4878C47.277 9.5063 46.4813 8.71041 45.4997 8.71041C44.5181 8.71041 43.7224 9.5063 43.7224 10.4878V14.5952C41.4605 13.8494 39.8239 11.7203 39.8239 9.21713C39.8239 6.09487 42.3702 3.55469 45.4997 3.55469ZM11.259 27.1207L18.2086 20.1835L21.4409 23.4099C20.4379 24.2273 19.4705 25.0998 18.5426 26.0262C17.126 27.4402 15.8348 28.946 14.6742 30.5298L11.259 27.1207ZM45.4997 87.4453C26.4375 87.4453 10.9295 71.9662 10.9295 52.9398C10.9295 33.9133 26.4375 18.4344 45.4997 18.4344C64.5619 18.4344 80.0699 33.9135 80.0699 52.94C80.0699 71.9664 64.5617 87.4453 45.4997 87.4453Z" fill="#020288"/>
<path d="M45.4999 80.0834C60.5178 80.0834 72.6922 67.9308 72.6922 52.9397C72.6922 37.9486 60.5178 25.7959 45.4999 25.7959C30.482 25.7959 18.3076 37.9486 18.3076 52.9397C18.3076 67.9308 30.482 80.0834 45.4999 80.0834Z" fill="#E2C4FF"/>
<path d="M45.5 34.8045C44.5184 34.8045 43.7227 34.0086 43.7227 33.0271V32.4209C43.7227 31.4393 44.5184 30.6436 45.5 30.6436C46.4816 30.6436 47.2773 31.4393 47.2773 32.4209V33.0271C47.2773 34.0088 46.4816 34.8045 45.5 34.8045Z" fill="#020288"/>
<path d="M45.5 75.2357C44.5184 75.2357 43.7227 74.4398 43.7227 73.4583V72.8521C43.7227 71.8706 44.5184 71.0747 45.5 71.0747C46.4816 71.0747 47.2773 71.8706 47.2773 72.8521V73.4583C47.2773 74.4398 46.4816 75.2357 45.5 75.2357Z" fill="#020288"/>
<path d="M66.0185 54.7173H65.4121C64.4305 54.7173 63.6348 53.9214 63.6348 52.9399C63.6348 51.9585 64.4305 51.1626 65.4121 51.1626H66.0185C67.0002 51.1626 67.7959 51.9585 67.7959 52.9399C67.7959 53.9216 67.0002 54.7173 66.0185 54.7173Z" fill="#020288"/>
<path d="M25.5869 54.7173H24.9805C23.9988 54.7173 23.2031 53.9214 23.2031 52.9399C23.2031 51.9585 23.9988 51.1626 24.9805 51.1626H25.5869C26.5685 51.1626 27.3642 51.9585 27.3642 52.9399C27.3642 53.9216 26.5685 54.7173 25.5869 54.7173Z" fill="#020288"/>
<path d="M59.581 40.6367C59.1262 40.6367 58.6712 40.4631 58.3243 40.1161C57.6302 39.4221 57.6302 38.2967 58.3243 37.6024L58.753 37.1737C59.447 36.4799 60.5724 36.4799 61.2666 37.1737C61.9607 37.8678 61.9607 38.9932 61.2666 39.6874L60.838 40.1161C60.4907 40.4631 60.0358 40.6367 59.581 40.6367Z" fill="#020288"/>
<path d="M30.9912 69.2256C30.5363 69.2256 30.0813 69.0519 29.7344 68.705C29.0404 68.0109 29.0404 66.8855 29.7344 66.1913L30.1631 65.7626C30.8572 65.0687 31.9826 65.0687 32.6768 65.7626C33.3708 66.4566 33.3708 67.5821 32.6768 68.2763L32.2481 68.705C31.901 69.0521 31.446 69.2256 30.9912 69.2256Z" fill="#020288"/>
<path d="M60.0097 69.2256C59.5549 69.2256 59.0999 69.0519 58.753 68.705L58.3243 68.2763C57.6302 67.5822 57.6302 66.4568 58.3243 65.7626C59.0183 65.0687 60.1437 65.0687 60.838 65.7626L61.2666 66.1913C61.9607 66.8853 61.9607 68.0107 61.2666 68.705C60.9194 69.0521 60.4645 69.2256 60.0097 69.2256Z" fill="#020288"/>
<path d="M31.4199 40.6367C30.965 40.6367 30.51 40.4631 30.1631 40.1161L29.7344 39.6874C29.0404 38.9934 29.0404 37.868 29.7344 37.1737C30.4285 36.4799 31.5539 36.4799 32.2481 37.1737L32.6768 37.6024C33.3709 38.2965 33.3709 39.4219 32.6768 40.1161C32.3297 40.4631 31.8747 40.6367 31.4199 40.6367Z" fill="#020288"/>
<path d="M56.1305 50.8959H51.6377C51.0446 48.9406 49.4994 47.3954 47.544 46.8023V41.2378C47.544 40.2562 46.7482 39.4604 45.7666 39.4604C44.785 39.4604 43.9893 40.2562 43.9893 41.2378V46.8023C41.4711 47.566 39.6328 49.9091 39.6328 52.6732C39.6328 56.0553 42.3845 58.807 45.7666 58.807C48.5309 58.807 50.874 56.9689 51.6377 54.4506H56.1305C57.1121 54.4506 57.9078 53.6547 57.9078 52.6732C57.9078 51.6918 57.1121 50.8959 56.1305 50.8959ZM45.7666 55.2523C44.3446 55.2523 43.1875 54.0953 43.1875 52.6732C43.1875 51.2512 44.3444 50.0943 45.7666 50.0943C47.1887 50.0943 48.3457 51.2512 48.3457 52.6732C48.3455 54.0953 47.1887 55.2523 45.7666 55.2523Z" fill="#020288"/>
</svg>
