<svg width="60" height="56" viewBox="0 0 60 56" fill="none" xmlns="http://www.w3.org/2000/svg">
<path d="M34.4043 0V9.52148H30.5957V3.80859H19.1699V9.52148H15.3613V0H34.4043Z" fill="#2D5177"/>
<path d="M34.4043 0V9.52148H30.5957V3.80859H24.8828V0H34.4043Z" fill="#32405D"/>
<path d="M49.6387 7.61719V45.8301H0V7.61719L7.61719 15.2344H42.0215L49.6387 7.61719Z" fill="#2D5177"/>
<path d="M49.6387 7.61719V45.8301H24.8828V15.2344H42.0215L49.6387 7.61719Z" fill="#32405D"/>
<path d="M19.1699 22.9785H30.5957V34.4043H19.1699V22.9785Z" fill="#FED843"/>
<path d="M24.8828 22.9785H30.5957V34.4043H24.8828V22.9785Z" fill="#FABE2C"/>
<path d="M49.6387 7.61719L42.0215 26.7871H7.61719L0 7.61719H49.6387Z" fill="#46688C"/>
<path d="M49.6387 7.61719L42.0215 26.7871H24.8828V7.61719H49.6387Z" fill="#2D5177"/>
<path d="M48.5947 35.1641C42.3541 35.1641 37.2951 39.7477 37.2951 45.4021C37.2951 51.0564 42.3541 55.7159 48.5947 55.7159C54.8354 55.7159 59.9781 51.0564 59.9781 45.4021C59.9781 39.7477 54.8354 35.1641 48.5947 35.1641Z" fill="#FED843"/>
<path d="M59.9781 45.4021C59.9781 39.7477 54.8354 35.1641 48.5947 35.1641V55.7159C54.8354 55.7159 59.9781 51.0564 59.9781 45.4021Z" fill="#FABE2C"/>
<path d="M48.5947 44.2643C47.902 44.2643 47.3392 43.7544 47.3392 43.1267C47.3392 42.4991 47.902 41.9892 48.5947 41.9892C49.2874 41.9892 49.8502 42.4991 49.8502 43.1267H52.3613C52.3613 41.643 51.3097 40.393 49.8502 39.9229V37.439H48.5947H47.3392V39.9229C45.8797 40.393 44.8282 41.643 44.8282 43.1267C44.8282 45.0115 46.5145 46.5394 48.5947 46.5394C49.2874 46.5394 49.8502 47.0493 49.8502 47.677C49.8502 48.3046 49.2874 48.8145 48.5947 48.8145C47.902 48.8145 47.3392 48.3046 47.3392 47.677H44.8282C44.8282 49.1607 45.8797 50.4107 47.3392 50.8808V53.3647H48.5947H49.8502V50.8808C51.3097 50.4107 52.3613 49.1607 52.3613 47.677C52.3613 45.7922 50.6749 44.2643 48.5947 44.2643Z" fill="#FABE2C"/>
<path d="M49.8502 50.8806C51.3097 50.4106 52.3613 49.1606 52.3613 47.6768C52.3613 45.792 50.6749 44.2642 48.5947 44.2642V46.5393C49.2874 46.5393 49.8502 47.0492 49.8502 47.6768C49.8502 48.3045 49.2874 48.8144 48.5947 48.8144V53.3646H49.8502V50.8806Z" fill="#FF9100"/>
<path d="M49.8502 43.1267H52.3613C52.3613 41.643 51.3097 40.393 49.8502 39.9229V37.439H48.5947V41.9892C49.2874 41.9892 49.8502 42.4991 49.8502 43.1267Z" fill="#FF9100"/>
</svg>
