<svg width="44" height="52" viewBox="0 0 44 52" fill="none" xmlns="http://www.w3.org/2000/svg">
<path d="M41.6 19.0667H34.6961L27.6083 6.30847C27.6865 5.95053 27.7333 5.58133 27.7333 5.2C27.7333 2.33263 25.4007 0 22.5333 0C19.666 0 17.3333 2.33263 17.3333 5.2C17.3333 5.58133 17.3801 5.95053 17.4583 6.30847L10.3705 19.0667H1.73333C0.775233 19.0667 0 19.8419 0 20.8V50.2667C0 51.2248 0.775233 52 1.73333 52H27.2138C28.1719 52 28.9471 51.2248 28.9471 50.2667C28.9471 49.3086 28.1719 48.5333 27.2138 48.5333H3.46667V22.5333H39.8666V48.5333H34.6667C33.7086 48.5333 32.9333 49.3086 32.9333 50.2667C32.9333 51.2248 33.7086 52 34.6667 52H41.6C42.5581 52 43.3333 51.2248 43.3333 50.2667V20.8C43.3333 19.8419 42.5581 19.0667 41.6 19.0667ZM22.5333 3.46667C23.4897 3.46667 24.2667 4.24363 24.2667 5.2C24.2667 6.15636 23.4897 6.93333 22.5333 6.93333C21.577 6.93333 20.8 6.15636 20.8 5.2C20.8 4.24363 21.577 3.46667 22.5333 3.46667ZM18.3556 8.26648C19.303 9.55348 20.8162 10.4 22.5333 10.4C24.2504 10.4 25.7636 9.55348 26.7111 8.26648L32.7112 19.0667H12.3556L18.3556 8.26648Z" fill="black"/>
<g clip-path="url(#clip0)">
<path d="M21.6666 42.5519C16.7152 42.5519 12.7011 41.5305 12.7011 40.4829V42.8953C12.7039 43.9422 16.7166 44.9657 21.6666 44.9657C26.6166 44.9657 30.6294 43.9422 30.6321 42.8953V40.4829C30.6321 41.5305 26.618 42.5519 21.6666 42.5519Z" fill="#E4AF18"/>
<path d="M20.6321 38.7589C15.6808 38.7589 11.6666 37.7375 11.6666 36.6899V39.1024C11.6694 40.1493 15.6821 41.1727 20.6321 41.1727C25.5821 41.1727 29.5949 40.1493 29.5977 39.1024V36.6899C29.5977 37.7375 25.5835 38.7589 20.6321 38.7589Z" fill="#F4BF1A"/>
<path d="M22.7011 34.9659C17.7497 34.9659 13.7356 33.9446 13.7356 32.897V35.3094C13.7384 36.3563 17.7511 37.3797 22.7011 37.3797C27.6511 37.3797 31.6639 36.3563 31.6666 35.3094V32.897C31.6666 33.9446 27.6525 34.9659 22.7011 34.9659Z" fill="#E4AF18"/>
<path d="M29.5977 28.8036C29.5977 29.8509 25.5835 30.8278 20.6321 30.8278C15.6808 30.8278 11.6666 29.8509 11.6666 28.8036C11.6666 27.756 15.6808 27.0347 20.6321 27.0347C25.5835 27.0347 29.5977 27.756 29.5977 28.8036Z" fill="#FFD949"/>
<path d="M20.6321 30.8278C15.6808 30.8278 11.6666 29.8064 11.6666 28.7588V31.1712C11.6694 32.2181 15.6821 33.2415 20.6321 33.2415C25.5821 33.2415 29.5949 32.2181 29.5977 31.1712V28.7588C29.5977 29.8064 25.5835 30.8278 20.6321 30.8278Z" fill="#F4BF1A"/>
<path d="M13.0459 29.8188V32.2309C13.2556 32.3082 13.4852 32.3826 13.7356 32.4537V30.0413C13.4852 29.9702 13.2556 29.8957 13.0459 29.8188Z" fill="#DCA815"/>
<path d="M27.5287 30.0413V32.4537C27.779 32.3826 28.0087 32.3082 28.2183 32.2309V29.8188C28.0087 29.8961 27.779 29.9702 27.5287 30.0413Z" fill="#DCA815"/>
<path d="M14.7701 30.2915V32.7043C14.9908 32.7501 15.2208 32.7936 15.4597 32.8346V30.4218C15.2208 30.3808 14.9908 30.3374 14.7701 30.2915Z" fill="#DCA815"/>
<path d="M25.8045 30.4218V32.835C26.0435 32.7936 26.2735 32.7501 26.4942 32.7043V30.2915C26.2735 30.3374 26.0435 30.3808 25.8045 30.4218Z" fill="#DCA815"/>
<path d="M16.4942 30.5757V32.9888C16.719 33.0178 16.9483 33.0446 17.1839 33.0688V30.6557C16.9483 30.6315 16.719 30.6043 16.4942 30.5757Z" fill="#DCA815"/>
<path d="M24.0804 30.656V33.0691C24.3159 33.0446 24.5452 33.0178 24.7701 32.9891V30.5757C24.5452 30.605 24.3159 30.6319 24.0804 30.656Z" fill="#DCA815"/>
<path d="M18.2184 30.7446V33.1581C18.4449 33.1739 18.6746 33.1881 18.908 33.1995V30.7857C18.6746 30.7743 18.4449 30.7605 18.2184 30.7446Z" fill="#DCA815"/>
<path d="M22.3563 30.7857V33.1995C22.5897 33.1881 22.8194 33.1739 23.0459 33.1581V30.7446C22.8194 30.7605 22.5897 30.7743 22.3563 30.7857Z" fill="#DCA815"/>
<path d="M20.6322 30.8278C20.5166 30.8278 20.4018 30.8267 20.2873 30.8257V33.2395C20.4018 33.2405 20.5166 33.2415 20.6322 33.2415C20.7477 33.2415 20.8625 33.2405 20.977 33.2395V30.8257C20.8625 30.8267 20.7477 30.8278 20.6322 30.8278Z" fill="#DCA815"/>
<path d="M15.1149 33.9565V36.3686C15.3246 36.4459 15.5542 36.5203 15.8046 36.5914V34.179C15.5542 34.1079 15.3246 34.0334 15.1149 33.9565Z" fill="#C49214"/>
<path d="M29.5977 34.179V36.5914C29.848 36.5203 30.0777 36.4459 30.2873 36.3686V33.9565C30.0777 34.0338 29.848 34.1079 29.5977 34.179Z" fill="#C49214"/>
<path d="M16.8391 34.4297V36.8424C17.0597 36.8883 17.2897 36.9318 17.5287 36.9728V34.56C17.2897 34.519 17.0597 34.4755 16.8391 34.4297Z" fill="#C49214"/>
<path d="M27.8735 34.56V36.9731C28.1125 36.9318 28.3425 36.8883 28.5632 36.8424V34.4297C28.3425 34.4755 28.1125 34.519 27.8735 34.56Z" fill="#C49214"/>
<path d="M18.5632 34.7139V37.127C18.788 37.1559 19.0173 37.1828 19.2528 37.207V34.7939C19.0173 34.7694 18.788 34.7425 18.5632 34.7139Z" fill="#C49214"/>
<path d="M26.1494 34.7935V37.207C26.3849 37.1825 26.6142 37.1556 26.839 37.127V34.7139C26.6142 34.7428 26.3849 34.7697 26.1494 34.7935Z" fill="#C49214"/>
<path d="M20.2873 34.8828V37.2963C20.5139 37.3121 20.7435 37.3263 20.977 37.3376V34.9238C20.7435 34.9125 20.5139 34.8987 20.2873 34.8828Z" fill="#C49214"/>
<path d="M24.4252 34.9238V37.3376C24.6587 37.3263 24.8883 37.3121 25.1149 37.2963V34.8828C24.8883 34.8987 24.6587 34.9125 24.4252 34.9238Z" fill="#C49214"/>
<path d="M22.7011 34.9659C22.5856 34.9659 22.4707 34.9649 22.3563 34.9639V37.3777C22.4707 37.3787 22.5856 37.3797 22.7011 37.3797C22.8166 37.3797 22.9314 37.3787 23.0459 37.3777V34.9639C22.9314 34.9649 22.8166 34.9659 22.7011 34.9659Z" fill="#C49214"/>
<path d="M13.0459 37.75V40.1621C13.2556 40.2393 13.4852 40.3134 13.7356 40.3848V37.9724C13.4852 37.9014 13.2556 37.8269 13.0459 37.75Z" fill="#DCA815"/>
<path d="M27.5287 37.9724V40.3848C27.779 40.3138 28.0087 40.2393 28.2183 40.1621V37.75C28.0087 37.8272 27.779 37.9014 27.5287 37.9724Z" fill="#DCA815"/>
<path d="M14.7701 38.2227V40.6354C14.9908 40.6813 15.2208 40.7247 15.4597 40.7658V38.353C15.2208 38.312 14.9908 38.2685 14.7701 38.2227Z" fill="#DCA815"/>
<path d="M25.8045 38.353V40.7661C26.0435 40.7247 26.2735 40.6813 26.4942 40.6354V38.2227C26.2735 38.2685 26.0435 38.312 25.8045 38.353Z" fill="#DCA815"/>
<path d="M16.4942 38.5073V40.9204C16.719 40.9494 16.9483 40.9763 17.1839 41.0004V38.5873C16.9483 38.5628 16.719 38.5359 16.4942 38.5073Z" fill="#DCA815"/>
<path d="M24.0804 38.587V41.0004C24.3159 40.9759 24.5452 40.949 24.7701 40.9204V38.5073C24.5452 38.5363 24.3159 38.5632 24.0804 38.587Z" fill="#DCA815"/>
<path d="M18.2184 38.6758V41.0892C18.4449 41.1051 18.6746 41.1192 18.908 41.1306V38.7168C18.6746 38.7054 18.4449 38.6916 18.2184 38.6758Z" fill="#DCA815"/>
<path d="M22.3563 38.7168V41.1306C22.5897 41.1192 22.8194 41.1051 23.0459 41.0892V38.6758C22.8194 38.6916 22.5897 38.7054 22.3563 38.7168Z" fill="#DCA815"/>
<path d="M20.6322 38.7589C20.5166 38.7589 20.4018 38.7579 20.2873 38.7568V41.1706C20.4018 41.1717 20.5166 41.1727 20.6322 41.1727C20.7477 41.1727 20.8625 41.1717 20.977 41.1706V38.7568C20.8625 38.7579 20.7477 38.7589 20.6322 38.7589Z" fill="#DCA815"/>
<path d="M14.0804 41.543V43.955C14.2901 44.0323 14.5197 44.1064 14.7701 44.1778V41.7654C14.5197 41.6943 14.2901 41.6199 14.0804 41.543Z" fill="#C49214"/>
<path d="M28.5632 41.7654V44.1778C28.8135 44.1068 29.0432 44.0323 29.2528 43.955V41.543C29.0432 41.6202 28.8135 41.6943 28.5632 41.7654Z" fill="#C49214"/>
<path d="M15.8046 42.0156V44.4284C16.0253 44.4742 16.2553 44.5177 16.4942 44.5587V42.146C16.2553 42.1049 16.0253 42.0615 15.8046 42.0156Z" fill="#C49214"/>
<path d="M26.839 42.146V44.5591C27.078 44.5177 27.308 44.4742 27.5287 44.4284V42.0156C27.308 42.0615 27.078 42.1049 26.839 42.146Z" fill="#C49214"/>
<path d="M17.5287 42.3003V44.7134C17.7535 44.7424 17.9828 44.7693 18.2183 44.7934V42.3803C17.9828 42.3558 17.7535 42.3289 17.5287 42.3003Z" fill="#C49214"/>
<path d="M25.1149 42.3799V44.7934C25.3504 44.7689 25.5797 44.742 25.8046 44.7134V42.3003C25.5797 42.3293 25.3504 42.3562 25.1149 42.3799Z" fill="#C49214"/>
<path d="M19.2528 42.4688V44.8822C19.4794 44.8981 19.709 44.9122 19.9425 44.9236V42.5098C19.709 42.4984 19.4794 42.4846 19.2528 42.4688Z" fill="#C49214"/>
<path d="M23.3907 42.5098V44.9236C23.6242 44.9122 23.8538 44.8981 24.0804 44.8822V42.4688C23.8538 42.4846 23.6242 42.4984 23.3907 42.5098Z" fill="#C49214"/>
<path d="M21.6666 42.5519C21.5511 42.5519 21.4363 42.5508 21.3218 42.5498V44.9636C21.4363 44.9646 21.5511 44.9657 21.6666 44.9657C21.7822 44.9657 21.897 44.9646 22.0115 44.9636V42.5498C21.897 42.5508 21.7822 42.5519 21.6666 42.5519Z" fill="#C49214"/>
<path d="M29.3259 39.5767C28.3466 40.438 24.8263 41.1725 20.6321 41.1725C17.3528 41.1725 14.4863 40.7232 12.9232 40.1156C12.7794 40.246 12.7011 40.3839 12.7011 40.5277C12.7011 41.5753 16.7152 42.5518 21.6666 42.5518C26.6183 42.5518 30.6321 41.5753 30.6321 40.5277C30.6321 40.1667 30.1546 39.8439 29.3259 39.5767Z" fill="#FCC62D"/>
<path d="M22.7011 37.3793C18.1449 37.3793 14.3852 36.5121 13.8135 35.5576C12.4759 35.8607 11.6666 36.2645 11.6666 36.7345C11.6666 37.7818 15.6808 38.7586 20.6321 38.7586C25.5835 38.7586 29.5977 37.7818 29.5977 36.7345C29.5977 36.6883 29.5873 36.6431 29.5718 36.5983C27.9273 37.0611 25.4604 37.3793 22.7011 37.3793Z" fill="#FFD949"/>
<path d="M29.2504 31.7065C28.1777 32.541 24.7266 33.2414 20.6321 33.2414C17.988 33.2414 15.6118 32.949 13.9708 32.5172C13.8187 32.6517 13.7356 32.7931 13.7356 32.9414C13.7356 33.989 17.7497 34.9655 22.7011 34.9655C27.6525 34.9655 31.6666 33.989 31.6666 32.9414C31.6666 32.4407 30.7483 32.0148 29.2504 31.7065Z" fill="#FCC62D"/>
</g>
<defs>
<clipPath id="clip0">
<rect width="20" height="20" fill="white" transform="translate(11.6666 26)"/>
</clipPath>
</defs>
</svg>
