<svg width="51" height="51" viewBox="0 0 51 51" fill="none" xmlns="http://www.w3.org/2000/svg">
<path d="M46.5208 30.5901L36.7519 20.8215C35.6037 19.6733 34.2609 18.8075 32.7564 18.2433C32.1922 16.7388 31.3264 15.3959 30.1783 14.2477L20.4095 4.47892C18.282 2.35138 15.4532 1.17969 12.4444 1.17969C9.43562 1.17969 6.60674 2.35138 4.4791 4.47892C2.35126 6.60646 1.17957 9.43535 1.17957 12.4441C1.17957 15.4529 2.35126 18.2819 4.4789 20.4093L14.2477 30.1781C15.3959 31.3262 16.7388 32.1919 18.2433 32.7562C18.8075 34.2607 19.6733 35.6036 20.8215 36.7518L30.5903 46.5206C32.7178 48.6482 35.5467 49.8199 38.5555 49.8199C41.5643 49.8199 44.3932 48.6482 46.5207 46.5205C50.9128 42.1286 50.9128 34.9822 46.5208 30.5901ZM15.3333 29.093L5.56414 19.3243C3.72636 17.4866 2.71433 15.0432 2.71433 12.4442C2.71433 9.84533 3.72646 7.40194 5.56414 5.56416C7.40181 3.72638 9.84531 2.71436 12.4443 2.71436C15.0433 2.71436 17.4866 3.72648 19.3244 5.56416L29.0932 15.3329C29.8033 16.0431 30.3886 16.8392 30.8425 17.7107C30.7906 17.7011 30.7383 17.693 30.6864 17.6841C30.6516 17.6782 30.6168 17.672 30.5818 17.6663C30.4461 17.6444 30.3099 17.6246 30.1732 17.6076C30.1604 17.606 30.1473 17.6048 30.1344 17.6033C30.0091 17.5883 29.8835 17.5758 29.7575 17.5649C29.7234 17.562 29.6894 17.5593 29.6553 17.5566C29.5328 17.5473 29.4101 17.5395 29.2872 17.5342C29.2702 17.5335 29.2532 17.5322 29.2363 17.5315C29.0971 17.5261 28.9574 17.5234 28.8177 17.5231C28.8072 17.5231 28.7969 17.5225 28.7865 17.5225C28.7682 17.5225 28.7496 17.5236 28.7313 17.5237C28.5977 17.5244 28.4639 17.5273 28.33 17.5327C28.3036 17.5337 28.2774 17.5343 28.251 17.5356C28.2373 17.5362 28.2239 17.5364 28.2102 17.537C27.9957 17.2526 27.761 16.9825 27.5091 16.7306L17.9263 7.14764C16.4868 5.70829 14.573 4.91561 12.5373 4.91561C10.4642 4.91561 8.5251 5.73389 7.07739 7.21965C4.18336 10.1899 4.24761 15.025 7.22053 17.9981L16.7312 27.5087C16.9803 27.7578 17.2482 27.9889 17.5293 28.2015L17.5277 28.2196L17.9086 28.4726C17.9846 28.5231 18.0614 28.5721 18.139 28.6198C18.6772 28.95 19.2519 29.2096 19.8504 29.3957C19.8557 29.3973 19.8611 29.3993 19.8663 29.4009C19.9371 29.4227 20.0084 29.4428 20.0797 29.4624C20.0955 29.4668 20.1112 29.4719 20.1271 29.4762C20.1931 29.494 20.2596 29.5101 20.3261 29.526C20.3476 29.5312 20.3689 29.5372 20.3905 29.542C20.4519 29.5563 20.514 29.5688 20.5759 29.5815C20.6028 29.587 20.6294 29.5933 20.6564 29.5986C20.709 29.6089 20.762 29.6173 20.8149 29.6264C20.8517 29.6328 20.8881 29.6399 20.925 29.6457C20.9673 29.6524 21.0101 29.6576 21.0527 29.6636C21.1003 29.6702 21.1478 29.6777 21.1956 29.6834C21.2295 29.6875 21.2635 29.6903 21.2975 29.6939C21.3543 29.7001 21.411 29.7066 21.4679 29.7115C21.4949 29.7138 21.522 29.715 21.549 29.7168C21.6133 29.7216 21.6774 29.7266 21.7419 29.7297C21.761 29.7306 21.7802 29.7307 21.7993 29.7315C21.8709 29.7345 21.9424 29.7374 22.0141 29.7383L22.0194 29.7384L22.8053 29.735L22.805 29.7094C24.5836 29.5539 26.2331 28.7844 27.5092 27.5083C28.7761 26.2413 29.5399 24.6117 29.7057 22.8504C29.7206 22.8525 29.7355 22.8545 29.7503 22.8567C29.8138 22.8658 29.8772 22.8759 29.9403 22.887C29.9637 22.8911 29.9872 22.895 30.0107 22.8992C30.0958 22.9152 30.1805 22.9325 30.2647 22.9519C30.2674 22.9525 30.27 22.9532 30.2726 22.954C30.3534 22.9728 30.4338 22.9939 30.5137 23.0159C30.5376 23.0226 30.5615 23.0296 30.5854 23.0365C30.6465 23.0542 30.7073 23.073 30.7678 23.0926C30.7917 23.1003 30.8157 23.108 30.8394 23.116C30.9142 23.1414 30.9885 23.1679 31.0623 23.1962C31.0687 23.1987 31.0751 23.2008 31.0815 23.2032C31.1616 23.2342 31.241 23.2674 31.3198 23.3019C31.3411 23.3111 31.3623 23.3211 31.3835 23.3306C31.4421 23.3571 31.5004 23.3844 31.5583 23.4128C31.5815 23.4242 31.6047 23.4356 31.6277 23.4473C31.6915 23.4796 31.7547 23.5129 31.8174 23.5476C31.8278 23.5533 31.8384 23.5587 31.8486 23.5645C31.5565 25.649 30.5886 27.5971 29.0933 29.0925C27.4864 30.6994 25.357 31.6972 23.0969 31.9019C22.8048 31.9284 22.5077 31.9419 22.214 31.9419C22.0274 31.9419 21.8414 31.9346 21.6559 31.9241C20.7811 31.8744 19.92 31.7096 19.0893 31.4288C17.6663 30.9482 16.4025 30.1622 15.3333 29.093ZM26.3895 17.7818C24.2924 18.2392 22.3519 19.291 20.8214 20.8214C19.291 22.3519 18.2392 24.2925 17.7818 26.3895L8.30546 16.9133C5.92303 14.5308 5.86515 10.6628 8.17627 8.29104C9.33263 7.10421 10.8813 6.45067 12.5371 6.45067C14.1629 6.45067 15.6913 7.08379 16.8409 8.23337L26.3895 17.7818ZM22.8378 28.1608C22.9952 26.8068 23.5962 25.5554 24.5757 24.5759C25.5537 23.598 26.8073 22.9959 28.1619 22.838C28.0046 24.1924 27.4035 25.4443 26.4239 26.424C25.4458 27.4019 24.1936 28.0019 22.8378 28.1608ZM33.2179 24.61L42.6942 34.0865C45.0767 36.4688 45.1346 40.3367 42.8234 42.7086C41.6671 43.8954 40.1184 44.549 38.4626 44.549C36.8367 44.549 35.3083 43.9159 34.1587 42.7662L24.6101 33.2177C26.7072 32.7603 28.6477 31.7084 30.1782 30.178C31.7087 28.6476 32.7605 26.7072 33.2179 24.61ZM45.4356 45.4356C43.5978 47.2734 41.1544 48.2854 38.5555 48.2854C35.9566 48.2854 33.5131 47.2733 31.6753 45.4356L21.9065 35.6668C21.1963 34.9567 20.611 34.1606 20.1571 33.289C20.2088 33.2986 20.2607 33.3066 20.3125 33.3154C20.3481 33.3215 20.3838 33.3279 20.4196 33.3336C20.5534 33.3551 20.6877 33.3747 20.8224 33.3913C20.8428 33.3939 20.8633 33.3956 20.8837 33.3981C20.9997 33.4118 21.1159 33.4236 21.2323 33.4335C21.2735 33.4371 21.3147 33.4404 21.356 33.4436C21.466 33.4519 21.576 33.4586 21.6863 33.4637C21.7148 33.465 21.7432 33.467 21.7717 33.4681C21.9055 33.4733 22.0396 33.4758 22.1739 33.4763C22.1872 33.4763 22.2004 33.4771 22.2135 33.4771C22.2136 33.4771 22.2136 33.4771 22.2137 33.4771C22.292 33.4771 22.3706 33.4761 22.4492 33.4744C22.4522 33.4744 22.4552 33.4744 22.458 33.4743C22.5592 33.4721 22.6604 33.4682 22.7616 33.4634C22.7707 33.463 22.78 33.4629 22.7892 33.4624C23.0037 33.7468 23.2384 34.0168 23.4903 34.2689L33.0731 43.8517C34.5126 45.291 36.4265 46.0838 38.4622 46.0838C40.5353 46.0838 42.4744 45.2655 43.9221 43.7798C46.8162 40.8096 46.752 35.9745 43.779 33.0013L34.2683 23.4906C34.0192 23.2415 33.7513 23.0105 33.4702 22.7979L33.4718 22.78L33.091 22.5269C33.0151 22.4765 32.9383 22.4275 32.8608 22.3799C32.8331 22.3629 32.8047 22.347 32.7768 22.3304C32.7268 22.3005 32.6769 22.2703 32.6262 22.2417C32.5856 22.2188 32.5442 22.1973 32.5032 22.1751C32.4645 22.1542 32.4263 22.1325 32.3873 22.1123C32.3382 22.0868 32.2885 22.063 32.2389 22.0386C32.2074 22.0232 32.1762 22.0068 32.1445 21.9918C32.092 21.9669 32.0389 21.9437 31.9859 21.92C31.9564 21.9069 31.9272 21.8929 31.8977 21.88C31.8428 21.8564 31.7873 21.8344 31.7319 21.8121C31.7035 21.8008 31.6756 21.7885 31.6472 21.7774C31.5923 21.756 31.5369 21.7364 31.4815 21.7163C31.452 21.7056 31.4227 21.6941 31.3932 21.6837C31.3381 21.6645 31.2824 21.6469 31.2268 21.629C31.1965 21.6193 31.1665 21.6087 31.1361 21.5992C31.0812 21.5823 31.0257 21.5669 30.9703 21.5512C30.9388 21.5423 30.9074 21.5325 30.8759 21.524C30.8239 21.51 30.7714 21.4975 30.7192 21.4847C30.6836 21.4759 30.6483 21.4663 30.6126 21.458C30.5634 21.4465 30.5138 21.4367 30.4644 21.4263C30.4252 21.4181 30.3862 21.409 30.3469 21.4013C30.3005 21.3924 30.2537 21.3848 30.2071 21.3765C30.1644 21.369 30.1216 21.3608 30.0787 21.354C30.0364 21.3473 29.9935 21.3421 29.9511 21.3361C29.9035 21.3293 29.856 21.322 29.8082 21.3163C29.7705 21.3117 29.7326 21.3085 29.6948 21.3044C29.6418 21.2988 29.5889 21.2927 29.5357 21.2881C29.5026 21.2852 29.4692 21.2837 29.436 21.2812C29.3781 21.277 29.32 21.2724 29.2617 21.2695C29.2324 21.2681 29.2029 21.2678 29.1737 21.2667C29.1143 21.2644 29.055 21.2618 28.9955 21.2608L28.9839 21.2607C28.9837 21.2607 28.9835 21.2607 28.9833 21.2607C28.983 21.2607 28.9826 21.2607 28.9823 21.2607C28.9481 21.2602 28.9139 21.26 28.8796 21.26C26.8432 21.26 24.9294 22.0522 23.491 23.4906C22.2219 24.7597 21.4579 26.3922 21.2937 28.1483C21.2786 28.1462 21.2634 28.1442 21.2483 28.1419C21.1856 28.133 21.1234 28.123 21.0611 28.1121C21.0368 28.1078 21.0123 28.1038 20.988 28.0993C20.9037 28.0835 20.8196 28.0663 20.7361 28.047C20.7306 28.0458 20.7252 28.0441 20.7197 28.0429C20.6418 28.0246 20.5644 28.0046 20.4873 27.9833C20.4622 27.9763 20.4374 27.9689 20.4124 27.9616C20.3525 27.9442 20.2931 27.926 20.2339 27.9067C20.209 27.8986 20.1842 27.8907 20.1594 27.8823C20.0862 27.8574 20.0132 27.8314 19.9409 27.8037C19.9333 27.8007 19.9255 27.7982 19.9178 27.7952C19.8381 27.7643 19.7592 27.7313 19.6807 27.6971C19.6588 27.6875 19.6369 27.6774 19.6152 27.6675C19.5574 27.6414 19.4998 27.6144 19.4427 27.5865C19.4189 27.5749 19.395 27.5631 19.3713 27.5512C19.3085 27.5195 19.2465 27.4865 19.1848 27.4525C19.1737 27.4464 19.1623 27.4406 19.1512 27.4343C19.4434 25.3498 20.4113 23.4018 21.9066 21.9064C23.5135 20.2996 25.6429 19.3018 27.9031 19.0971C28.1954 19.0705 28.4926 19.057 28.7863 19.057C29.0529 19.057 29.3185 19.0678 29.5828 19.0893C29.7251 19.1009 29.8668 19.1161 30.0084 19.1339C30.6547 19.2152 31.2912 19.3605 31.9108 19.57C33.334 20.0509 34.5977 20.837 35.6669 21.9063L45.4358 31.6752C49.2293 35.469 49.2292 41.6419 45.4356 45.4356Z" fill="black"/>
<path d="M43.0937 6.82003L37.3102 12.6035L38.3953 13.6886L44.1788 7.90513L43.0937 6.82003Z" fill="black"/>
<path d="M30.0354 0H28.5008V8.17926H30.0354V0Z" fill="black"/>
<path d="M51 20.9648H42.8207V22.4994H51V20.9648Z" fill="black"/>
<path d="M12.6016 37.3093L6.81815 43.0928L7.90324 44.1779L13.6867 38.3944L12.6016 37.3093Z" fill="black"/>
<path d="M8.17926 28.501H0V30.0356H8.17926V28.501Z" fill="black"/>
<path d="M22.4994 42.8208H20.9648V51.0001H22.4994V42.8208Z" fill="black"/>
</svg>
