<svg width="54" height="54" viewBox="0 0 54 54" fill="none" xmlns="http://www.w3.org/2000/svg">
<path d="M44.8587 21.7935L47.0955 19.5567L53.4227 25.8839L51.1859 28.1206L44.8587 21.7935Z" fill="#FABE2C"/>
<path d="M25.8785 2.80908L28.1152 0.572316L34.4424 6.8995L32.2057 9.13626L25.8785 2.80908Z" fill="#FFE14D"/>
<path d="M38.0742 0H41.2383V6.43359H38.0742V0Z" fill="#FABE2C"/>
<path d="M47.5664 12.7617H54V15.9258H47.5664V12.7617Z" fill="#FABE2C"/>
<path d="M52.3125 1.68734L51.194 0.568848L44.8658 6.89697L45.9843 8.01547L47.1028 9.13397L53.431 2.80584L52.3125 1.68734Z" fill="#FFE14D"/>
<path d="M45.9791 8.02002L52.3063 1.69284L53.4246 2.81118L47.0974 9.13837L45.9791 8.02002Z" fill="#FABE2C"/>
<path d="M2.63609 29.2155L15.8686 33.6572L0 49.5259L2.2371 51.763L4.4742 54L20.3428 38.1314L24.7845 51.364L40.92 13.0801L2.63609 29.2155Z" fill="#404A80"/>
<path d="M20.3428 38.1314L24.7845 51.364L40.92 13.0801L2.23712 51.763L4.47422 54L20.3428 38.1314Z" fill="#283366"/>
</svg>
